<svg xmlns="http://www.w3.org/2000/svg" width="177.999" height="52.896" viewBox="0 0 177.999 52.896"><defs><style>.a{fill:#41b7bf;}.b{fill:#fbcd5d;}.c{fill:#e96169;}</style></defs><g transform="translate(-2054.533 -93.082)"><g transform="translate(2103.948 100.639)"><path class="a" d="M2102.08,107.51a10.27,10.27,0,0,1,4.648-1.04,10.6,10.6,0,0,1,5.454,1.427,10.1,10.1,0,0,1,3.843,4.058,12.576,12.576,0,0,1,1.406,6.015,12.82,12.82,0,0,1-1.406,6.056,10.423,10.423,0,0,1-3.863,4.159,10.283,10.283,0,0,1-5.434,1.488,10.389,10.389,0,0,1-4.689-1.018,9,9,0,0,1-3.245-2.61v3.262h-4.71V99.13h4.71v11.051A8.921,8.921,0,0,1,2102.08,107.51Zm9.586,6.443a6.616,6.616,0,0,0-2.562-2.569,6.956,6.956,0,0,0-3.408-.877,6.764,6.764,0,0,0-5.931,3.507,8.052,8.052,0,0,0-.971,4.037,8.167,8.167,0,0,0,.971,4.058,6.677,6.677,0,0,0,2.562,2.63,6.751,6.751,0,0,0,9.338-2.691,8.282,8.282,0,0,0,.971-4.078A7.939,7.939,0,0,0,2111.666,113.953Z" transform="translate(-2094.084 -99.13)"/><path class="a" d="M2121.216,99.13v30.177h-4.71V99.13Z" transform="translate(-2088.492 -99.13)"/><path class="a" d="M2129.592,126.761a10.463,10.463,0,0,1-4.091-4.078,12.169,12.169,0,0,1-1.488-6.1,11.935,11.935,0,0,1,1.529-6.076,10.5,10.5,0,0,1,4.173-4.078,12.947,12.947,0,0,1,11.817,0,10.51,10.51,0,0,1,4.174,4.078,11.95,11.95,0,0,1,1.528,6.076,11.7,11.7,0,0,1-1.571,6.077,10.809,10.809,0,0,1-4.276,4.1,12.465,12.465,0,0,1-5.971,1.447A11.785,11.785,0,0,1,2129.592,126.761Zm9.234-3.446a6.567,6.567,0,0,0,2.583-2.57,8.155,8.155,0,0,0,.992-4.159,8.348,8.348,0,0,0-.951-4.139,6.385,6.385,0,0,0-2.52-2.549,6.981,6.981,0,0,0-3.388-.856,6.857,6.857,0,0,0-3.367.856,6.157,6.157,0,0,0-2.459,2.549,8.661,8.661,0,0,0-.909,4.139,7.82,7.82,0,0,0,1.88,5.607,6.248,6.248,0,0,0,4.732,1.978A7.079,7.079,0,0,0,2138.826,123.315Z" transform="translate(-2086.619 -97.665)"/><path class="a" d="M2150.69,126.761a10.472,10.472,0,0,1-4.092-4.078,12.182,12.182,0,0,1-1.487-6.1,11.94,11.94,0,0,1,1.529-6.076,10.5,10.5,0,0,1,4.173-4.078,12.947,12.947,0,0,1,11.817,0,10.5,10.5,0,0,1,4.173,4.078,11.938,11.938,0,0,1,1.529,6.076,11.7,11.7,0,0,1-1.571,6.077,10.81,10.81,0,0,1-4.277,4.1,12.462,12.462,0,0,1-5.97,1.447A11.787,11.787,0,0,1,2150.69,126.761Zm9.235-3.446a6.575,6.575,0,0,0,2.582-2.57,8.168,8.168,0,0,0,.992-4.159,8.35,8.35,0,0,0-.951-4.139,6.387,6.387,0,0,0-2.52-2.549,6.982,6.982,0,0,0-3.388-.856,6.853,6.853,0,0,0-3.367.856,6.154,6.154,0,0,0-2.459,2.549,8.658,8.658,0,0,0-.909,4.139,7.82,7.82,0,0,0,1.88,5.607,6.249,6.249,0,0,0,4.732,1.978A7.082,7.082,0,0,0,2159.925,123.315Z" transform="translate(-2081.357 -97.665)"/><path class="a" d="M2199.808,106.106a8,8,0,0,1,3.346,3.262,10.48,10.48,0,0,1,1.219,5.22v13.254H2199.7v-12.56a6.469,6.469,0,0,0-1.529-4.629,5.478,5.478,0,0,0-4.173-1.61,5.551,5.551,0,0,0-4.194,1.61,6.422,6.422,0,0,0-1.549,4.629v12.56h-4.669v-12.56a6.469,6.469,0,0,0-1.529-4.629,5.479,5.479,0,0,0-4.172-1.61,5.555,5.555,0,0,0-4.2,1.61,6.42,6.42,0,0,0-1.548,4.629v12.56h-4.71V105.371h4.71v2.57a7.811,7.811,0,0,1,2.933-2.161,9.41,9.41,0,0,1,3.8-.775,10.238,10.238,0,0,1,4.876,1.142,7.859,7.859,0,0,1,3.3,3.3,7.589,7.589,0,0,1,3.224-3.242,9.638,9.638,0,0,1,4.71-1.2A10.314,10.314,0,0,1,2199.808,106.106Z" transform="translate(-2075.79 -97.665)"/></g><g transform="translate(2054.533 93.082)"><path class="b" d="M2057.412,124.939c5.678,2.951,12.693,1.257,17.751-2.173a23.376,23.376,0,0,0,9.67-13.526,11.65,11.65,0,0,0-1.143-9.312,14.257,14.257,0,0,0-6.917-5.345,28.844,28.844,0,0,0-10.162-1.5c-3.206-.032-7.6.037-9.419,3.161-.891,1.532-.952,3.522-1.179,5.235q-.361,2.736-.549,5.494a64.068,64.068,0,0,0,.107,10.937,1.984,1.984,0,0,0,1.948,1.909,1.942,1.942,0,0,0,1.948-1.909,69.2,69.2,0,0,1,.441-16.431c.132-.977.109-2.64.733-3.462.7-.92,2.509-1.022,3.541-1.082a34.468,34.468,0,0,1,8.433.439c4.747.925,9.375,4.027,8.76,9.312a18.774,18.774,0,0,1-6.816,11.754c-3.911,3.271-10.276,5.749-15.183,3.2-2.213-1.151-4.183,2.145-1.965,3.3Z" transform="translate(-2054.346 -93.082)"/><path class="c" d="M2091.1,117.453c-3.433-8.249-12.759-11.737-21.313-11.352-4.388.2-10.277.786-13.317,4.325a8.176,8.176,0,0,0,.647,11.236q.272,1.064.558,2.114a62.953,62.953,0,0,0,3.826,11.01c1.774,3.64,4.921,7.067,9.154,7.78,4.3.726,9-.942,12.573-3.251C2090.422,134.667,2094.5,125.6,2091.1,117.453Zm-9.291,18.2c-2.715,1.883-6.254,3.452-9.644,3.27-3.462-.187-5.813-3.071-7.22-5.9a56.037,56.037,0,0,1-3.472-10.109c-.084-.3-.166-.608-.249-.913.007-.019-1.544-6.814-1.574-9.026a2.062,2.062,0,0,0-.033-.28,4.625,4.625,0,0,1,.426-.382,10.143,10.143,0,0,1,4.169-1.664,33,33,0,0,1,5.771-.738c6.722-.261,14.357,2.075,17.341,8.54C2090.176,124.614,2087.224,131.9,2081.813,135.65Z" transform="translate(-2054.533 -89.842)"/></g></g></svg>