<svg xmlns="http://www.w3.org/2000/svg" viewBox="0 0 1651.07 490.65"><defs><style>.cls-1{fill:#fff;}</style></defs><g id="Capa_2" data-name="Capa 2"><g id="Layer_1" data-name="Layer 1"><path class="cls-1" d="M28.43,295.5c52.68,27.38,117.74,11.67,164.66-20.15,43.75-29.66,77.18-74.46,89.7-125.46,7.2-29.35,6.37-60.3-10.6-86.37C257.05,40.27,233.9,24,208,13.93,178.33,2.37,145.39.36,113.76,0,84-.26,43.23.39,26.39,29.36,18.13,43.57,17.57,62,15.46,77.91q-3.37,25.4-5.1,51c-2.26,33.77-2.51,67.76,1,101.45C12.36,239.84,19,248,29.43,248c9,0,19.06-8.13,18.06-17.71-5.27-50.52-2.74-102.14,4.1-152.41,1.23-9.06,3.69-25.66,9.49-33.28,6.49-8.52,20.58-8.3,30.15-8.86,25.68-1.49,53-.85,78.24,4.07,44,8.58,87,37.35,81.24,86.36-4.94,42.36-30.65,81.8-63.21,109-36.28,30.34-95.33,53.33-140.83,29.68C26.14,254.25,7.86,284.81,28.43,295.5Z"/><path class="cls-1" d="M339.22,256.11c-31.85-76.51-118.35-108.87-197.7-105.3-40.7,1.84-95.34,7.29-123.52,40.13C-9.53,223-3.86,267.19,24,295.15q2.52,9.89,5.18,19.61c9.42,34.49,19.74,69.86,35.48,102.13,16.46,33.76,45.65,65.55,84.91,72.17,39.93,6.72,83.5-8.75,116.63-30.16C332.89,415.79,370.67,331.69,339.22,256.11ZM253,424.91c-25.17,17.46-58,32-89.45,30.32-32.12-1.73-53.93-28.47-67-54.69C82,371.21,73.05,338.21,64.4,306.77c-.77-2.81-1.54-5.64-2.3-8.47.07-.17-14.32-63.21-14.61-83.72A19.17,19.17,0,0,0,47.2,212a42.43,42.43,0,0,1,3.95-3.56c10.91-8.64,25.26-12.49,38.68-15.43a305.15,305.15,0,0,1,53.52-6.85c62.35-2.42,133.18,19.25,160.86,79.21C330.61,322.54,303.22,390.12,253,424.91Z"/><path class="cls-1" d="M532.53,147.82q19.35-9.65,43.11-9.64,28,0,50.59,13.24t35.64,37.63q13,24.4,13,55.8t-13,56.17q-13,24.78-35.83,38.58a95.39,95.39,0,0,1-50.4,13.81q-24.52,0-43.5-9.46t-30.09-24.21V350H458.36V70.09h43.69V172.6Q513.18,157.48,532.53,147.82Zm88.91,59.77a61.35,61.35,0,0,0-23.76-23.83,64.52,64.52,0,0,0-31.62-8.13,62.72,62.72,0,0,0-55,32.53q-9,15.89-9,37.44t9,37.64q9,16.08,23.76,24.4a62.91,62.91,0,0,0,62.86-.19q14.75-8.52,23.76-24.78t9-37.82Q630.45,223.28,621.44,207.59Z"/><path class="cls-1" d="M761.9,70.09V350H718.21V70.09Z"/><path class="cls-1" d="M857,340A97.11,97.11,0,0,1,819,302.15q-13.78-24.39-13.8-56.55,0-31.77,14.18-56.36a97.44,97.44,0,0,1,38.72-37.82q24.51-13.24,54.8-13.24t54.81,13.24a97.55,97.55,0,0,1,38.71,37.82q14.18,24.6,14.18,56.36T1006,302a100.22,100.22,0,0,1-39.67,38q-25.1,13.42-55.37,13.43Q881.11,353.41,857,340Zm85.67-32q14.75-7.95,23.94-23.83t9.2-38.59q0-22.69-8.81-38.39t-23.38-23.64a64.6,64.6,0,0,0-31.43-7.94,63.45,63.45,0,0,0-31.23,7.94q-14.38,8-22.8,23.64t-8.44,38.39q0,33.68,17.44,52T911,316A65.8,65.8,0,0,0,942.62,308Z"/><path class="cls-1" d="M1101.47,340a97.11,97.11,0,0,1-37.94-37.83q-13.8-24.39-13.8-56.55,0-31.77,14.18-56.36a97.42,97.42,0,0,1,38.71-37.82q24.53-13.24,54.81-13.24t54.8,13.24A97.51,97.51,0,0,1,1251,189.24q14.17,24.6,14.18,56.36T1250.56,302a100.22,100.22,0,0,1-39.67,38q-25.1,13.42-55.37,13.43Q1125.61,353.41,1101.47,340Zm85.66-32q14.74-7.95,23.95-23.83t9.2-38.59q0-22.69-8.81-38.39t-23.38-23.64a64.6,64.6,0,0,0-31.43-7.94,63.42,63.42,0,0,0-31.23,7.94q-14.39,8-22.81,23.64t-8.43,38.39q0,33.68,17.44,52T1155.52,316A65.77,65.77,0,0,0,1187.13,308Z"/><path class="cls-1" d="M1608.72,148.39a74.33,74.33,0,0,1,31,30.26q11.29,20.06,11.31,48.42V350h-43.31V233.5q0-28-14.18-42.93t-38.71-14.94q-24.54,0-38.91,14.94t-14.37,42.93V350h-43.31V233.5q0-28-14.18-42.93t-38.7-14.94q-24.54,0-38.91,14.94t-14.37,42.93V350h-43.69V141.58h43.69v23.83a72.76,72.76,0,0,1,27.22-20,87.35,87.35,0,0,1,35.25-7.18q25.29,0,45.23,10.59a72.9,72.9,0,0,1,30.66,30.64q9.58-18.91,29.89-30.07a89.35,89.35,0,0,1,43.7-11.16Q1589,138.18,1608.72,148.39Z"/></g></g></svg>