<svg xmlns="http://www.w3.org/2000/svg" xmlns:xlink="http://www.w3.org/1999/xlink" width="138.868" height="145.571" viewBox="0 0 138.868 145.571"><defs><style>.a,.l{fill:#fff;}.b{fill:none;}.c{clip-path:url(#a);}.d{fill:#19bbbd;}.e{clip-path:url(#b);}.f,.l{opacity:0.2;}.g{fill:#f96266;}.h{opacity:0.5;}.i{fill:#1a2e35;}.j{fill:#757575;}.k{clip-path:url(#c);}.m{fill:#fdc35f;}.n{clip-path:url(#d);}.o{clip-path:url(#e);}</style><clipPath id="a"><circle class="a" cx="69.434" cy="69.434" r="69.434" transform="translate(179.994 1540.925)"/></clipPath><clipPath id="b"><path class="b" d="M219.512,1645.453c-18.369-8.182-18.124-19.277-18.124-19.277l20.939-1.723,8.356-3.786h37.951l28.293,8.125c-5.388,17.073-25.1,22.638-44.1,22.638C239.748,1651.429,227,1648.789,219.512,1645.453Zm2.868-20.794-20.777,1.71a14.4,14.4,0,0,0,2.157,6.3c2.027,3.429,6.419,8.4,15.838,12.591,6.85,3.051,17.6,5.283,28.057,5.823,16.063.831,26.546-2.2,32.512-4.883,8.467-3.813,14.016-9.621,16.493-17.267l-28.055-8.057H230.728Z"/></clipPath><clipPath id="c"><path class="b" d="M228.172,1631.791a1.254,1.254,0,0,1-1.216-.95,1.232,1.232,0,0,1-.036-.294V1628.7h46.33v1.848a1.187,1.187,0,0,1-.036.294,1.253,1.253,0,0,1-1.216.95Zm-1.037-1.245a.954.954,0,0,0,.031.242,1.031,1.031,0,0,0,1.006.787H272a1.033,1.033,0,0,0,1.007-.787,1.008,1.008,0,0,0,.03-.243v-1.633h-45.9Z"/></clipPath><clipPath id="d"><path class="b" d="M268.984,1658.428c-1.089-.247-5.053-.391-8.008-1.45-1.595-.566-2.894-1.4-3.291-2.654-1.143-3.586,8.947-10.409,8.947-10.409s6.438,1.24,7.773,1.559a25.373,25.373,0,0,0,4.718.655c.868.037,1.656.032,2.391.026a11.655,11.655,0,0,1,4.985.66c2.557,1.1,2.593,5.061-.981,8.791-2.167,2.26-7.8,3.2-12.257,3.205A20.369,20.369,0,0,1,268.984,1658.428Zm-7.113-10.491c-3.046,2.757-4.421,4.943-3.983,6.323.33,1.042,1.393,1.888,3.159,2.516a29.651,29.651,0,0,0,6.363,1.223c.721.081,1.291.145,1.621.22,3.845.876,13.383.311,16.331-2.76,2.048-2.138,3.045-4.526,2.667-6.39a2.719,2.719,0,0,0-1.615-2.055,11.383,11.383,0,0,0-4.88-.643c-.756.006-1.539.013-2.421-.026a25.457,25.457,0,0,1-4.757-.661c-1.233-.294-6.9-1.39-7.678-1.539A50.444,50.444,0,0,0,261.871,1647.937Z"/></clipPath><clipPath id="e"><path class="b" d="M252.708,1653.344c-.921.108-4.741-.163-4.741-.163s-30.223-11.306-33.833-11.366c-2.263-.036-8.79-2.021-12.022-7.172-1.919-3.056-2.671-7.232-.685-12.774,3.272-9.14,19.4-2.407,35.222,6.33,5.253,2.906,9.916,5.235,13.684,7.01,6.263,2.948,10.072,4.368,10.072,4.368l2.093-.746,4.9,3.436c-.963,6.5-10.993,13.574-10.993,13.574S253.623,1653.235,252.708,1653.344Zm3.711,2.225c1.2-.874,9.767-7.312,10.748-13.2l-4.7-3.3-2.064.735-.072-.027c-.039-.013-3.888-1.457-10.088-4.375-4.536-2.138-9.144-4.5-13.694-7.016-15.893-8.777-26.16-12.084-31.385-10.111a5.836,5.836,0,0,0-3.538,3.667c-1.746,4.873-1.522,9.108.666,12.592,3.288,5.242,9.928,7.042,11.847,7.073,3.58.059,32.279,10.772,33.874,11.369.362.024,3.824.261,4.672.161a.67.67,0,0,1,.075,0C253.694,1653.13,255.757,1654.959,256.419,1655.569Z"/></clipPath></defs><g transform="translate(-179.994 -1534.222)"><circle class="a" cx="69.434" cy="69.434" r="69.434" transform="translate(179.994 1540.925)"/><g class="c"><path class="d" d="M201.388,1626.176s-.245,11.095,18.124,19.277,68.317,12.171,77.415-16.662l-28.293-8.125H230.683l-8.356,3.786Z"/><path d="M252.966,1651.644q-2.558,0-5.333-.14c-10.663-.551-21.208-2.742-28.207-5.859-9.54-4.249-13.992-9.3-16.046-12.792a13.807,13.807,0,0,1-2.2-6.682l0-.19,21.092-1.736,8.364-3.79,38.056.008,28.5,8.185-.065.206c-2.482,7.867-8.13,13.832-16.788,17.73C275.019,1648.979,266.138,1651.644,252.966,1651.644ZM201.6,1626.369a14.39,14.39,0,0,0,2.157,6.3c2.027,3.429,6.419,8.4,15.838,12.591,6.85,3.051,17.6,5.283,28.057,5.823,16.063.831,26.545-2.2,32.511-4.883,8.468-3.813,14.016-9.621,16.494-17.267l-28.055-8.057H230.728l-8.348,3.783Z"/><g class="e"><path class="f" d="M200.92,1626.38s-.245,11.1,18.124,19.277c19.464,8.669,68.471,11.685,77.415-16.662l-28.292-8.125H230.215l-8.356,3.786Z"/></g><path class="g" d="M222.967,1577.463c-3.333,2.976-14.889,36.617-13.4,40.267s21.084,7.021,21.084,7.021-1.936-37.965-2.035-38.6S222.967,1577.463,222.967,1577.463Z"/><path d="M230.879,1625l-.259-.044c-.049-.009-4.964-.859-10-2.146-6.816-1.741-10.6-3.425-11.245-5-.37-.9-.038-3.44.984-7.544.885-3.552,2.27-8.165,3.9-12.99,2.868-8.495,6.772-18.368,8.567-19.97l.178-.159.135.2c.932,1.351,5.587,8.125,5.688,8.775s1.959,37.071,2.038,38.622Zm-7.942-47.212c-1.571,1.752-4.919,9.671-8.278,19.62-3.563,10.552-5.529,18.685-4.893,20.239.408,1,2.64,2.629,10.957,4.755,4.36,1.114,8.63,1.9,9.709,2.093-.672-13.172-1.941-37.772-2.02-38.315C228.311,1585.713,225.061,1580.876,222.937,1577.791Z"/><path class="g" d="M274.889,1577.463c3.333,2.976,14.89,36.617,13.4,40.267s-21.084,7.021-21.084,7.021,1.936-37.965,2.035-38.6S274.889,1577.463,274.889,1577.463Z"/><path d="M266.977,1625l.013-.262c.08-1.551,1.938-37.984,2.038-38.622s4.756-7.424,5.688-8.775l.136-.2.177.159c1.8,1.6,5.7,11.475,8.567,19.97,1.629,4.825,3.014,9.438,3.9,12.99,1.022,4.1,1.354,6.642.985,7.544-.647,1.578-4.43,3.262-11.245,5-5.035,1.287-9.95,2.137-10,2.146Zm7.942-47.212c-2.124,3.085-5.373,7.922-5.475,8.4-.079.54-1.348,25.14-2.02,38.312,1.079-.193,5.349-.979,9.709-2.093,8.318-2.126,10.549-3.759,10.957-4.755.636-1.554-1.33-9.687-4.893-20.239C279.839,1587.462,276.49,1579.543,274.919,1577.791Z"/><path class="g" d="M222.967,1577.463s7.688-8.688,25.877-9.2c14.614-.414,24.617,6.824,26.045,9.2s-6.5,34.118-6.5,34.118l4.436,17.085s-23.8,7.934-45.067,0l2.857-18.037S223.125,1581.906,222.967,1577.463Z"/><path d="M248.968,1632.394a61.276,61.276,0,0,1-21.282-3.531l-.162-.06.027-.17,2.85-17.994c-.437-1.675-7.489-28.8-7.645-33.168l0-.084.056-.063a23.366,23.366,0,0,1,6.177-4.455,44.65,44.65,0,0,1,19.852-4.82c15.228-.431,24.977,7.213,26.232,9.306,1.441,2.4-5.989,32.324-6.463,34.225l4.473,17.224-.187.062a80.53,80.53,0,0,1-14.6,2.985A82.02,82.02,0,0,1,248.968,1632.394Zm-20.974-3.865c10.9,4.021,22.447,3.8,30.239,2.9a81.765,81.765,0,0,0,14.34-2.907l-4.4-16.944.013-.052c2.2-8.8,7.658-32.067,6.523-33.959-.615-1.024-3.326-3.441-7.985-5.566a40.424,40.424,0,0,0-17.874-3.535,44.257,44.257,0,0,0-19.645,4.759,24.2,24.2,0,0,0-6.024,4.313c.246,4.643,7.564,32.748,7.639,33.034l.011.042-.007.044Z"/><g class="h"><path d="M248.125,1577.554a8.492,8.492,0,0,1-2.473-.361.215.215,0,0,1,.124-.412c6.481,1.96,12.989-5.1,13.054-5.175a.215.215,0,1,1,.319.289C259.09,1571.96,253.937,1577.554,248.125,1577.554Z"/><path d="M258.146,1585.968h-.014a37.676,37.676,0,0,1-4.692-.607.215.215,0,1,1,.082-.423,37.361,37.361,0,0,0,4.638.6.215.215,0,0,1-.014.43Z"/><path d="M251.443,1584.914a.193.193,0,0,1-.053-.007,40.433,40.433,0,0,1-16.95-8.736.215.215,0,1,1,.29-.318,40,40,0,0,0,16.765,8.637.215.215,0,0,1-.052.424Z"/><path d="M268.423,1592.149h-.011a.214.214,0,0,1-.2-.225,20.837,20.837,0,0,1,2.453-8.486.216.216,0,1,1,.383.2,20.405,20.405,0,0,0-2.406,8.309A.216.216,0,0,1,268.423,1592.149Z"/><path d="M271.977,1581.779a.213.213,0,0,1-.114-.032.216.216,0,0,1-.069-.3,23.537,23.537,0,0,1,1.939-2.7.215.215,0,0,1,.329.278,22.863,22.863,0,0,0-1.9,2.648A.215.215,0,0,1,271.977,1581.779Z"/><path d="M271.636,1601.72a.214.214,0,0,1-.209-.167,35.807,35.807,0,0,0-2.837-7.564.217.217,0,0,1,0-.211c.114-.192,2.808-4.717,5.812-6.039a.216.216,0,1,1,.173.4c-2.636,1.16-5.133,5.08-5.552,5.761a36.389,36.389,0,0,1,2.819,7.56.216.216,0,0,1-.16.259A.218.218,0,0,1,271.636,1601.72Z"/><path d="M269.97,1612.907a.215.215,0,0,1-.035-.428,8.734,8.734,0,0,0,4.4-2.246c1.087-1.162,3.366-1.442,5.145-1.2a3.625,3.625,0,0,1,2.7,1.249.215.215,0,1,1-.381.2,3.387,3.387,0,0,0-2.378-1.022c-1.668-.225-3.79.019-4.772,1.069A9.017,9.017,0,0,1,270,1612.9.2.2,0,0,1,269.97,1612.907Z"/><path d="M276.277,1608.369a.215.215,0,0,1-.18-.333c.019-.029,1.937-2.858,5.987-.894a.215.215,0,0,1-.187.388,4.686,4.686,0,0,0-4.144-.305,3.375,3.375,0,0,0-1.295,1.047A.217.217,0,0,1,276.277,1608.369Z"/><path d="M228.819,1589.691a.215.215,0,0,1-.215-.2c-.371-6.929-4.171-9.554-4.209-9.58a.215.215,0,0,1,.239-.358c.164.109,4.016,2.756,4.4,9.915a.217.217,0,0,1-.2.227Z"/><path class="a" d="M224.388,1605.885a.172.172,0,0,1-.04,0,.215.215,0,0,1-.172-.251,52.84,52.84,0,0,1,2.488-8.186l.318-.875a.215.215,0,1,1,.4.146l-.318.877a52.367,52.367,0,0,0-2.47,8.117A.216.216,0,0,1,224.388,1605.885Z"/><path d="M228.02,1594.589a.2.2,0,0,1-.075-.014.214.214,0,0,1-.126-.277c.06-.162.173-.387.3-.648a4.579,4.579,0,0,0,.616-1.676c-.173-1.045-2.323-2.007-3.436-2.29a.215.215,0,1,1,.106-.417c1.13.287,3.535,1.31,3.755,2.636a4.1,4.1,0,0,1-.656,1.939c-.125.25-.232.466-.285.607A.216.216,0,0,1,228.02,1594.589Z"/><path d="M223.352,1609.381a.214.214,0,0,1-.163-.074,2.194,2.194,0,0,0-2.078-.58.215.215,0,1,1-.07-.425,2.609,2.609,0,0,1,2.473.723.215.215,0,0,1-.162.356Z"/><path d="M216.771,1610.6a.216.216,0,0,1-.12-.395,15.318,15.318,0,0,1,2.266-1.243.215.215,0,1,1,.174.393,14.911,14.911,0,0,0-2.2,1.209A.218.218,0,0,1,216.771,1610.6Z"/><path d="M236.524,1613.98a.231.231,0,0,1-.063-.01c-.085-.026-8.48-2.626-11.992-3.379a3.8,3.8,0,0,0-2.934.249,1.467,1.467,0,0,0-.624.926.215.215,0,0,1-.427-.052,1.9,1.9,0,0,1,.792-1.218,4.121,4.121,0,0,1,3.284-.326c3.53.757,11.944,3.362,12.028,3.389a.215.215,0,0,1,.142.269A.217.217,0,0,1,236.524,1613.98Z"/></g><path class="a" d="M258.193,1571.091s-4.091,4.026-9.021,4.026-9.679-4.663-9.679-4.663a6.749,6.749,0,0,0,3.238-3.815,4.168,4.168,0,0,0,.1-.47,15.18,15.18,0,0,0-.542-4.887c-.676-2.949-1.68-5.9-1.68-5.9h16s-.757,3.69-1.257,7.092c-.09.624-.176,1.235-.241,1.817-.073.624-.134,1.205-.164,1.722C254.727,1569.614,258.193,1571.091,258.193,1571.091Z"/><path class="i" d="M249.172,1575.332a13.276,13.276,0,0,1-6.8-2.366,20.845,20.845,0,0,1-3.025-2.359.213.213,0,0,1-.062-.187.216.216,0,0,1,.117-.159,6.575,6.575,0,0,0,3.126-3.678,4.1,4.1,0,0,0,.1-.448,14.5,14.5,0,0,0-.54-4.805c-.666-2.9-1.663-5.852-1.673-5.882a.214.214,0,0,1,.2-.284h16a.215.215,0,0,1,.211.258c-.007.037-.762,3.724-1.255,7.08-.081.559-.173,1.206-.24,1.81-.086.735-.136,1.262-.163,1.711-.208,3.413,3.083,4.856,3.116,4.87a.215.215,0,0,1,.067.351C258.174,1571.411,254.133,1575.332,249.172,1575.332Zm-9.316-4.834c.971.882,5.111,4.4,9.316,4.4,4.146,0,7.735-2.945,8.647-3.759a5.58,5.58,0,0,1-3.088-5.146c.027-.456.078-.991.165-1.734.068-.609.161-1.261.242-1.823.419-2.855,1.027-5.946,1.207-6.846H240.911c.266.813,1.041,3.241,1.59,5.64a14.8,14.8,0,0,1,.545,4.971,4.313,4.313,0,0,1-.108.493A6.752,6.752,0,0,1,239.856,1570.5Z"/><path class="j" d="M273.25,1628.7v1.847a1.208,1.208,0,0,1-.036.295,1.254,1.254,0,0,1-1.216.95H228.172a1.254,1.254,0,0,1-1.216-.95,1.21,1.21,0,0,1-.036-.295V1628.7Z"/><path class="i" d="M272,1632.006H228.172a1.461,1.461,0,0,1-1.425-1.114,1.431,1.431,0,0,1-.042-.346V1628.7a.215.215,0,0,1,.215-.216h46.33a.215.215,0,0,1,.215.216v1.847a1.445,1.445,0,0,1-.042.347A1.461,1.461,0,0,1,272,1632.006Zm-44.863-3.092v1.632a.984.984,0,0,0,.03.242,1.032,1.032,0,0,0,1.007.788H272a1.032,1.032,0,0,0,1.007-.787,1,1,0,0,0,.03-.243v-1.632Z"/><g class="k"><path class="f" d="M273.25,1628.7v1.847a1.208,1.208,0,0,1-.036.295H226.956a1.21,1.21,0,0,1-.036-.295V1628.7Z"/></g><path class="j" d="M272.816,1629.929H227.352a.906.906,0,0,1-.921-.711l-3.949-31.846a.847.847,0,0,1,.859-.976h53.486a.846.846,0,0,1,.859.976l-3.949,31.846A.905.905,0,0,1,272.816,1629.929Z"/><path class="i" d="M272.816,1630.144H227.352a1.114,1.114,0,0,1-1.135-.9l-3.948-31.846a1.062,1.062,0,0,1,1.072-1.218h53.486a1.062,1.062,0,0,1,1.073,1.218l-3.949,31.846A1.113,1.113,0,0,1,272.816,1630.144Zm-49.475-33.532a.63.63,0,0,0-.645.734l3.949,31.846a.7.7,0,0,0,.707.522h45.464a.7.7,0,0,0,.708-.523l3.949-31.845a.655.655,0,0,0-.151-.522.648.648,0,0,0-.495-.212Z"/><path class="l" d="M227.534,1629.259l-3.892-30.541a.634.634,0,0,1,.618-.7h51.649a.633.633,0,0,1,.617.7l-3.892,30.541"/><path class="i" d="M272.634,1629.474l-.027,0a.214.214,0,0,1-.186-.24l3.892-30.542a.4.4,0,0,0-.1-.31.408.408,0,0,0-.3-.142H224.26a.407.407,0,0,0-.3.142.394.394,0,0,0-.1.31l3.892,30.542a.215.215,0,0,1-.187.24.212.212,0,0,1-.241-.186l-3.892-30.541a.849.849,0,0,1,.832-.938h51.649a.849.849,0,0,1,.831.938l-3.892,30.541A.216.216,0,0,1,272.634,1629.474Z"/><path class="m" d="M250.6,1615.931h-4.672l5.427-5.682-2.52,4.509Z"/><path d="M251.3,1616.142h-5.862l6.911-7.236-3.233,5.785Zm-4.878-.421H249.9l-1.347-.895,1.807-3.233Z"/><path class="m" d="M248.771,1618.913l5.76-5.562h-4.561l1.635,1.208Z"/><path d="M247.582,1620.353l3.738-5.743-1.99-1.47h5.722Zm3.027-6.792,1.28.946-1.93,2.965,4.051-3.911Z"/><path class="d" d="M287.887,1648.063l1.376,1.566s1.283,2.937-2.277,6.532-12.822,4.321-16.423,3.681l-2.269.306-7.72-1.657s-3.909-1.913-2.312-5.268S287.887,1648.063,287.887,1648.063Z"/><path d="M268.285,1660.362l-7.8-1.682c-.041-.02-4.077-2.045-2.411-5.547,1.631-3.427,28.653-5.206,29.8-5.28l.1-.007,1.479,1.7c.054.126,1.3,3.11-2.321,6.765-3.486,3.521-12.688,4.423-16.576,3.746Zm-7.639-2.071,7.656,1.644,2.265-.306.033.006c3.792.674,12.837-.189,16.236-3.622a7.606,7.606,0,0,0,2.411-4.46,4.1,4.1,0,0,0-.167-1.813l-1.283-1.46c-7.838.51-28.086,2.385-29.345,5.034a3.142,3.142,0,0,0,.519,3.654A6.108,6.108,0,0,0,260.646,1658.291Z"/><path class="j" d="M285.518,1655.606c-2.984,3.111-12.545,3.73-16.534,2.822-1.089-.247-5.054-.391-8.008-1.45-1.6-.566-2.9-1.4-3.292-2.654-1.143-3.586,8.947-10.409,8.947-10.409s6.438,1.24,7.774,1.559a25.387,25.387,0,0,0,4.717.655c3.063.133,5.133-.276,7.377.686C289.056,1647.916,289.092,1651.875,285.518,1655.606Z"/><path class="i" d="M273.246,1659.028a20.393,20.393,0,0,1-4.31-.39c-.307-.07-.866-.132-1.573-.212a30.023,30.023,0,0,1-6.46-1.245c-1.9-.674-3.052-1.613-3.424-2.792-.5-1.574.879-3.853,4.106-6.774a50.74,50.74,0,0,1,4.926-3.878.213.213,0,0,1,.161-.033c.064.012,6.458,1.244,7.783,1.56a25.027,25.027,0,0,0,4.677.65c.869.038,1.647.031,2.4.026a11.875,11.875,0,0,1,5.053.677,3.171,3.171,0,0,1,1.868,2.364c.406,2-.633,4.534-2.778,6.774h0c-1.84,1.918-5.813,2.692-8.018,2.983A34.438,34.438,0,0,1,273.246,1659.028Zm-6.567-14.884a50.51,50.51,0,0,0-4.808,3.793c-3.045,2.757-4.421,4.943-3.982,6.322.33,1.043,1.393,1.889,3.159,2.516a29.653,29.653,0,0,0,6.363,1.223c.721.081,1.29.145,1.621.22,3.844.875,13.383.311,16.331-2.761h0c2.048-2.138,3.045-4.526,2.667-6.39a2.716,2.716,0,0,0-1.616-2.054,11.382,11.382,0,0,0-4.88-.643c-.756.006-1.539.013-2.421-.026a25.444,25.444,0,0,1-4.756-.661C273.124,1645.389,267.457,1644.294,266.679,1644.144Zm18.839,11.462h0Z"/><g class="n"><path class="f" d="M279.122,1646.129c-2.3,3.755-8.038,10.963-18.146,10.849-1.6-.566-2.9-1.4-3.292-2.654-1.143-3.586,8.947-10.409,8.947-10.409s6.438,1.24,7.774,1.559A25.387,25.387,0,0,0,279.122,1646.129Z"/></g><path class="i" d="M278.654,1652.634a.216.216,0,0,1-.213-.184,1.51,1.51,0,0,0-1.852-1.146c-1.877.2-11.443-2.682-11.849-2.8a.216.216,0,0,1,.124-.413c.1.03,9.883,2.974,11.68,2.788a1.942,1.942,0,0,1,2.323,1.511.216.216,0,0,1-.181.245A.175.175,0,0,1,278.654,1652.634Z"/><path class="i" d="M279.614,1647.765a3.918,3.918,0,0,1-1.1-.157c-1.292-.379-12.059-2.686-12.168-2.709a.215.215,0,0,1,.09-.421c.444.095,10.892,2.333,12.2,2.717a3.555,3.555,0,0,0,2.258-.1.215.215,0,1,1,.177.393A3.829,3.829,0,0,1,279.614,1647.765Z"/><path class="i" d="M264.97,1650.061a.215.215,0,0,1-.1-.407,5.948,5.948,0,0,0,3.318-4.788.216.216,0,0,1,.215-.21h.005a.215.215,0,0,1,.21.22,6.38,6.38,0,0,1-3.551,5.161A.218.218,0,0,1,264.97,1650.061Z"/><path class="i" d="M267.561,1650.713a.216.216,0,0,1-.13-.388,7.418,7.418,0,0,0,2.793-5.093.219.219,0,0,1,.226-.205.215.215,0,0,1,.2.226,7.721,7.721,0,0,1-2.964,5.417A.218.218,0,0,1,267.561,1650.713Z"/><path class="i" d="M269.81,1651.717a.215.215,0,0,1-.123-.392,6.072,6.072,0,0,0,2.573-3.491,4.678,4.678,0,0,0,.131-1.81.216.216,0,1,1,.424-.078,6.054,6.054,0,0,1-2.883,5.733A.212.212,0,0,1,269.81,1651.717Z"/><path class="i" d="M272.137,1652.514a.216.216,0,0,1-.115-.4c3.109-1.957,2.656-5.811,2.651-5.85a.215.215,0,1,1,.427-.054c.005.041.491,4.166-2.849,6.268A.21.21,0,0,1,272.137,1652.514Z"/><path class="i" d="M274.488,1652.775a.213.213,0,0,1-.18-.1.215.215,0,0,1,.063-.3c2.624-1.706,2.74-5.755,2.741-5.8a.214.214,0,0,1,.215-.211h0a.215.215,0,0,1,.211.22,10.174,10.174,0,0,1-.395,2.369,6.5,6.5,0,0,1-2.541,3.778A.213.213,0,0,1,274.488,1652.775Z"/><path class="i" d="M277.01,1653.056a.212.212,0,0,1-.173-.088.215.215,0,0,1,.046-.3,5.773,5.773,0,0,0,2.149-5.5.215.215,0,0,1,.422-.086,6.228,6.228,0,0,1-2.316,5.934A.218.218,0,0,1,277.01,1653.056Z"/><path class="d" d="M267.4,1642.267c-.963,6.5-10.993,13.574-10.993,13.574s-2.78-2.606-3.7-2.5-4.741-.163-4.741-.163-30.223-11.306-33.833-11.366c-2.262-.036-8.79-2.021-12.022-7.172-1.919-3.056-2.671-7.232-.685-12.774,3.273-9.139,19.4-2.406,35.222,6.33,5.253,2.906,9.916,5.235,13.683,7.01,6.263,2.948,10.072,4.368,10.072,4.368l2.094-.746Z"/><path d="M256.384,1656.111l-.125-.117c-1.047-.981-2.936-2.511-3.526-2.441-.93.109-4.624-.151-4.781-.162l-.059-.013c-.3-.113-30.229-11.293-33.762-11.352-2.6-.042-9.067-2.282-12.2-7.271-2.259-3.6-2.5-7.957-.706-12.957a6.239,6.239,0,0,1,3.786-3.92c7.124-2.69,21.525,4.5,31.737,10.137,4.543,2.513,9.142,4.87,13.671,7,5.721,2.694,9.432,4.125,9.984,4.335l2.124-.757,5.093,3.573-.019.128c-.406,2.744-2.4,5.888-5.918,9.346a47.053,47.053,0,0,1-5.162,4.37Zm-3.625-2.981c.935,0,3,1.829,3.66,2.439,1.2-.874,9.767-7.312,10.748-13.2l-4.7-3.3-2.064.735-.072-.027c-.038-.014-3.888-1.457-10.088-4.375-4.536-2.138-9.144-4.5-13.694-7.016-15.893-8.777-26.16-12.085-31.385-10.111a5.836,5.836,0,0,0-3.538,3.668c-1.746,4.872-1.522,9.108.666,12.591,3.288,5.242,9.928,7.043,11.847,7.074,3.58.059,32.278,10.772,33.874,11.368.362.025,3.824.261,4.672.161C252.708,1653.132,252.733,1653.13,252.759,1653.13Z"/><g class="o"><path class="f" d="M267.4,1642.267c-.963,6.5-10.993,13.574-10.993,13.574s-2.78-2.606-3.7-2.5-4.741-.163-4.741-.163-30.223-11.306-33.833-11.366c-2.262-.036-8.79-2.021-12.022-7.172,3.8.283,10.259.915,13.34,2.07,0,0-3.448.854-2.5,1.685s14.777,2.455,19.645,1.227c4.4-1.107,13.183-4.1,17.732-4.416,6.263,2.948,10.072,4.368,10.072,4.368l2.094-.746Z"/></g><path class="i" d="M240.643,1636.195a.216.216,0,0,1-.036-.428c1.148-.2,2.185-.42,3.169-.678a.215.215,0,1,1,.11.416c-1,.262-2.046.486-3.206.687A.236.236,0,0,1,240.643,1636.195Z"/><path class="i" d="M225.151,1637.339c-4.036,0-8.374-.191-13.135-.572a.215.215,0,1,1,.034-.429,124.485,124.485,0,0,0,26.441-.25.215.215,0,1,1,.057.427A101.742,101.742,0,0,1,225.151,1637.339Z"/><path class="d" d="M211.4,1648.665l-1.376,1.565s-1.283,2.937,2.277,6.533,12.822,4.321,16.423,3.68l2.27.307,7.719-1.658s3.909-1.913,2.313-5.267S211.4,1648.665,211.4,1648.665Z"/><path d="M231,1660.963l-2.274-.307c-3.887.677-13.09-.225-16.576-3.745-3.62-3.655-2.375-6.64-2.32-6.765l.034-.055,1.444-1.643.1.007c1.149.074,28.171,1.853,29.8,5.279,1.666,3.5-2.37,5.527-2.411,5.548l-.048.016Zm-2.282-.733,2.265.306,7.657-1.644a6.1,6.1,0,0,0,1.674-1.322,3.144,3.144,0,0,0,.52-3.655c-1.261-2.648-21.508-4.524-29.346-5.034l-1.283,1.461a4.085,4.085,0,0,0-.167,1.812,7.61,7.61,0,0,0,2.411,4.461c3.4,3.433,12.444,4.3,16.236,3.621Z"/><path class="j" d="M232.658,1644.518s-6.436,1.239-7.773,1.555c-5.983,1.413-8.866-.041-12.093,1.345-2.557,1.1-2.6,5.062.978,8.788,2.984,3.113,12.545,3.733,16.535,2.826,1.674-.381,10.163-.527,11.3-4.109S232.658,1644.518,232.658,1644.518Z"/><path class="i" d="M226.048,1659.631a34.335,34.335,0,0,1-4.416-.291c-2.205-.291-6.178-1.066-8.018-2.985-2.145-2.237-3.182-4.768-2.776-6.771a3.168,3.168,0,0,1,1.869-2.363,11.871,11.871,0,0,1,5.054-.681,27.106,27.106,0,0,0,7.075-.677c1.326-.313,7.717-1.544,7.782-1.556a.215.215,0,0,1,.161.033,50.968,50.968,0,0,1,4.925,3.878c3.226,2.92,4.608,5.2,4.108,6.77-.964,3.032-6.765,3.688-9.881,4.04-.71.08-1.271.144-1.578.214A20.42,20.42,0,0,1,226.048,1659.631Zm-9.033-12.664a9.9,9.9,0,0,0-4.138.649,2.712,2.712,0,0,0-1.616,2.054c-.379,1.864.617,4.252,2.664,6.387,2.947,3.073,12.488,3.639,16.333,2.765.33-.075.9-.14,1.625-.222,3.019-.341,8.639-.976,9.519-3.742.438-1.378-.94-3.562-3.984-6.318a50.555,50.555,0,0,0-4.807-3.793c-.778.15-6.444,1.244-7.676,1.535a27.847,27.847,0,0,1-7.177.689C217.5,1646.969,217.256,1646.967,217.015,1646.967Z"/><path class="i" d="M220.635,1653.235l-.033,0a.215.215,0,0,1-.18-.244,1.942,1.942,0,0,1,2.323-1.511c1.8.186,11.581-2.758,11.68-2.788a.215.215,0,0,1,.124.412c-.406.123-9.968,3-11.848,2.8a1.511,1.511,0,0,0-1.853,1.148A.216.216,0,0,1,220.635,1653.235Z"/><path class="i" d="M219.675,1648.366a3.808,3.808,0,0,1-1.455-.274.215.215,0,0,1,.177-.392,3.593,3.593,0,0,0,2.258.1c1.307-.383,11.755-2.622,12.2-2.717a.215.215,0,0,1,.09.421c-.109.024-10.876,2.33-12.168,2.709A3.882,3.882,0,0,1,219.675,1648.366Z"/><path class="i" d="M234.319,1650.663a.214.214,0,0,1-.1-.024,6.381,6.381,0,0,1-3.552-5.162.214.214,0,0,1,.21-.219h0a.216.216,0,0,1,.215.21,5.948,5.948,0,0,0,3.318,4.788.216.216,0,0,1-.1.407Z"/><path class="i" d="M231.729,1651.314a.218.218,0,0,1-.13-.043,7.719,7.719,0,0,1-2.964-5.417.215.215,0,0,1,.43-.021,7.418,7.418,0,0,0,2.793,5.094.215.215,0,0,1,.043.3A.213.213,0,0,1,231.729,1651.314Z"/><path class="i" d="M229.479,1652.319a.212.212,0,0,1-.122-.038,6.517,6.517,0,0,1-2.751-3.76,5.017,5.017,0,0,1-.132-1.973.215.215,0,0,1,.424.077,4.661,4.661,0,0,0,.131,1.811,6.071,6.071,0,0,0,2.573,3.491.215.215,0,0,1-.123.392Z"/><path class="i" d="M227.153,1653.115a.213.213,0,0,1-.115-.033c-3.34-2.1-2.854-6.227-2.849-6.269a.215.215,0,1,1,.427.055c-.005.039-.452,3.9,2.651,5.85a.215.215,0,0,1-.114.4Z"/><path class="i" d="M224.8,1653.377a.209.209,0,0,1-.117-.035,6.507,6.507,0,0,1-2.542-3.778,10.169,10.169,0,0,1-.4-2.37.215.215,0,0,1,.211-.219h0a.214.214,0,0,1,.215.21c0,.041.117,4.09,2.741,5.8a.215.215,0,0,1-.117.4Z"/><path class="i" d="M222.279,1653.658a.212.212,0,0,1-.127-.042,6.227,6.227,0,0,1-2.317-5.934.215.215,0,0,1,.422.085,5.79,5.79,0,0,0,2.149,5.5.216.216,0,0,1,.047.3A.218.218,0,0,1,222.279,1653.658Z"/><path class="d" d="M297.233,1621.807c-3.293-9.135-19.41-2.372-35.209,6.4a197.636,197.636,0,0,1-23.735,11.422l-2.092-.741-4.893,3.448c.972,6.5,11.021,13.55,11.021,13.55s2.771-2.611,3.689-2.505,4.736-.171,4.736-.171,30.206-11.365,33.813-11.427S302.6,1636.684,297.233,1621.807Z"/><path d="M242.345,1656.154l-.141-.1a47.183,47.183,0,0,1-5.172-4.359c-3.529-3.45-5.526-6.59-5.937-9.333l-.019-.128,5.088-3.586,2.122.752a201.857,201.857,0,0,0,23.636-11.382c10.2-5.66,24.578-12.876,31.713-10.2a6.244,6.244,0,0,1,3.8,3.915c1.884,5.228,1.548,9.752-1,13.447a17.237,17.237,0,0,1-11.863,6.807c-3.53.061-33.441,11.3-33.743,11.414l-.059.013c-.157.011-3.847.278-4.775.17-.605-.07-2.477,1.466-3.521,2.449Zm-10.813-13.725c.99,5.891,9.575,12.311,10.776,13.182.678-.628,2.826-2.548,3.731-2.442.847.1,4.3-.144,4.665-.17,1.6-.6,30.277-11.368,33.855-11.43a16.96,16.96,0,0,0,11.525-6.625c2.467-3.577,2.786-7.973.951-13.065h0a5.84,5.84,0,0,0-3.548-3.664c-5.232-1.963-15.49,1.364-31.36,10.173a200.044,200.044,0,0,1-23.764,11.435l-.072.027-2.062-.73Z"/><path class="i" d="M256.028,1645.6h0c-.89-.006-1.777-.04-2.64-.1a.215.215,0,0,1,.031-.429c.853.06,1.732.094,2.611.1a.215.215,0,0,1,0,.431Z"/><path class="i" d="M251.013,1645.248l-.03,0c-4.033-.554-9.537-1.952-12.851-5.473a.215.215,0,0,1,.314-.295c3.227,3.429,8.631,4.8,12.6,5.341a.216.216,0,0,1-.029.429Z"/><path class="i" d="M286.515,1635.414a68.824,68.824,0,0,1-12.715-1.5.215.215,0,1,1,.081-.423c6.024,1.149,12.971,2.253,19.178.8a.215.215,0,0,1,.1.419A29.208,29.208,0,0,1,286.515,1635.414Z"/><path class="i" d="M271.729,1633.489a.226.226,0,0,1-.045-.005c-1.009-.215-1.847-.409-2.638-.609a.216.216,0,0,1-.156-.262.218.218,0,0,1,.262-.156c.785.2,1.619.392,2.621.606a.215.215,0,0,1-.044.426Z"/><path class="i" d="M255.351,1562.471c-.09.624-.176,1.235-.241,1.817-1.61,1.649-4.284,3.918-6.894,4a11.24,11.24,0,0,1-5.485-1.645,4.168,4.168,0,0,0,.1-.47,15.18,15.18,0,0,0-.542-4.887Z"/><path class="a" d="M259.534,1552.029s1.175-1.105,1.753-.742a2.213,2.213,0,0,1,.944,2.332c-.315.939-1.679,2.574-1.784,3.528s-.813,2.034-1.587,1.4S259.534,1552.029,259.534,1552.029Z"/><path class="i" d="M259.326,1558.954a.939.939,0,0,1-.6-.237c-.817-.665.253-5.327.6-6.739a.218.218,0,0,1,.061-.106c.133-.125,1.318-1.206,2.015-.767a2.422,2.422,0,0,1,1.034,2.582,8.538,8.538,0,0,1-.813,1.513,6.38,6.38,0,0,0-.961,1.97,2.159,2.159,0,0,1-1.013,1.719A.838.838,0,0,1,259.326,1558.954Zm.4-6.811c-.673,2.755-1.142,5.906-.732,6.24a.459.459,0,0,0,.488.108,1.759,1.759,0,0,0,.749-1.368,6.409,6.409,0,0,1,1.022-2.149,8.4,8.4,0,0,0,.772-1.423,1.993,1.993,0,0,0-.855-2.081C260.882,1551.287,260.171,1551.742,259.728,1552.143Z"/><path class="a" d="M238.593,1552.029s-1.176-1.105-1.753-.742a2.213,2.213,0,0,0-.944,2.332c.314.939,1.679,2.574,1.784,3.528s.812,2.034,1.587,1.4S238.593,1552.029,238.593,1552.029Z"/><path class="i" d="M238.8,1558.954a.837.837,0,0,1-.321-.065,2.154,2.154,0,0,1-1.013-1.719,6.4,6.4,0,0,0-.961-1.97,8.551,8.551,0,0,1-.814-1.513,2.423,2.423,0,0,1,1.034-2.582c.7-.439,1.882.642,2.015.767a.213.213,0,0,1,.062.106c.347,1.412,1.417,6.074.6,6.739A.941.941,0,0,1,238.8,1558.954Zm-1.681-7.526a.3.3,0,0,0-.164.042,1.991,1.991,0,0,0-.855,2.081,8.332,8.332,0,0,0,.772,1.423,6.428,6.428,0,0,1,1.022,2.149,1.756,1.756,0,0,0,.748,1.368.46.46,0,0,0,.489-.108c.41-.334-.059-3.485-.732-6.24A2.593,2.593,0,0,0,237.119,1551.428Z"/><path class="a" d="M248.807,1536.924c15.284,0,11.149,18.481,8.337,25.016-.988,2.3-5.863,5.512-8.337,5.512-2.3,0-6.905-3.03-7.839-5.186C238.123,1555.7,234.238,1536.924,248.807,1536.924Z"/><path class="i" d="M248.807,1567.668c-2.412,0-7.068-3.081-8.036-5.316a36.892,36.892,0,0,1-2.565-10.259c-.333-3.313-.273-7.957,1.9-11.264,1.8-2.734,4.723-4.121,8.7-4.121,4.276,0,7.389,1.436,9.253,4.267,4.137,6.285.884,17.326-.719,21.051C256.32,1564.4,251.375,1567.668,248.807,1567.668Zm0-30.529c-3.825,0-6.632,1.321-8.343,3.927-3.844,5.854-1.187,16.754.7,21.115.9,2.079,5.4,5.056,7.641,5.056,2.394,0,7.187-3.169,8.139-5.382a36.678,36.678,0,0,0,2.533-9.884c.339-3.161.306-7.593-1.778-10.759C255.922,1538.509,252.929,1537.139,248.807,1537.139Z"/><path class="i" d="M256.608,1553.345a.214.214,0,0,1-.192-.119c-1.134-2.268-4.916-1.133-4.955-1.121a.216.216,0,0,1-.127-.412,8.333,8.333,0,0,1,2.208-.317,3.34,3.34,0,0,1,3.259,1.657.216.216,0,0,1-.1.289A.21.21,0,0,1,256.608,1553.345Z"/><path class="i" d="M254.344,1555.246c0,.47-.238.851-.532.851s-.533-.381-.533-.851.239-.85.533-.85S254.344,1554.777,254.344,1555.246Z"/><path class="i" d="M241.518,1553.345a.209.209,0,0,1-.1-.023.216.216,0,0,1-.1-.289,3.34,3.34,0,0,1,3.259-1.657,8.342,8.342,0,0,1,2.208.317.216.216,0,0,1-.127.412c-.039-.012-3.822-1.147-4.955,1.121A.217.217,0,0,1,241.518,1553.345Z"/><path class="i" d="M243.782,1555.246c0,.47.239.851.533.851s.533-.381.533-.851-.239-.85-.533-.85S243.782,1554.777,243.782,1555.246Z"/><path class="a" d="M247.27,1558.738c-.579.616,1.419,1.629,1.795,1.629s1.9-.8,1.9-1.267"/><path class="i" d="M249.065,1560.582a3.41,3.41,0,0,1-2.057-1.336.573.573,0,0,1,.105-.655.215.215,0,0,1,.314.3.149.149,0,0,0-.024.189,3.257,3.257,0,0,0,1.662,1.076c.352,0,1.681-.781,1.681-1.051a.215.215,0,0,1,.43,0C251.176,1559.735,249.5,1560.582,249.065,1560.582Z"/><path class="i" d="M255.151,1542.129a19.352,19.352,0,0,1-11.778,0s-2.063-.121-2.877.916,0,4.24.217,5.543-1.791,2.207-1.52,5.5l-.271,1.244s-2.226-5.659-1.683-10.218,2.985-6.079,2.985-6.079,1.312-3.938,9-3.909c8.289.032,9.126,4.519,9.126,4.519s5.156,3.9,1,16.108l-.438-1.665a6.831,6.831,0,0,0-1.05-4.632c-.724-1.057.434-4.234.163-5.862S255.151,1542.129,255.151,1542.129Z"/><path class="a" d="M245.744,1561.864a7.784,7.784,0,0,0,3.319.722,8.646,8.646,0,0,0,3.174-.535"/><path class="i" d="M249.063,1562.8a7.941,7.941,0,0,1-3.419-.747.216.216,0,0,1,.2-.382,7.647,7.647,0,0,0,3.219.7,8.537,8.537,0,0,0,3.088-.518.215.215,0,0,1,.172.4A8.774,8.774,0,0,1,249.063,1562.8Z"/><path class="i" d="M254.815,1543.584a15.5,15.5,0,0,0,1.793,4.76c1.3,2.063,2.817,2.271,3.25,4.785,0,0,3.968-6.689.613-12.561,0,0-1.053-6.664-11.408-6.664s-15.141,7.211-11.121,18.284a6,6,0,0,0,3.576-4.875,5.917,5.917,0,0,1-1.064,4.279s5.33-.788,6.712-5.231c0,0-.538,2.953-2.318,4.205,0,0,2.012,2.539,4.323-1.428S252.832,1542.79,254.815,1543.584Z"/><path class="l" d="M243.964,1546.893a2,2,0,0,1-.2-.011.216.216,0,0,1-.192-.237.219.219,0,0,1,.237-.191c1.114.118,1.945-1.086,2.554-1.964l.114-.163a.215.215,0,0,1,.353.246l-.113.163C246.076,1545.653,245.216,1546.893,243.964,1546.893Z"/><path class="l" d="M247.582,1543.338a.21.21,0,0,1-.125-.041.214.214,0,0,1-.049-.3c.5-.693,3.1-4.137,5.3-3.953a2.281,2.281,0,0,1,1.83,1.468.216.216,0,0,1-.387.19,1.859,1.859,0,0,0-1.479-1.229c-1.638-.137-3.859,2.309-4.915,3.775A.213.213,0,0,1,247.582,1543.338Z"/><path class="l" d="M238.269,1542.448a.215.215,0,0,1-.055-.423,3.634,3.634,0,0,0,1.4-.8.215.215,0,0,1,.279.327,4.025,4.025,0,0,1-1.571.885A.207.207,0,0,1,238.269,1542.448Z"/><path class="l" d="M240.949,1540.561a.216.216,0,0,1-.142-.377c2.555-2.248,7.872-6.925,11.585-3.04a.215.215,0,0,1-.311.3c-3.429-3.587-8.347.74-10.99,3.065A.212.212,0,0,1,240.949,1540.561Z"/><path class="l" d="M260.471,1544.829a.215.215,0,0,1-.212-.181,7.375,7.375,0,0,0-1.1-3.044.215.215,0,0,1,.355-.243,7.784,7.784,0,0,1,1.165,3.219.216.216,0,0,1-.178.247A.211.211,0,0,1,260.471,1544.829Z"/><path class="l" d="M258.194,1540.589a.21.21,0,0,1-.112-.032,2.65,2.65,0,0,0-1.465-.4h-.009a.216.216,0,0,1-.009-.431,3.036,3.036,0,0,1,1.707.467.215.215,0,0,1-.112.4Z"/><path class="l" d="M255.539,1538.3a.2.2,0,0,1-.076-.014.215.215,0,0,1-.125-.277c.015-.041.391-1.013,1.182-1.192a1.622,1.622,0,0,1,1.466.574.215.215,0,0,1-.3.31,1.232,1.232,0,0,0-1.072-.464c-.563.126-.872.917-.875.925A.215.215,0,0,1,255.539,1538.3Z"/><path class="a" d="M261.988,1594.02H237.35a2.281,2.281,0,0,1,0-4.563h24.638a2.281,2.281,0,1,1,0,4.563Zm-24.638-4.133a1.851,1.851,0,0,0,0,3.7h24.638a1.851,1.851,0,0,0,0-3.7Z"/><path class="a" d="M246.686,1590.8a.39.39,0,0,0,.432-.314h.264v2.5h-.393v-1.905h-.3Z"/><path class="a" d="M247.823,1591.089a.6.6,0,1,1,1.192,0v1.3a.6.6,0,1,1-1.192,0Zm.393,1.324c0,.178.078.246.2.246s.2-.068.2-.246v-1.349c0-.178-.078-.246-.2-.246s-.2.068-.2.246Z"/><path class="a" d="M249.236,1591.089a.6.6,0,1,1,1.191,0v1.3a.6.6,0,1,1-1.191,0Zm.392,1.324c0,.178.079.246.2.246s.2-.068.2-.246v-1.349c0-.178-.079-.246-.2-.246s-.2.068-.2.246Z"/><path class="a" d="M250.659,1590.871a.379.379,0,1,1,.756,0v.821a.379.379,0,1,1-.756,0Zm.249.839c0,.111.047.157.129.157s.128-.046.128-.157v-.857c0-.11-.05-.156-.128-.156s-.129.046-.129.156Zm1.113-1.22h.232l-.984,2.5h-.232Zm-.124,1.3a.379.379,0,1,1,.756,0v.82a.379.379,0,1,1-.756,0Zm.249.838c0,.111.047.157.129.157s.128-.046.128-.157v-.856c0-.111-.05-.157-.128-.157s-.129.046-.129.157Z"/></g><path class="a" d="M259.249,1552.348s1.176-1.1,1.753-.742a2.215,2.215,0,0,1,.945,2.332c-.315.939-1.68,2.574-1.785,3.528s-.812,2.034-1.587,1.4S259.249,1552.348,259.249,1552.348Z"/><path class="i" d="M259.042,1559.273a.946.946,0,0,1-.6-.237c-.816-.666.254-5.327.6-6.74a.216.216,0,0,1,.062-.1c.132-.125,1.318-1.206,2.015-.767a2.422,2.422,0,0,1,1.034,2.582,8.556,8.556,0,0,1-.814,1.513,6.4,6.4,0,0,0-.961,1.97,2.157,2.157,0,0,1-1.013,1.719A.837.837,0,0,1,259.042,1559.273Zm.4-6.811c-.673,2.754-1.142,5.906-.732,6.24a.461.461,0,0,0,.489.108,1.756,1.756,0,0,0,.748-1.368,6.405,6.405,0,0,1,1.023-2.149,8.37,8.37,0,0,0,.772-1.424,1.994,1.994,0,0,0-.856-2.081C260.6,1551.606,259.886,1552.061,259.443,1552.462Z"/><path class="a" d="M238.308,1552.348s-1.175-1.1-1.752-.742a2.212,2.212,0,0,0-.945,2.332c.315.939,1.679,2.574,1.784,3.528s.813,2.034,1.587,1.4S238.308,1552.348,238.308,1552.348Z"/><path class="i" d="M238.516,1559.273a.857.857,0,0,1-.322-.065,2.159,2.159,0,0,1-1.013-1.719,6.4,6.4,0,0,0-.96-1.97,8.557,8.557,0,0,1-.814-1.513,2.422,2.422,0,0,1,1.034-2.582c.7-.439,1.882.642,2.015.767a.215.215,0,0,1,.061.1c.348,1.413,1.418,6.074.6,6.74A.944.944,0,0,1,238.516,1559.273Zm-1.681-7.526a.309.309,0,0,0-.165.041,1.993,1.993,0,0,0-.855,2.081,8.369,8.369,0,0,0,.772,1.424,6.4,6.4,0,0,1,1.022,2.149,1.759,1.759,0,0,0,.748,1.368.46.46,0,0,0,.489-.108c.41-.334-.059-3.486-.731-6.24A2.589,2.589,0,0,0,236.835,1551.747Z"/><path class="a" d="M248.522,1537.242c15.285,0,11.15,18.482,8.337,25.017-.988,2.295-5.862,5.512-8.337,5.512-2.3,0-6.9-3.03-7.838-5.186C237.839,1556.017,233.953,1537.242,248.522,1537.242Z"/><path class="i" d="M248.522,1567.986c-2.411,0-7.067-3.08-8.036-5.315a36.9,36.9,0,0,1-2.565-10.259c-.332-3.313-.273-7.957,1.9-11.264,1.795-2.734,4.723-4.121,8.7-4.121,4.277,0,7.39,1.436,9.254,4.267,4.137,6.285.883,17.326-.719,21.05C256.036,1564.717,251.09,1567.986,248.522,1567.986Zm0-30.528c-3.825,0-6.632,1.321-8.342,3.926-3.845,5.855-1.188,16.754.7,21.115.9,2.08,5.4,5.057,7.641,5.057,2.4,0,7.187-3.169,8.139-5.382a36.676,36.676,0,0,0,2.534-9.884c.339-3.161.3-7.593-1.779-10.759C255.637,1538.828,252.644,1537.458,248.522,1537.458Z"/><path class="i" d="M256.324,1553.664a.217.217,0,0,1-.193-.119c-1.134-2.268-4.916-1.133-4.955-1.121a.216.216,0,0,1-.127-.412,8.3,8.3,0,0,1,2.208-.317,3.34,3.34,0,0,1,3.259,1.657.215.215,0,0,1-.1.289A.222.222,0,0,1,256.324,1553.664Z"/><path class="i" d="M254.06,1555.565c0,.47-.239.851-.533.851s-.533-.381-.533-.851.239-.85.533-.85S254.06,1555.1,254.06,1555.565Z"/><path class="i" d="M241.234,1553.664a.216.216,0,0,1-.193-.312,3.341,3.341,0,0,1,3.26-1.657,8.284,8.284,0,0,1,2.207.317.216.216,0,0,1-.127.412c-.038-.012-3.821-1.147-4.955,1.121A.214.214,0,0,1,241.234,1553.664Z"/><path class="i" d="M243.5,1555.565c0,.47.238.851.532.851s.533-.381.533-.851-.238-.85-.533-.85S243.5,1555.1,243.5,1555.565Z"/><path class="a" d="M246.986,1559.057c-.579.615,1.419,1.629,1.8,1.629s1.9-.8,1.9-1.267"/><path class="i" d="M248.781,1560.9a3.414,3.414,0,0,1-2.058-1.336.574.574,0,0,1,.106-.655.215.215,0,1,1,.313.295.149.149,0,0,0-.024.188,3.266,3.266,0,0,0,1.663,1.077c.351,0,1.68-.781,1.68-1.051a.216.216,0,0,1,.431,0C250.892,1560.053,249.22,1560.9,248.781,1560.9Z"/><path class="i" d="M254.867,1542.447a19.347,19.347,0,0,1-11.779,0s-2.063-.12-2.877.917,0,4.24.217,5.543-1.791,2.207-1.519,5.5l-.272,1.244s-2.225-5.659-1.683-10.218,2.986-6.08,2.986-6.08,1.312-3.937,9-3.908c8.29.032,9.126,4.519,9.126,4.519s5.157,3.9,1,16.107l-.438-1.664a6.833,6.833,0,0,0-1.049-4.632c-.724-1.057.434-4.234.163-5.862S254.867,1542.447,254.867,1542.447Z"/><path class="a" d="M245.46,1562.183a7.779,7.779,0,0,0,3.319.722,8.629,8.629,0,0,0,3.173-.536"/><path class="i" d="M248.779,1563.12a7.923,7.923,0,0,1-3.419-.747.214.214,0,0,1-.091-.29.217.217,0,0,1,.291-.091,7.636,7.636,0,0,0,3.219.7,8.534,8.534,0,0,0,3.087-.518.215.215,0,0,1,.172.4A8.8,8.8,0,0,1,248.779,1563.12Z"/><path class="i" d="M254.531,1543.9a15.5,15.5,0,0,0,1.793,4.761c1.3,2.063,2.816,2.271,3.249,4.785,0,0,3.969-6.689.614-12.561,0,0-1.054-6.665-11.408-6.665s-15.142,7.212-11.122,18.285a6,6,0,0,0,3.577-4.876,5.923,5.923,0,0,1-1.064,4.279s5.329-.787,6.711-5.231c0,0-.537,2.954-2.318,4.205,0,0,2.012,2.539,4.324-1.428S252.547,1543.109,254.531,1543.9Z"/><path class="l" d="M243.679,1547.212a2.035,2.035,0,0,1-.2-.011.215.215,0,0,1,.045-.428c1.115.118,1.946-1.086,2.554-1.964l.114-.164a.215.215,0,0,1,.353.247l-.113.162C245.792,1545.972,244.932,1547.212,243.679,1547.212Z"/><path class="l" d="M247.3,1543.657a.212.212,0,0,1-.126-.041.215.215,0,0,1-.049-.3c.5-.693,3.1-4.138,5.3-3.954a2.283,2.283,0,0,1,1.83,1.469.215.215,0,1,1-.386.19,1.863,1.863,0,0,0-1.48-1.23c-1.637-.136-3.859,2.309-4.914,3.776A.214.214,0,0,1,247.3,1543.657Z"/><path class="l" d="M237.984,1542.767a.215.215,0,0,1-.055-.423,3.623,3.623,0,0,0,1.4-.8.215.215,0,1,1,.279.327,4.039,4.039,0,0,1-1.57.885A.215.215,0,0,1,237.984,1542.767Z"/><path class="l" d="M240.665,1540.879a.215.215,0,0,1-.142-.377c2.554-2.247,7.871-6.925,11.585-3.039a.215.215,0,0,1-.311.3c-3.429-3.586-8.348.741-10.99,3.066A.214.214,0,0,1,240.665,1540.879Z"/><path class="l" d="M260.187,1545.148a.216.216,0,0,1-.213-.181,7.347,7.347,0,0,0-1.1-3.044.216.216,0,0,1,.356-.244,7.769,7.769,0,0,1,1.164,3.22.214.214,0,0,1-.178.246Z"/><path class="l" d="M257.909,1540.908a.216.216,0,0,1-.111-.032,2.64,2.64,0,0,0-1.465-.4h-.01a.215.215,0,0,1-.008-.43,3.045,3.045,0,0,1,1.707.466.216.216,0,0,1-.113.4Z"/><path class="l" d="M255.254,1538.619a.2.2,0,0,1-.076-.014.215.215,0,0,1-.125-.277c.016-.042.392-1.014,1.182-1.192a1.62,1.62,0,0,1,1.466.573.215.215,0,1,1-.3.311,1.233,1.233,0,0,0-1.072-.464c-.564.126-.872.916-.875.924A.216.216,0,0,1,255.254,1538.619Z"/></g></svg>