<svg xmlns="http://www.w3.org/2000/svg" xmlns:xlink="http://www.w3.org/1999/xlink" width="138.868" height="141.143" viewBox="0 0 138.868 141.143"><defs><style>.a,.h{fill:#fff;}.b{clip-path:url(#a);}.c{fill:#1a2e35;}.d{fill:#41b7bf;}.e{fill:#47b7be;}.f{opacity:0.2;}.g{fill:#facc66;}.h{opacity:0.5;}</style><clipPath id="a"><circle class="a" cx="69.434" cy="69.434" r="69.434" transform="translate(750.102 1540.925)"/></clipPath></defs><g transform="translate(-750.102 -1538.65)"><circle class="a" cx="69.434" cy="69.434" r="69.434" transform="translate(750.102 1540.925)"/><g class="b"><path class="c" d="M806.573,1446.742a.512.512,0,0,1-.151-1l4.738-1.467a.512.512,0,1,1,.3.978l-4.738,1.467A.5.5,0,0,1,806.573,1446.742Z"/><path class="c" d="M772.638,1457.246a.512.512,0,0,1-.151-1l28.095-8.7a.512.512,0,1,1,.3.978l-28.095,8.7A.527.527,0,0,1,772.638,1457.246Z"/><path class="c" d="M802.1,1488.552h-.019l-25.782-.921a.512.512,0,0,1-.494-.529.5.5,0,0,1,.53-.494l25.782.921a.512.512,0,0,1-.017,1.023Z"/><path class="c" d="M803.024,1527.226a.516.516,0,0,1-.158-.025l-5.34-1.723a.512.512,0,1,1,.314-.974l5.341,1.723a.512.512,0,0,1-.157,1Z"/><path class="c" d="M793.443,1524.135a.506.506,0,0,1-.157-.025l-18.964-6.117a.512.512,0,0,1,.315-.975l18.963,6.118a.512.512,0,0,1-.157,1Z"/><path class="c" d="M775.4,1471.057a.512.512,0,0,1-.067-1.019l13.812-1.842a.512.512,0,0,1,.134,1.015l-13.811,1.842A.519.519,0,0,1,775.4,1471.057Z"/><path class="c" d="M779.084,1536.433a.509.509,0,0,1-.325-.115l-10.129-8.287a.512.512,0,0,1,.649-.793l10.129,8.287a.512.512,0,0,1-.324.908Z"/><path class="a" d="M766.467,1817.135s-5.783,7-6.809,12.5.746,5.224,2.145,5.317,5.224-4.477,6.157-6.249,3.078-12.22,3.078-12.22Z"/><path class="a" d="M820.124,1816.071l3.114-2.026s4.977,4.312,9.022,5.543,12.049-.791,13.5,4.09c0,0-7.306,2.545-11.634,2.218s-14.538-.165-14.538-.165Z"/><path class="c" d="M790.005,1664.439s-6.028,46.127-7.863,58.969-8.911,46.652-10.221,54.252-6.29,40.362-6.29,40.362l5.242,2.358,38.264-115.056s5.5,42.458,5.242,55.3,4.98,56.873,4.98,56.873l5.235-2.336s6.559-34.356,5.51-46.936,2.883-53.2,1.573-67.881-3.145-36.692-3.145-36.692S814.379,1672.3,790.005,1664.439Z"/><path class="c" d="M761.382,1835.317c-.137,0-.275-.006-.414-.019a2.232,2.232,0,0,1-2.078-1.8c-1.138-4.407,5.34-15.625,8.253-17.619a.427.427,0,0,1,.482.706c-2.638,1.8-8.924,12.766-7.909,16.7a1.392,1.392,0,0,0,1.332,1.162c.112.011.224.016.334.016,6.022,0,8.884-15.646,8.912-15.807a.427.427,0,0,1,.84.15C771.012,1819.494,768.114,1835.317,761.382,1835.317Z"/><path class="a" d="M809.526,1703.686a.428.428,0,0,1-.331-.7l12.49-15.351a.427.427,0,1,1,.662.538l-12.49,15.352A.427.427,0,0,1,809.526,1703.686Z"/><path class="a" d="M810.848,1705.543a.427.427,0,0,1-.215-.795,33.327,33.327,0,0,0,5.356-3.908.427.427,0,1,1,.57.635,34.131,34.131,0,0,1-5.495,4.01A.429.429,0,0,1,810.848,1705.543Z"/><path class="c" d="M834.126,1826.323c-1.908,0-4.271-.111-6.556-.219-3.214-.152-7.215-.339-7.746-.017a.433.433,0,0,1-.441.009.425.425,0,0,1-.222-.373l.226-13.319a.4.4,0,0,1,.434-.419.428.428,0,0,1,.42.434l-.216,12.743a51.2,51.2,0,0,1,7.585.09c2.275.106,4.628.217,6.516.217a42.7,42.7,0,0,0,11.135-2.078,4.18,4.18,0,0,0-3.063-2.539,14.063,14.063,0,0,0-3.533-.262c-.461,0-.922.007-1.381,0a20.114,20.114,0,0,1-14.258-6.622.427.427,0,1,1,.638-.567,19.245,19.245,0,0,0,13.642,6.336c.449.011.9.008,1.352,0a14.883,14.883,0,0,1,3.747.288c1.678.42,3.5,1.693,3.777,3.591a.426.426,0,0,1-.285.467C845.628,1824.174,839.241,1826.323,834.126,1826.323Z"/><path class="a" d="M790.109,1677.909a2.479,2.479,0,0,1-1.061-.233.427.427,0,0,1,.362-.774,2.434,2.434,0,0,0,2.754-.954,8,8,0,0,0,1.18-3.3l1.076-5.4a.427.427,0,0,1,.837.167l-1.076,5.4a8.622,8.622,0,0,1-1.337,3.652A3.623,3.623,0,0,1,790.109,1677.909Z"/><path class="c" d="M832.5,1824.575a32.3,32.3,0,0,1-4.291-.286c-.405-.054-.813-.114-1.224-.176-2.541-.378-5.171-.77-7.3.416l-.415-.746c2.382-1.327,5.158-.914,7.844-.515.406.061.811.121,1.211.175a31.674,31.674,0,0,0,16.062-2.037l.32.79A32.481,32.481,0,0,1,832.5,1824.575Z"/><path class="c" d="M762.6,1834.956a4.733,4.733,0,0,1-2.276-2.313,7.217,7.217,0,0,1-.2-2.591,20.327,20.327,0,0,1,5.547-12.523l.616.591a19.454,19.454,0,0,0-5.311,11.99,6.434,6.434,0,0,0,.164,2.284,3.983,3.983,0,0,0,1.823,1.79Z"/><path class="a" d="M855.453,1616.188l27.023-43.907-29.591-11.657-24.4,36.223Z"/><path class="a" d="M874.645,1600.742s2.32-2.967,2.374-5.934-1.88-3.329-1.371-5.063.083-2.723-1.728-4.549-5.911-2.905-6.18-1.934,3.668,2.536,3.29,4.209c0,0-7.013.269-7.337,2.05l-.108,1.24s-1.4.648-1.079,1.4,7.5.654,7.5.654-1.191,4.687.373,6.09Z"/><path class="a" d="M861.07,1576.113c7.424,9.782.667,22.1-9.345,28.472s-19.716,3.526-24.745-4.376-.987-19.472,9.025-25.843S855.408,1568.653,861.07,1576.113Z"/><path class="d" d="M869.124,1598.149l-12.475,28.593-22.712-19.692s-8.278-4.068-9.332-10.984l-16.124-2.242s-1.935,7.655-5.247,9.316l-3.612-6.327-.548,7.788s-8.319-3.379-10.661-5.355c0,0-18.59,8.4-21.6,17.585s6.924,31.3,6.924,31.3,3.761,9.631,6.916,10.237,9.49-5.28,9.49-5.28l-1.71,11.042s24.319,9.64,40.4-1l-.216-35.893s20.508,10.354,26.677,12.612,8.427,1.353,8.427,1.353,10.536-27.689,12.346-40.475Zm-82.184,42.833-3.143-11.808,5.352,10.024Z"/><path class="e" d="M830.792,1603.761s12.563,5.189,24.58-7.648,4.36-20.86,4.36-20.86,10.661,7.341,1.512,20.314-19.255,13.11-24.99,12.154S830.792,1603.761,830.792,1603.761Z"/><path class="f" d="M796.7,1647.359c-.2-.022.008.306.212.309q4.758.081,9.509-.307l-8.612,3.379a1.4,1.4,0,0,0-1.087,1.187c-1.3,4.557-3.97,13.8-3.848,13.836l-4.442-1.631,1.712-11.043Z"/><path class="f" d="M783.177,1627.091l1.607-14.09s5.213,3.948,3.633,8.845,3.949,15.006,3.949,15.006l-3.217,2.346-6.418-13.245Z"/><path class="f" d="M828.74,1617.55s1.3,6.621,1.8,7.122-.5-5.517.4-5.818,3.31,7.825,3.31,7.825,9.229,5.416,12.339,4.915,8.025-6.019,8.025-6.019l1.889,1.694s-1.889,5.127-4.2,6.131c0,0,3.912,5.216,12.74,4.213,0,0-.626,4.737-4.113,4.012-8.213-1.7-32.318-14.383-32.318-14.383Z"/><path class="f" d="M772.232,1608.44c-3.917,14.56-2.4,19.614,2.279,31.91,0,0,6.428-3.033,11.65-.248l.495,1.363-8.506,5.266s.87,6.788,6.614,9.747c0,0-2.293,2.216-4.106,1.891s-8.948-15.815-10.514-18.948S761.093,1620.624,772.232,1608.44Z"/><path class="e" d="M828.411,1602.309a13.793,13.793,0,0,1-3.732-12.4c1.466-7.73,9.063-15.194,15.194-17.726s16.394-3.6,19.859,3.065c0,0-7.2-5.465-19.859,1.466S826.545,1596.845,828.411,1602.309Z"/><path class="c" d="M856.6,1627.639a.421.421,0,0,1-.285-.11l-26.957-24.182a.427.427,0,0,1,.57-.635l26.957,24.182a.427.427,0,0,1-.285.745Z"/><path class="c" d="M861.831,1642.17c-6.891,0-30.265-12.837-33.128-14.424a.427.427,0,1,1,.414-.747c12.062,6.686,30.974,15.978,33.661,14.14,3.027-2.071,10.156-29.017,12.765-39.7l-6.2-2.733-13.872,32.57a.427.427,0,0,1-.786-.335l14.042-32.968a.421.421,0,0,1,.236-.229.427.427,0,0,1,.329.006l6.919,3.052a.426.426,0,0,1,.242.492c-.375,1.544-9.241,37.838-13.2,40.545A2.554,2.554,0,0,1,861.831,1642.17Z"/><path class="c" d="M811.417,1669.3c-11.637,0-22.972-4.7-23.148-4.773a.427.427,0,0,1-.255-.459l1.709-11.044a.431.431,0,0,1,.487-.357.427.427,0,0,1,.357.487l-1.658,10.71c3.008,1.193,27.177,10.257,39.5-.918l-.141-46.386a.427.427,0,0,1,.425-.429h0a.426.426,0,0,1,.426.426l.142,46.574a.428.428,0,0,1-.137.316C824.347,1667.868,817.835,1669.3,811.417,1669.3Z"/><path class="c" d="M824.035,1595.607a.446.446,0,0,1-.051,0l-15.9-1.9a.427.427,0,1,1,.1-.848l15.9,1.9a.427.427,0,0,1-.05.851Z"/><path class="c" d="M781.173,1659.045c-1.78,0-3.24-2.554-4.115-4.086-.122-.214-.231-.405-.326-.562a95.026,95.026,0,0,1-5.173-10.368c-3.837-8.611-7.1-17.738-5.022-26.122,2.11-8.511,8.578-12.042,15.427-15.779,1.888-1.03,3.84-2.1,5.706-3.276a.427.427,0,1,1,.457.721c-1.891,1.2-3.854,2.267-5.753,3.3-6.68,3.645-12.99,7.088-15.009,15.235s1.2,17.1,4.974,25.57a94.223,94.223,0,0,0,5.124,10.275c.1.161.21.357.336.578.732,1.281,2.09,3.657,3.373,3.657h.025c3.674-.085,24.355-18.777,32.368-26.3l-3.7-5.673-29.4,19.728a.427.427,0,0,1-.475-.709l29.752-19.965a.426.426,0,0,1,.595.11l.074.108,4.066,6.235a.429.429,0,0,1-.065.544c-1.157,1.089-28.4,26.665-33.194,26.776Z"/><path class="c" d="M808.748,1569.987a.427.427,0,0,1-.339-.687c.738-.957,2.488-3.735,1.743-5.075a1.325,1.325,0,0,0-.861-.768,1.359,1.359,0,0,0-.987.352.426.426,0,0,1-.578-.627,2.233,2.233,0,0,1,1.694-.568,2.109,2.109,0,0,1,1.479,1.2c1.148,2.069-1.507,5.614-1.814,6.011A.423.423,0,0,1,808.748,1569.987Z"/><path class="c" d="M837.252,1605.471c-4.45,0-8.165-1.586-10.547-4.53-2.59-3.2-3.282-7.6-1.95-12.4a27.549,27.549,0,0,1,23.31-18.864c4.974-.3,9.135,1.294,11.724,4.494s3.282,7.6,1.951,12.4a27.551,27.551,0,0,1-23.311,18.865Q837.833,1605.472,837.252,1605.471Zm11.987-34.979q-.554,0-1.122.034a26.7,26.7,0,0,0-22.54,18.24c-1.256,4.526-.62,8.659,1.791,11.638s6.326,4.462,11.01,4.18a26.7,26.7,0,0,0,22.539-18.241c1.255-4.526.619-8.658-1.792-11.638C856.909,1571.967,853.427,1570.492,849.239,1570.492Z"/><path class="c" d="M840.023,1608.523c-4.3,0-8.117-1.487-10.567-4.515-2.589-3.2-3.282-7.6-1.951-12.4a25.941,25.941,0,0,1,8.864-12.882c9.121-7.381,20.86-8.05,26.171-1.488,2.589,3.2,3.282,7.6,1.95,12.4a25.937,25.937,0,0,1-8.864,12.882A25.479,25.479,0,0,1,840.023,1608.523Zm11.953-34.963a24.653,24.653,0,0,0-15.07,5.827,25.078,25.078,0,0,0-8.578,12.446c-1.256,4.526-.619,8.659,1.792,11.639,5.012,6.193,16.214,5.47,24.969-1.616a25.087,25.087,0,0,0,8.579-12.446c1.255-4.526.619-8.659-1.792-11.638C859.59,1574.947,856.017,1573.56,851.976,1573.56Z"/><path class="c" d="M833.372,1606.851l-8.917,10.1-.033.041-11.541,13.077-2.08-4.849-.925.482c.008-.042-.351.127-.342.086a4.131,4.131,0,0,0,.574-2.07c.581-.168.039-.773.006-.98l-.006-1.086,6.7-6.212.382-.4L829.1,1603a1.342,1.342,0,0,1,.141.009,3.071,3.071,0,0,1,.631.133,4.1,4.1,0,0,1,1.42.73,6.363,6.363,0,0,1,1.959,2.69C833.3,1606.652,833.331,1606.751,833.372,1606.851Z"/><path class="e" d="M837.84,1596.426a3.47,3.47,0,0,1-1.464-.318,3.981,3.981,0,0,1-2.165-3.2,8.172,8.172,0,0,1,.3-2.892c.338-1.4.76-3.061,1.327-4.709a1.661,1.661,0,0,1,3.141,1.08c-.522,1.516-.919,3.078-1.239,4.406a5.284,5.284,0,0,0-.233,1.727.82.82,0,0,0,.256.569c.054.025.407.115,1.626-.727,5.686-3.932,11.257-8.176,16.558-12.615a1.66,1.66,0,1,1,2.132,2.546c-5.38,4.5-11.033,8.811-16.8,12.8A6.364,6.364,0,0,1,837.84,1596.426Z"/><path class="c" d="M837.84,1596.853a3.907,3.907,0,0,1-1.642-.357,4.409,4.409,0,0,1-2.411-3.536,8.533,8.533,0,0,1,.309-3.035c.344-1.423.769-3.094,1.341-4.755a2.087,2.087,0,1,1,3.947,1.358c-.515,1.5-.909,3.049-1.227,4.367a5,5,0,0,0-.224,1.576.785.785,0,0,0,.044.186,4.44,4.44,0,0,0,1.172-.644c5.678-3.928,11.239-8.164,16.526-12.592a2.087,2.087,0,1,1,2.68,3.2c-5.393,4.516-11.056,8.831-16.833,12.826A6.776,6.776,0,0,1,837.84,1596.853Zm-.433-12.239a1.232,1.232,0,0,0-1.163.834c-.56,1.627-.98,3.273-1.316,4.67a7.829,7.829,0,0,0-.293,2.742,3.553,3.553,0,0,0,1.919,2.86,3.067,3.067,0,0,0,1.286.279,6.014,6.014,0,0,0,3.2-1.253c5.756-3.981,11.4-8.28,16.77-12.779a1.233,1.233,0,0,0-.682-2.175,1.251,1.251,0,0,0-.9.284c-5.308,4.444-10.888,8.7-16.589,12.639-1,.69-1.667.937-2.048.763a1.156,1.156,0,0,1-.5-.907,5.578,5.578,0,0,1,.242-1.875c.322-1.338.723-2.913,1.25-4.446a1.232,1.232,0,0,0-.765-1.568A1.26,1.26,0,0,0,837.407,1584.614Z"/><path class="c" d="M847.094,1610.7a.427.427,0,0,1-.247-.079l-3.438-2.431a.427.427,0,1,1,.494-.7l3.438,2.431a.428.428,0,0,1-.247.776Z"/><path class="c" d="M855.452,1616.615a.433.433,0,0,1-.247-.078l-4.641-3.283a.427.427,0,0,1,.494-.7l4.27,3.021,13.884-22.474a.427.427,0,1,1,.727.449l-14.123,22.859a.426.426,0,0,1-.279.194A.4.4,0,0,1,855.452,1616.615Z"/><path class="c" d="M874.991,1584.87a.434.434,0,0,1-.224-.063.428.428,0,0,1-.14-.588l7.218-11.727-28.8-11.347-6.355,9.079a.426.426,0,1,1-.7-.489l6.547-9.355a.428.428,0,0,1,.506-.153l29.591,11.657a.426.426,0,0,1,.207.621l-7.485,12.162A.427.427,0,0,1,874.991,1584.87Z"/><path class="c" d="M786.737,1641.4a.424.424,0,0,1-.364-.207c-.7-1.17-5.7-21.446-6.262-23.754a.427.427,0,1,1,.829-.2c2.211,9,5.677,22.69,6.165,23.519a.428.428,0,0,1-.368.645Z"/><path class="c" d="M789.1,1639.138a.425.425,0,0,1-.377-.226l-6.1-11.429a.427.427,0,1,1,.754-.4l6.095,11.429a.426.426,0,0,1-.376.628Z"/><path class="c" d="M776.662,1642.094a.427.427,0,0,1-.051-.851c2.421-.293,4.853-.686,7.229-1.166a.427.427,0,1,1,.169.837c-2.4.484-4.851.88-7.294,1.176A.311.311,0,0,1,776.662,1642.094Z"/><path class="c" d="M783.28,1628.8a.48.48,0,0,1-.209-.047.5.5,0,0,1-.256-.451.621.621,0,0,1,.136-.332l1.179-11.145a.427.427,0,0,1,.849.09l-1.188,11.222a.541.541,0,0,1-.023.113.453.453,0,0,1-.137.418A.539.539,0,0,1,783.28,1628.8Zm-.338-.754v0Z"/><path class="a" d="M825.224,1616.135c-.025,1.462-1.511,4.484-1.511,4.484s-.009.141-.05.382a10.263,10.263,0,0,1-.349,1.569,7.318,7.318,0,0,1-2.217,3.545c-.224.183-.473.382-.755.6a.37.37,0,0,1-.092.067c-1.793,1.37-4.508,3.271-6.144,4.408l-.9-1.37s-2.343-3.36-2.925-4.512a5.753,5.753,0,0,0,.409-.594,5.461,5.461,0,0,0-.241-2.059c-.058-.249-.116-.481-.149-.689a1.121,1.121,0,0,1,.058-.822,3.615,3.615,0,0,1,.374-.415l.008-.008c1.337-1.42,5.554-5.422,5.554-5.422a10.33,10.33,0,0,1,1.312-.714,2.257,2.257,0,0,1,1.038-.274.338.338,0,0,1,.357.291,1.288,1.288,0,0,1-.008.4,23.886,23.886,0,0,1-1.687,4.229c-.014.194.181.175.221-.165a40.419,40.419,0,0,1,3.832-2.3.4.4,0,0,0,.083-.041c1.669-.839,3.271-1.495,3.645-1.163a.2.2,0,0,1,.05.075,1.152,1.152,0,0,1,.066.208C825.216,1615.928,825.224,1616.028,825.224,1616.135Z"/><path class="c" d="M814.175,1631.75a.426.426,0,0,1-.246-.775c1.7-1.2,4.457-3.153,6.034-4.3a1.018,1.018,0,0,1,.106-.077c2.251-1.628,2.525-2.53,2.79-3.87l.043-.227c.055-.279.111-.574.184-.891.035-.157.08-.327.132-.5a18.834,18.834,0,0,1,.752-1.921,6.758,6.758,0,0,0,.827-2.812.681.681,0,0,0-.022-.144.426.426,0,0,1-.028-.112l-.016-.037c-.123-.039-.762-.084-3.112,1.241a.644.644,0,0,1-.157.075c-2.031,1.17-4.276,2.751-4.3,2.767a.427.427,0,0,1-.6-.583c.12-.183.232-.367.327-.534,1.392-2.285,1.663-3.326,1.645-3.8-.012-.266-.1-.314-.13-.333a.9.9,0,0,0-.433-.07c-.087.008-.176.015-.265.029-.8.122-2.29,1.708-3.609,3.108-.8.844-1.621,1.718-2.37,2.371a2.671,2.671,0,0,0-.637.79.489.489,0,0,1-.031.055,2.294,2.294,0,0,0-.249.912,3.919,3.919,0,0,0,.031.724c.031.258.078.508.122.747a4.468,4.468,0,0,1,.118,1.427,3.078,3.078,0,0,1-.322.79l-.037.08a.427.427,0,1,1-.78-.346l.045-.1c.072-.155.222-.47.256-.58a4.141,4.141,0,0,0-.119-1.118c-.048-.258-.1-.526-.13-.8a4.725,4.725,0,0,1-.036-.881,3.144,3.144,0,0,1,.365-1.3.414.414,0,0,1,.025-.041,3.553,3.553,0,0,1,.817-1.009c.718-.627,1.528-1.485,2.311-2.315,1.618-1.717,3.015-3.2,4.1-3.366.109-.017.218-.026.32-.035a1.657,1.657,0,0,1,.928.177,1.162,1.162,0,0,1,.563,1.04,7.064,7.064,0,0,1-1.13,3.181c.817-.538,1.853-1.2,2.859-1.771l.084-.043c3.072-1.733,3.842-1.5,4.193-1.052a.508.508,0,0,1,.117.2.767.767,0,0,1,.078.239,1.366,1.366,0,0,1,.059.322,7.169,7.169,0,0,1-.893,3.236,17.976,17.976,0,0,0-.718,1.834c-.047.149-.085.3-.116.435-.071.307-.126.593-.178.863l-.045.229c-.3,1.506-.672,2.621-3.066,4.357a1.365,1.365,0,0,1-.225.153c-1.521,1.111-4.276,3.065-5.984,4.269A.425.425,0,0,1,814.175,1631.75Zm10.524-15.745,0,.009Z"/><path class="c" d="M850.037,1631.825a.427.427,0,0,1-.227-.788,25.34,25.34,0,0,0,4.084-3.213.427.427,0,1,1,.594.613,26.071,26.071,0,0,1-4.223,3.322A.42.42,0,0,1,850.037,1631.825Z"/><path class="c" d="M869.807,1598.85a.428.428,0,0,1-.416-.33,11.245,11.245,0,0,1,.063-5.22,22.9,22.9,0,0,1-6-.294,1.506,1.506,0,0,1-1.038-.556,1.17,1.17,0,0,1,.2-1.425,2.393,2.393,0,0,1,1.028-.565,32.363,32.363,0,0,1,5.088-1.124,4.607,4.607,0,0,1,2,0,4.686,4.686,0,0,1,2.545,2.7.426.426,0,1,1-.76.387c-.51-1-1.086-2-2.022-2.272a3.764,3.764,0,0,0-1.625.027,31.475,31.475,0,0,0-4.954,1.091,1.669,1.669,0,0,0-.681.346.351.351,0,0,0-.1.363c.074.113.357.164.478.186a22.032,22.032,0,0,0,6.356.228.416.416,0,0,1,.37.145.425.425,0,0,1,.089.387,10.825,10.825,0,0,0-.2,5.4.428.428,0,0,1-.319.512A.4.4,0,0,1,869.807,1598.85Z"/><path class="c" d="M863.865,1590.963a.816.816,0,0,1-.5-.18.964.964,0,0,1-.37-.709,1.386,1.386,0,0,1,.438-1.016,4.49,4.49,0,0,1,1.881-1.083,11.913,11.913,0,0,1,6.328-.46.427.427,0,1,1-.185.833,11.022,11.022,0,0,0-5.866.435,3.735,3.735,0,0,0-1.535.858.622.622,0,0,0-.209.393.121.121,0,0,0,.047.079.4.4,0,0,1,.482.333.438.438,0,0,1-.355.5A.794.794,0,0,1,863.865,1590.963Z"/><path class="c" d="M874.913,1601.045a.427.427,0,0,1-.327-.7,8.59,8.59,0,0,0,1.283-8.752l-.153-.339a4,4,0,0,1-.454-2.739,2.468,2.468,0,0,0-1.58-2.964,11.034,11.034,0,0,0-4.836-2.174,1.119,1.119,0,0,0-.675.08.554.554,0,0,0-.058.368l1.99,1.171a2.75,2.75,0,0,1,1.285,1.263,2.72,2.72,0,0,1,.13,1.047,3.224,3.224,0,0,0,.019.53.427.427,0,1,1-.844.128,4.149,4.149,0,0,1-.029-.67,1.382,1.382,0,0,0-1-1.566l-2.045-1.224a.833.833,0,0,1-.37-.744,1.22,1.22,0,0,1,.46-1.021,1.881,1.881,0,0,1,1.22-.211,11.728,11.728,0,0,1,5.23,2.315,3.268,3.268,0,0,1,1.951,3.768,3.18,3.18,0,0,0,.383,2.288l.159.356a9.458,9.458,0,0,1-1.412,9.639A.426.426,0,0,1,874.913,1601.045Z"/><path class="a" d="M777.345,1565.782l3.372-4.118,2.461,3.256A12.754,12.754,0,0,1,777.345,1565.782Z"/><path class="a" d="M791.141,1592.273l-2.725,6.973,10.657,5.356v-7.646l4.24,6.635a51.283,51.283,0,0,0,5.166-9.768l-3.177-3.647s-3.955,6.236-6.358,6.065S791.141,1592.273,791.141,1592.273Z"/><path class="a" d="M806.756,1556.457l.959,6.167s3.153.137,3.015,2.33-2.329,5.619-2.329,5.619,1.506,9.658-3.153,14.318l-.032,4.77s-3,5.995-6.143,7.3c0,0-5.2-1.852-7.666-4.182,0,0-3.654-12.869-4.888-16.98,0,0-2.307,1.408-3.781.08s-3.915-4.445-2.762-6.107,4.03-.976,4.03-.976l-3.289-7.127s5.619-7.263,13.019-6.989A64.908,64.908,0,0,1,806.756,1556.457Z"/><path class="g" d="M789.715,1556.658a15.113,15.113,0,0,1,2.1,9.106c-.161,1.78-.639,3.523-.735,5.308a25.057,25.057,0,0,0,1.469,8.367c.53,1.791.946,4.158,2.6,5.026.817.429,1.7.109,2.74.8,0,.067.078.274.078.34,0,2.454.458,4.813.108,7.242a6.307,6.307,0,0,1-1.393,3.51l-5.539-4.079s-2.416-9.417-4.786-16.334c0,0-3.938.934-5.543-2.175s-1.505-4.414.1-4.815a10.55,10.55,0,0,1,3.912.1l-1.1-7.523,4.514-4.615Z"/><path class="h" d="M789.715,1556.658a15.113,15.113,0,0,1,2.1,9.106c-.161,1.78-.639,3.523-.735,5.308a25.057,25.057,0,0,0,1.469,8.367c.53,1.791.946,4.158,2.6,5.026.817.429,1.7.109,2.74.8,0,.067.078.274.078.34,0,2.454.458,4.813.108,7.242a6.307,6.307,0,0,1-1.393,3.51l-5.539-4.079s-2.416-9.417-4.786-16.334c0,0-3.938.934-5.543-2.175s-1.505-4.414.1-4.815a10.55,10.55,0,0,1,3.912.1l-1.1-7.523,4.514-4.615Z"/><path class="c" d="M784.053,1570.862l1.8-1.067s-1.569-3.1.291-4.556,3.587-3.322,2.259-7.574a10.639,10.639,0,0,1,6.909-.266c4.252,1.063,15.005,2.214,19.656-2.7s5.059-6.865,3.2-10.186-5.315,1.461-10.9-.931-9.833-4.384-19.267,1.728-10.9,11.56-9.035,15.28S782.591,1567.54,784.053,1570.862Z"/><path class="a" d="M777.73,1564.372l1.185-2.709a19.493,19.493,0,0,1-.452-11.009c1.9-7.339,10.055-11.008,14.965-11.686s8.634,1.669,12.358,3.531l6.821,1.387S791.746,1546.382,777.73,1564.372Z"/><path class="c" d="M801.867,1586.219c-3.108,0-8.36-1.224-10.674-3.231a.439.439,0,0,1-.07-.078l-4.966-7.12a.427.427,0,0,1,.7-.488l4.936,7.076c2.757,2.346,9.642,3.422,11.549,2.83,1.934-.6,4.228-2.231,4.794-9.585.57-7.414-1.343-17.177-1.362-17.274a.427.427,0,1,1,.837-.166c.02.1,1.955,9.974,1.375,17.506-.605,7.866-3.2,9.655-5.39,10.335A6.193,6.193,0,0,1,801.867,1586.219Z"/><path class="c" d="M784.268,1576.673a3.813,3.813,0,0,1-1.721-.417,7.139,7.139,0,0,1-2.963-4.005,3.606,3.606,0,0,1,.016-2.688c1.051-1.923,4.058-.606,4.185-.549a.427.427,0,0,1-.348.779c-.024-.01-2.424-1.036-3.087.179A2.756,2.756,0,0,0,780.4,1572a6.424,6.424,0,0,0,2.531,3.5,2.918,2.918,0,0,0,2.777-.049.427.427,0,0,1,.464.717A3.747,3.747,0,0,1,784.268,1576.673Z"/><path class="c" d="M801.638,1572.658a.427.427,0,0,1-.082-.845,2.136,2.136,0,0,0,1.261-.785c.136-.177.265-.444.187-.616a1.015,1.015,0,0,0-.175-.221,9.756,9.756,0,0,1-.841-1.053,3.558,3.558,0,0,1-.512-.989,3.79,3.79,0,0,1-.127-.955,16.256,16.256,0,0,1,.157-2.869.427.427,0,0,1,.846.123,15.3,15.3,0,0,0-.149,2.716,2.963,2.963,0,0,0,.092.742,2.725,2.725,0,0,0,.4.747,8.791,8.791,0,0,0,.749.94,1.8,1.8,0,0,1,.339.462,1.471,1.471,0,0,1-.283,1.492,3,3,0,0,1-1.774,1.1A.477.477,0,0,1,801.638,1572.658Z"/><path class="c" d="M799.005,1576.6a6.286,6.286,0,0,1-.79-.061c-.1-.012-.186-.023-.259-.029a6.5,6.5,0,0,1-2.687-.8.427.427,0,0,1,.415-.746,5.634,5.634,0,0,0,2.332.7c.087.006.189.019.3.033a2.617,2.617,0,0,0,1.4-.082.427.427,0,1,1,.382.763A2.431,2.431,0,0,1,799.005,1576.6Z"/><path class="c" d="M792.9,1562.986a.427.427,0,0,1-.362-.653,8,8,0,0,1,1.444-1.858,4.239,4.239,0,0,1,3.525-.957.426.426,0,0,1,.341.5.434.434,0,0,1-.5.342,3.41,3.41,0,0,0-2.809.762,7.163,7.163,0,0,0-1.28,1.666A.428.428,0,0,1,792.9,1562.986Z"/><path class="c" d="M806.676,1562.455a.426.426,0,0,1-.419-.353.768.768,0,0,0-.223-.413,1.641,1.641,0,0,0-.476-.28,3.5,3.5,0,0,0-2.982-.078.427.427,0,1,1-.428-.738,4.187,4.187,0,0,1,3.749.032,2.465,2.465,0,0,1,.726.445,1.614,1.614,0,0,1,.474.884.426.426,0,0,1-.346.494A.38.38,0,0,1,806.676,1562.455Z"/><path class="c" d="M797.13,1566.053c.061.639-.149,1.182-.469,1.213s-.628-.464-.689-1.1.15-1.183.469-1.213S797.07,1565.413,797.13,1566.053Z"/><path class="c" d="M805.058,1565.6c.06.64-.15,1.183-.469,1.213s-.629-.463-.689-1.1.149-1.182.469-1.213S805,1564.963,805.058,1565.6Z"/><path class="c" d="M805.3,1590.6a.427.427,0,0,1-.423-.381,31.154,31.154,0,0,1-.251-5.133.423.423,0,0,1,.458-.393.428.428,0,0,1,.394.458,30.952,30.952,0,0,0,.248,4.976.428.428,0,0,1-.378.471Z"/><path class="c" d="M791.073,1592.662a.427.427,0,0,1-.423-.375,56.433,56.433,0,0,0-3.311-12.27c-.488-1.385-.994-2.817-1.47-4.287a.427.427,0,0,1,.812-.264c.472,1.46.976,2.887,1.463,4.267a57.078,57.078,0,0,1,3.353,12.451.426.426,0,0,1-.372.475A.451.451,0,0,1,791.073,1592.662Z"/><path class="c" d="M777.345,1566.209a.427.427,0,0,1-.416-.524c2.741-11.787,9.594-19.115,20.95-22.4,6.852-1.982,15.651.086,16.021.175a.426.426,0,0,1-.054.839,49.569,49.569,0,0,0-36.132,21.7A.426.426,0,0,1,777.345,1566.209Zm27.358-22.918a24.084,24.084,0,0,0-6.587.812c-10.243,2.965-16.716,9.317-19.722,19.384A50.909,50.909,0,0,1,811.08,1543.8,43.117,43.117,0,0,0,804.7,1543.291Z"/><path class="c" d="M778.22,1566.527a3.5,3.5,0,0,1-.987-.11.427.427,0,1,1,.261-.813c.01,0,1.562.437,4.625-.914a.427.427,0,0,1,.345.781A10.675,10.675,0,0,1,778.22,1566.527Z"/><path class="c" d="M778.4,1561.309c-.044-.131-4.214-13.163,6.055-19.481,12.56-7.732,21.462.515,21.55.6l-.589.619c-.342-.325-8.525-7.869-20.514-.492-9.7,5.968-5.733,18.362-5.692,18.486Z"/><path class="c" d="M799.073,1605.029a.419.419,0,0,1-.166-.034c-.374-.158-9.191-3.886-10.958-5.945a.427.427,0,0,1-.065-.45l2.866-6.5a.428.428,0,0,1,.7-.121,18.5,18.5,0,0,0,7.731,4.563.428.428,0,0,1,.318.413v7.646a.427.427,0,0,1-.427.427Zm-10.294-6.344c1.706,1.65,7.913,4.42,9.867,5.269v-6.673a19.15,19.15,0,0,1-7.364-4.272Z"/><path class="c" d="M803.313,1604.018l-.058,0a.422.422,0,0,1-.3-.194l-4.24-6.635a.424.424,0,0,1,.131-.59c.049-.032,4.966-3.192,6.126-7.03a.427.427,0,0,1,.75-.132l3.1,4.133a.425.425,0,0,1,.074.352c-.062.27-1.576,6.651-5.3,9.99A.427.427,0,0,1,803.313,1604.018Zm-3.655-6.939,3.737,5.847c2.925-2.92,4.351-7.97,4.621-9.01l-2.5-3.338C804.167,1593.777,800.775,1596.309,799.658,1597.079Z"/><path class="a" d="M790.477,1552.947a.427.427,0,0,1-.109-.84,30.183,30.183,0,0,1,9.5-.955c.937.056,1.885.156,2.8.253a25.719,25.719,0,0,0,6.257.153c2.753-.39,5.809-2.077,6.432-4.965a.427.427,0,1,1,.834.18c-.709,3.29-4.1,5.2-7.146,5.631a26.424,26.424,0,0,1-6.467-.15c-.907-.1-1.844-.2-2.761-.25a29.335,29.335,0,0,0-9.236.929A.451.451,0,0,1,790.477,1552.947Z"/><path class="a" d="M796.637,1549.72a.426.426,0,0,1-.2-.8c2.618-1.391,5.611-1.641,8.452-1.779l.235-.011a16.389,16.389,0,0,0,3.741-.466,4.991,4.991,0,0,0,3.017-2.134.427.427,0,1,1,.739.427,5.829,5.829,0,0,1-3.519,2.527,17,17,0,0,1-3.937.5l-.235.011c-2.745.133-5.63.371-8.093,1.679A.41.41,0,0,1,796.637,1549.72Z"/></g><path class="a" d="M777.133,1565.909l3.371-4.118,2.461,3.256A12.767,12.767,0,0,1,777.133,1565.909Z"/><path class="a" d="M790.928,1592.4l-2.724,6.973,10.657,5.356v-7.646l4.24,6.635a51.287,51.287,0,0,0,5.166-9.768l-3.178-3.647s-3.954,6.236-6.358,6.065S790.928,1592.4,790.928,1592.4Z"/><path class="a" d="M806.544,1556.583l.959,6.168s3.152.137,3.015,2.33-2.33,5.619-2.33,5.619,1.507,9.658-3.153,14.318l-.032,4.77s-3,5.995-6.142,7.3c0,0-5.2-1.852-7.667-4.182,0,0-3.654-12.869-4.887-16.98,0,0-2.308,1.408-3.781.08s-3.915-4.445-2.763-6.107,4.031-.976,4.031-.976l-3.29-7.127s5.619-7.263,13.02-6.989A64.965,64.965,0,0,1,806.544,1556.583Z"/><path class="g" d="M789.5,1556.785a15.125,15.125,0,0,1,2.1,9.106c-.161,1.78-.639,3.523-.736,5.308a25.056,25.056,0,0,0,1.47,8.367c.53,1.791.945,4.158,2.6,5.026.817.429,1.7.109,2.741.795,0,.067.077.274.077.34,0,2.454.458,4.813.108,7.242a6.293,6.293,0,0,1-1.393,3.51l-5.539-4.079s-2.416-9.417-4.785-16.334c0,0-3.939.934-5.544-2.175s-1.505-4.414.1-4.815a10.554,10.554,0,0,1,3.913.1l-1.1-7.523,4.514-4.615Z"/><path class="h" d="M789.5,1556.785a15.125,15.125,0,0,1,2.1,9.106c-.161,1.78-.639,3.523-.736,5.308a25.056,25.056,0,0,0,1.47,8.367c.53,1.791.945,4.158,2.6,5.026.817.429,1.7.109,2.741.795,0,.067.077.274.077.34,0,2.454.458,4.813.108,7.242a6.293,6.293,0,0,1-1.393,3.51l-5.539-4.079s-2.416-9.417-4.785-16.334c0,0-3.939.934-5.544-2.175s-1.505-4.414.1-4.815a10.554,10.554,0,0,1,3.913.1l-1.1-7.523,4.514-4.615Z"/><path class="c" d="M783.841,1570.989l1.8-1.067s-1.569-3.095.291-4.556,3.588-3.322,2.259-7.574a10.643,10.643,0,0,1,6.91-.266c4.252,1.063,15.005,2.214,19.655-2.7s5.059-6.865,3.2-10.186-5.315,1.461-10.9-.931-9.832-4.384-19.266,1.728-10.9,11.56-9.036,15.28S782.379,1567.667,783.841,1570.989Z"/><path class="a" d="M777.517,1564.5l1.186-2.709a19.494,19.494,0,0,1-.452-11.009c1.9-7.34,10.055-11.009,14.965-11.686s8.633,1.669,12.358,3.531l6.821,1.387S791.534,1546.509,777.517,1564.5Z"/><path class="c" d="M801.654,1586.346c-3.108,0-8.36-1.224-10.673-3.231a.431.431,0,0,1-.07-.078l-4.966-7.12a.427.427,0,1,1,.7-.488l4.935,7.076c2.758,2.346,9.642,3.422,11.55,2.83,1.934-.6,4.227-2.231,4.793-9.585.571-7.414-1.343-17.177-1.362-17.274a.427.427,0,0,1,.335-.5.423.423,0,0,1,.5.336c.02.1,1.956,9.974,1.376,17.506-.606,7.866-3.2,9.655-5.391,10.335A6.188,6.188,0,0,1,801.654,1586.346Z"/><path class="c" d="M784.055,1576.8a3.814,3.814,0,0,1-1.72-.417,7.144,7.144,0,0,1-2.964-4.005,3.607,3.607,0,0,1,.017-2.688c1.05-1.923,4.057-.606,4.185-.549a.427.427,0,0,1-.349.779c-.023-.01-2.423-1.036-3.087.179a2.757,2.757,0,0,0,.049,2.024,6.425,6.425,0,0,0,2.531,3.5,2.919,2.919,0,0,0,2.777-.049.427.427,0,0,1,.463.717A3.745,3.745,0,0,1,784.055,1576.8Z"/><path class="c" d="M801.426,1572.785a.427.427,0,0,1-.083-.845,2.133,2.133,0,0,0,1.261-.785c.136-.177.266-.444.187-.616a1.038,1.038,0,0,0-.174-.221,9.748,9.748,0,0,1-.841-1.053,3.545,3.545,0,0,1-.512-.989,3.8,3.8,0,0,1-.128-.955,16.255,16.255,0,0,1,.158-2.869.427.427,0,1,1,.845.123,15.3,15.3,0,0,0-.149,2.716,2.964,2.964,0,0,0,.093.742,2.694,2.694,0,0,0,.4.747,8.793,8.793,0,0,0,.748.94,1.786,1.786,0,0,1,.34.462,1.472,1.472,0,0,1-.284,1.492,3,3,0,0,1-1.773,1.1A.487.487,0,0,1,801.426,1572.785Z"/><path class="c" d="M798.792,1576.729a6.248,6.248,0,0,1-.789-.061c-.1-.012-.186-.023-.26-.029a6.5,6.5,0,0,1-2.687-.8.427.427,0,1,1,.416-.746,5.632,5.632,0,0,0,2.331.695c.087.006.19.019.3.033a2.615,2.615,0,0,0,1.4-.082.427.427,0,1,1,.382.763A2.426,2.426,0,0,1,798.792,1576.729Z"/><path class="c" d="M792.687,1563.113a.427.427,0,0,1-.362-.653,8.023,8.023,0,0,1,1.444-1.858,4.241,4.241,0,0,1,3.526-.957.427.427,0,0,1,.341.5.435.435,0,0,1-.5.342,3.409,3.409,0,0,0-2.808.762,7.2,7.2,0,0,0-1.281,1.666A.427.427,0,0,1,792.687,1563.113Z"/><path class="c" d="M806.464,1562.582a.428.428,0,0,1-.42-.353.759.759,0,0,0-.222-.413,1.642,1.642,0,0,0-.476-.28,3.5,3.5,0,0,0-2.982-.078.427.427,0,1,1-.429-.738,4.189,4.189,0,0,1,3.75.032,2.438,2.438,0,0,1,.725.445,1.616,1.616,0,0,1,.475.884.428.428,0,0,1-.346.494A.381.381,0,0,1,806.464,1562.582Z"/><path class="c" d="M796.918,1566.18c.061.639-.149,1.182-.469,1.213s-.628-.464-.689-1.1.149-1.183.469-1.213S796.857,1565.54,796.918,1566.18Z"/><path class="c" d="M804.845,1565.729c.061.64-.149,1.183-.469,1.213s-.628-.463-.689-1.1.149-1.182.469-1.213S804.784,1565.09,804.845,1565.729Z"/><path class="c" d="M805.088,1590.73a.429.429,0,0,1-.424-.381,31.206,31.206,0,0,1-.25-5.133.422.422,0,0,1,.457-.393.429.429,0,0,1,.4.458,31.011,31.011,0,0,0,.247,4.976.427.427,0,0,1-.378.471Z"/><path class="c" d="M790.861,1592.789a.426.426,0,0,1-.423-.375,56.485,56.485,0,0,0-3.311-12.27c-.489-1.385-.995-2.817-1.471-4.287a.427.427,0,1,1,.812-.264c.473,1.46.976,2.887,1.464,4.267a57.132,57.132,0,0,1,3.353,12.451.427.427,0,0,1-.373.475A.433.433,0,0,1,790.861,1592.789Z"/><path class="c" d="M777.133,1566.336a.427.427,0,0,1-.416-.524c2.741-11.787,9.593-19.115,20.95-22.4,6.852-1.982,15.651.086,16.02.175a.426.426,0,0,1-.054.839,49.568,49.568,0,0,0-36.131,21.7A.427.427,0,0,1,777.133,1566.336Zm27.357-22.918a24.094,24.094,0,0,0-6.587.812c-10.243,2.965-16.715,9.317-19.722,19.384a50.912,50.912,0,0,1,32.687-19.686A43.147,43.147,0,0,0,804.49,1543.418Z"/><path class="c" d="M778.008,1566.654a3.492,3.492,0,0,1-.987-.11.427.427,0,1,1,.26-.813c.011,0,1.562.437,4.625-.914a.427.427,0,1,1,.345.781A10.674,10.674,0,0,1,778.008,1566.654Z"/><path class="c" d="M778.187,1561.436c-.043-.131-4.213-13.163,6.055-19.481,12.561-7.732,21.462.515,21.55.6l-.588.619c-.343-.325-8.525-7.869-20.515-.492-9.7,5.968-5.732,18.362-5.691,18.486Z"/><path class="c" d="M798.86,1605.156a.415.415,0,0,1-.165-.034c-.375-.158-9.192-3.886-10.958-5.945a.425.425,0,0,1-.066-.45l2.867-6.5a.427.427,0,0,1,.7-.121,18.506,18.506,0,0,0,7.732,4.563.428.428,0,0,1,.317.413v7.646a.424.424,0,0,1-.191.355A.418.418,0,0,1,798.86,1605.156Zm-10.294-6.344c1.706,1.65,7.914,4.42,9.868,5.269v-6.673a19.147,19.147,0,0,1-7.364-4.272Z"/><path class="c" d="M803.1,1604.145a.529.529,0,0,1-.058,0,.426.426,0,0,1-.3-.194l-4.24-6.635a.426.426,0,0,1,.131-.59c.049-.032,4.966-3.192,6.127-7.03a.427.427,0,0,1,.75-.132l3.1,4.133a.428.428,0,0,1,.074.352c-.063.27-1.577,6.651-5.3,9.99A.428.428,0,0,1,803.1,1604.145Zm-3.655-6.939,3.736,5.847c2.926-2.92,4.351-7.97,4.621-9.01l-2.5-3.338C803.955,1593.9,800.563,1596.436,799.446,1597.206Z"/><path class="a" d="M790.265,1553.074a.427.427,0,0,1-.11-.84,30.188,30.188,0,0,1,9.5-.955c.936.056,1.884.156,2.8.253a25.733,25.733,0,0,0,6.258.153c2.753-.39,5.809-2.077,6.432-4.965a.426.426,0,1,1,.833.18c-.708,3.29-4.1,5.2-7.145,5.631a26.427,26.427,0,0,1-6.468-.15c-.907-.1-1.844-.2-2.76-.25a29.331,29.331,0,0,0-9.236.929A.471.471,0,0,1,790.265,1553.074Z"/><path class="a" d="M796.425,1549.847a.427.427,0,0,1-.2-.8c2.618-1.391,5.611-1.641,8.452-1.779l.235-.011a16.4,16.4,0,0,0,3.742-.466,4.994,4.994,0,0,0,3.017-2.134.426.426,0,1,1,.738.427,5.83,5.83,0,0,1-3.518,2.527,17,17,0,0,1-3.938.5l-.234.011c-2.745.133-5.631.371-8.093,1.679A.415.415,0,0,1,796.425,1549.847Z"/><path class="a" d="M855.088,1616.2l27.023-43.907-29.591-11.657-24.4,36.223Z"/><path class="a" d="M874.28,1600.756s2.32-2.967,2.374-5.934-1.879-3.329-1.371-5.063.083-2.723-1.727-4.549-5.911-2.9-6.181-1.933,3.668,2.535,3.291,4.208c0,0-7.014.269-7.337,2.05l-.108,1.24s-1.4.648-1.079,1.4,7.5.654,7.5.654-1.192,4.687.373,6.09Z"/><path class="a" d="M860.706,1576.127c7.423,9.782.667,22.1-9.345,28.472s-19.717,3.526-24.745-4.376-.988-19.472,9.024-25.842S855.044,1568.667,860.706,1576.127Z"/><path class="e" d="M830.427,1603.775s12.563,5.189,24.58-7.647,4.36-20.861,4.36-20.861,10.661,7.341,1.512,20.314-19.254,13.11-24.99,12.154S830.427,1603.775,830.427,1603.775Z"/><path class="e" d="M828.046,1602.324a13.8,13.8,0,0,1-3.732-12.4c1.466-7.73,9.063-15.194,15.194-17.726s16.394-3.6,19.859,3.065c0,0-7.2-5.464-19.859,1.466S826.18,1596.859,828.046,1602.324Z"/><path class="c" d="M836.888,1605.486c-4.45,0-8.165-1.587-10.548-4.531-2.589-3.2-3.282-7.6-1.95-12.4a27.552,27.552,0,0,1,23.31-18.864c4.974-.3,9.135,1.3,11.724,4.494s3.282,7.6,1.951,12.4a27.551,27.551,0,0,1-23.31,18.865Q837.468,1605.486,836.888,1605.486Zm11.986-34.98c-.368,0-.743.011-1.122.034a26.7,26.7,0,0,0-22.54,18.24c-1.255,4.526-.619,8.659,1.792,11.639s6.326,4.461,11.009,4.179a26.7,26.7,0,0,0,22.539-18.241c1.256-4.525.62-8.658-1.791-11.638C856.545,1571.981,853.063,1570.506,848.874,1570.506Z"/><path class="c" d="M839.658,1608.538c-4.3,0-8.117-1.488-10.567-4.516-2.589-3.2-3.282-7.6-1.95-12.4A25.945,25.945,0,0,1,836,1578.737c9.121-7.381,20.861-8.049,26.171-1.488,2.59,3.2,3.282,7.6,1.95,12.4a25.944,25.944,0,0,1-8.863,12.881A25.483,25.483,0,0,1,839.658,1608.538Zm11.953-34.964a24.653,24.653,0,0,0-15.07,5.827,25.082,25.082,0,0,0-8.578,12.446c-1.255,4.526-.619,8.659,1.792,11.639,5.013,6.193,16.214,5.47,24.97-1.616a25.078,25.078,0,0,0,8.578-12.446c1.256-4.525.62-8.659-1.791-11.638C859.226,1574.961,855.652,1573.574,851.611,1573.574Z"/><path class="c" d="M833.008,1606.865l-8.917,10.1-.034.041-11.54,13.077-2.081-4.849-.925.482c.008-.041-.35.127-.342.086a4.131,4.131,0,0,0,.574-2.07c.582-.168.04-.773.006-.98l-.006-1.086,6.7-6.212.382-.4,11.914-12.038c.008,0,.058,0,.141.008a3.072,3.072,0,0,1,.631.133,4.113,4.113,0,0,1,1.42.73,6.38,6.38,0,0,1,1.96,2.69C832.933,1606.666,832.966,1606.765,833.008,1606.865Z"/><path class="e" d="M837.475,1596.44a3.471,3.471,0,0,1-1.464-.318,3.983,3.983,0,0,1-2.165-3.2,8.17,8.17,0,0,1,.3-2.892c.338-1.4.759-3.061,1.326-4.709a1.661,1.661,0,0,1,3.141,1.08c-.521,1.516-.918,3.078-1.239,4.406a5.279,5.279,0,0,0-.232,1.727.821.821,0,0,0,.255.569c.054.025.407.116,1.626-.727,5.686-3.932,11.257-8.176,16.558-12.615a1.66,1.66,0,1,1,2.132,2.546c-5.379,4.5-11.032,8.811-16.8,12.8A6.361,6.361,0,0,1,837.475,1596.44Z"/><path class="c" d="M837.475,1596.867a3.909,3.909,0,0,1-1.642-.357,4.409,4.409,0,0,1-2.411-3.536,8.556,8.556,0,0,1,.309-3.035c.344-1.423.769-3.094,1.341-4.754a2.087,2.087,0,1,1,3.947,1.357c-.515,1.5-.909,3.049-1.227,4.367a5.032,5.032,0,0,0-.224,1.576.836.836,0,0,0,.044.186,4.392,4.392,0,0,0,1.172-.644c5.678-3.928,11.239-8.164,16.526-12.591a2.087,2.087,0,1,1,2.68,3.2c-5.393,4.515-11.056,8.83-16.832,12.825A6.773,6.773,0,0,1,837.475,1596.867Zm-.432-12.239a1.236,1.236,0,0,0-1.164.834c-.559,1.627-.98,3.274-1.316,4.67a7.853,7.853,0,0,0-.293,2.742,3.553,3.553,0,0,0,1.919,2.86,3.069,3.069,0,0,0,1.286.279,6.014,6.014,0,0,0,3.2-1.253c5.756-3.981,11.4-8.28,16.771-12.779a1.233,1.233,0,0,0-.683-2.174,1.243,1.243,0,0,0-.9.283c-5.308,4.444-10.889,8.7-16.589,12.639-1,.69-1.668.937-2.049.763a1.159,1.159,0,0,1-.5-.907,5.607,5.607,0,0,1,.242-1.875c.323-1.338.724-2.913,1.25-4.446a1.232,1.232,0,0,0-.765-1.568A1.249,1.249,0,0,0,837.043,1584.628Z"/><path class="c" d="M846.729,1610.717a.426.426,0,0,1-.247-.079l-3.438-2.431a.427.427,0,0,1,.494-.7l3.438,2.431a.427.427,0,0,1-.247.776Z"/><path class="c" d="M855.088,1616.629a.428.428,0,0,1-.247-.078l-4.641-3.283a.427.427,0,1,1,.493-.7l4.27,3.021,13.884-22.474a.427.427,0,1,1,.727.449l-14.123,22.86a.428.428,0,0,1-.278.193A.417.417,0,0,1,855.088,1616.629Z"/><path class="c" d="M874.626,1584.884a.419.419,0,0,1-.223-.063.427.427,0,0,1-.14-.588l7.218-11.727-28.8-11.347-6.356,9.079a.426.426,0,1,1-.7-.489l6.547-9.355a.429.429,0,0,1,.507-.153l29.59,11.657a.427.427,0,0,1,.207.621l-7.484,12.162A.427.427,0,0,1,874.626,1584.884Z"/><path class="a" d="M824.859,1616.149c-.025,1.462-1.511,4.484-1.511,4.484a3.686,3.686,0,0,1-.05.382,10.206,10.206,0,0,1-.348,1.569,7.325,7.325,0,0,1-2.217,3.545c-.224.183-.474.382-.756.6a.383.383,0,0,1-.091.067c-1.794,1.37-4.509,3.271-6.144,4.408l-.9-1.37s-2.343-3.36-2.925-4.512a5.727,5.727,0,0,0,.409-.594,5.461,5.461,0,0,0-.24-2.059c-.059-.249-.117-.481-.15-.689a1.131,1.131,0,0,1,.058-.822,3.627,3.627,0,0,1,.374-.415l.008-.008c1.337-1.42,5.555-5.422,5.555-5.422a10.368,10.368,0,0,1,1.312-.714,2.255,2.255,0,0,1,1.037-.274.338.338,0,0,1,.357.291,1.287,1.287,0,0,1-.008.4,23.818,23.818,0,0,1-1.686,4.229c-.015.194.181.175.22-.165a40.576,40.576,0,0,1,3.832-2.3.4.4,0,0,0,.083-.041c1.669-.839,3.272-1.495,3.645-1.163a.194.194,0,0,1,.05.075,1.246,1.246,0,0,1,.067.208C824.851,1615.942,824.859,1616.042,824.859,1616.149Z"/><path class="c" d="M813.81,1631.764a.427.427,0,0,1-.246-.775c1.7-1.2,4.457-3.153,6.034-4.3a1.163,1.163,0,0,1,.106-.077c2.251-1.628,2.525-2.53,2.791-3.87l.043-.227c.054-.279.111-.574.183-.891.035-.157.08-.327.133-.5a18.8,18.8,0,0,1,.751-1.921,6.758,6.758,0,0,0,.827-2.812.678.678,0,0,0-.022-.144.428.428,0,0,1-.028-.112l-.016-.037c-.122-.039-.762-.084-3.111,1.242a.71.71,0,0,1-.158.074c-2.031,1.17-4.276,2.751-4.3,2.767a.427.427,0,0,1-.6-.583c.12-.183.232-.367.328-.534,1.391-2.285,1.662-3.326,1.645-3.8-.013-.266-.1-.314-.13-.333a.9.9,0,0,0-.434-.07c-.087.008-.176.015-.264.029-.8.122-2.29,1.708-3.61,3.108-.8.845-1.621,1.718-2.369,2.371a2.67,2.67,0,0,0-.637.79.368.368,0,0,1-.032.055,2.276,2.276,0,0,0-.248.912,3.751,3.751,0,0,0,.031.724c.03.258.077.508.121.747a4.472,4.472,0,0,1,.119,1.427,3.126,3.126,0,0,1-.322.79l-.038.08a.427.427,0,0,1-.78-.346l.045-.1c.073-.155.223-.47.256-.58a4.136,4.136,0,0,0-.118-1.118c-.049-.258-.1-.526-.13-.8a4.632,4.632,0,0,1-.036-.881,3.129,3.129,0,0,1,.365-1.3.287.287,0,0,1,.025-.041,3.521,3.521,0,0,1,.817-1.009c.718-.626,1.527-1.485,2.31-2.315,1.618-1.717,3.015-3.2,4.1-3.366.108-.017.217-.026.319-.035a1.653,1.653,0,0,1,.929.178,1.161,1.161,0,0,1,.562,1.039,7.06,7.06,0,0,1-1.13,3.181c.818-.538,1.853-1.2,2.86-1.771l.084-.043c3.072-1.733,3.841-1.5,4.192-1.052a.516.516,0,0,1,.118.2.769.769,0,0,1,.077.239,1.366,1.366,0,0,1,.059.322,7.166,7.166,0,0,1-.892,3.236,17.988,17.988,0,0,0-.719,1.834c-.047.149-.085.3-.116.435-.071.307-.126.593-.178.863l-.044.23c-.3,1.505-.672,2.621-3.067,4.356a1.324,1.324,0,0,1-.225.153c-1.52,1.111-4.276,3.065-5.984,4.269A.425.425,0,0,1,813.81,1631.764Zm10.524-15.745,0,.009Z"/><path class="c" d="M869.442,1598.864a.428.428,0,0,1-.416-.33,11.246,11.246,0,0,1,.064-5.22,22.89,22.89,0,0,1-6-.294,1.506,1.506,0,0,1-1.039-.556,1.17,1.17,0,0,1,.2-1.425,2.391,2.391,0,0,1,1.029-.564,32.262,32.262,0,0,1,5.088-1.125,4.6,4.6,0,0,1,1.995,0,4.69,4.69,0,0,1,2.546,2.7.427.427,0,1,1-.761.387c-.51-1-1.086-2-2.021-2.272a3.771,3.771,0,0,0-1.626.027,31.539,31.539,0,0,0-4.954,1.091,1.676,1.676,0,0,0-.681.346.348.348,0,0,0-.1.363c.073.113.356.164.477.186a22.03,22.03,0,0,0,6.356.228.415.415,0,0,1,.37.145.425.425,0,0,1,.089.387,10.837,10.837,0,0,0-.2,5.4.427.427,0,0,1-.319.512A.4.4,0,0,1,869.442,1598.864Z"/><path class="c" d="M863.5,1590.977a.816.816,0,0,1-.5-.18.967.967,0,0,1-.37-.709,1.389,1.389,0,0,1,.439-1.016,4.5,4.5,0,0,1,1.88-1.083,11.915,11.915,0,0,1,6.329-.46.427.427,0,0,1-.185.833,11.035,11.035,0,0,0-5.867.435,3.74,3.74,0,0,0-1.535.858.623.623,0,0,0-.209.393.121.121,0,0,0,.048.079.4.4,0,0,1,.482.333.44.44,0,0,1-.356.5A.787.787,0,0,1,863.5,1590.977Z"/><path class="c" d="M874.549,1601.059a.426.426,0,0,1-.327-.7,8.588,8.588,0,0,0,1.282-8.752l-.153-.339a3.993,3.993,0,0,1-.454-2.739,2.468,2.468,0,0,0-1.58-2.964,11.035,11.035,0,0,0-4.836-2.174,1.136,1.136,0,0,0-.675.08.555.555,0,0,0-.058.368l1.99,1.171a2.176,2.176,0,0,1,1.415,2.31,3.337,3.337,0,0,0,.019.53.426.426,0,1,1-.843.128,4.041,4.041,0,0,1-.03-.67,2.009,2.009,0,0,0-.071-.727,2.037,2.037,0,0,0-.928-.839l-2.045-1.224a.836.836,0,0,1-.371-.744,1.221,1.221,0,0,1,.46-1.021,1.884,1.884,0,0,1,1.221-.211,11.728,11.728,0,0,1,5.229,2.315,3.268,3.268,0,0,1,1.951,3.768,4.51,4.51,0,0,0-.039,1.079,4.434,4.434,0,0,0,.422,1.209l.16.356a9.459,9.459,0,0,1-1.413,9.639A.422.422,0,0,1,874.549,1601.059Z"/></g></svg>