<svg xmlns="http://www.w3.org/2000/svg" width="53.014" height="52.945" viewBox="0 0 53.014 52.945"><defs><style>.a{fill:#fff;}</style></defs><path class="a" d="M84.559,209.136l1.541-.608,1.216,3.082-1.541.608Zm0,0" transform="translate(-75.803 -186.936)"/><path class="a" d="M51.358,22.494v3.637L26.507,38.958,1.657,26.132V22.9l24.85-19.64,2.107,1.666,1.027-1.3L26.507,1.145,0,22.093V53.971H53.014V22.494ZM1.657,28,24.7,39.89,1.657,51.784ZM4.24,52.315,26.507,40.821,48.775,52.315Zm47.118-.531L28.313,39.89,51.358,28Zm0,0" transform="translate(0 -1.026)"/><path class="a" d="M113.987,52.4l-8.476,3.346,3.041,7.7,3.082-1.216,2.733,6.935,4.623-1.823-2.733-6.935.77-.3a18.124,18.124,0,0,1,13.616-.035l1.8.745-7.679-19.462-.809,1.772A18.123,18.123,0,0,1,113.987,52.4Zm-4.5,8.9-1.822-4.623,6.164-2.433,1.822,4.623Zm7.36,5.11-1.541.608-2.129-5.392,1.541-.608Zm12.674-8.5a19.838,19.838,0,0,0-12.318.378L115.352,53.6a19.846,19.846,0,0,0,9.256-8.137Zm0,0" transform="translate(-94.587 -37.07)"/><path class="a" d="M394.449,9.727a14.806,14.806,0,0,1-.186,11.41l1.52.663a16.583,16.583,0,0,0-8.6-21.8l-.663,1.519A14.811,14.811,0,0,1,394.449,9.727Zm0,0" transform="translate(-346.498)"/><path class="a" d="M372.694,51.015a9.876,9.876,0,0,1-.123,7.605l1.524.657a11.61,11.61,0,0,0-6.025-15.253l-.663,1.52A9.875,9.875,0,0,1,372.694,51.015Zm0,0" transform="translate(-329.364 -39.465)"/><path class="a" d="M350.88,96.113l1.52.663a6.636,6.636,0,0,0-3.441-8.721l-.663,1.52A4.976,4.976,0,0,1,350.88,96.113Zm0,0" transform="translate(-312.233 -78.937)"/></svg>