<svg xmlns="http://www.w3.org/2000/svg" xmlns:xlink="http://www.w3.org/1999/xlink" width="300.543" height="316.206" viewBox="0 0 300.543 316.206"><defs><style>.a,.t{fill:none;}.b{fill:#5ae4a7;}.c{clip-path:url(#a);}.d{opacity:0.3;}.d,.n{isolation:isolate;}.e{fill:#1a2e35;}.f{fill:#41b7bf;}.g{clip-path:url(#b);}.h{clip-path:url(#c);}.i{fill:#fff;}.j{opacity:0.2;}.k{fill:#757575;}.l{fill:#8cc63f;}.m{clip-path:url(#d);}.n{opacity:0.5;}.o{clip-path:url(#e);}.p{fill:#999;}.q{fill:#bfbfbf;}.r{fill:#fbcd5d;}.s{clip-path:url(#f);}.t{stroke:#1a2e35;stroke-miterlimit:10;stroke-width:5px;}</style><clipPath id="a"><path class="a" d="M318.429,403.279c-3.611-5.952-20.917-5.855-22.485-3.21,0,0,8.578,27.728,18.137,24.853S318.429,403.279,318.429,403.279Z"/></clipPath><clipPath id="b"><path class="a" d="M297.776,417.392a8.553,8.553,0,0,0-1.832,5.23c0,2.587,4.941,54.244,20.161,72.227,3.191,3.774,6.841,6.062,10.988,6.112,12.888.138,19.131-10.086,27.335-33.8q1.528-4.43,3.179-9.511c7.981-24.481,17.774-75.545,17.774-75.545s-17.388,4.033-27.7,14.253c-4.507,4.469-9.2,17.15-12.206,26.464-1.476,4.576-2.546,8.331-2.991,9.916-.138.526-.218.813-.218.813a23.335,23.335,0,0,0-1.823-4.627c-.009-.019-.009-.03-.021-.04a.325.325,0,0,1-.058-.118,56.626,56.626,0,0,0-8.172-11.246l-3.755-14.236s-1.33,2.6-7.332,3.516-15.157-6.727-15.157-6.727Z"/></clipPath><clipPath id="c"><path class="a" d="M443.913,534.084s2.193-17.3,3.531-22.956c6.019-25.442,27.221-84.39,23.8-101.833-3.514-17.926-25.005-33.612-59.69-35.335-32.169-1.6-58.692,9.8-65.034,23.055-6.053,12.653-5.8,99.972-4.27,139.374h88.366A43.742,43.742,0,0,0,443.913,534.084Z"/></clipPath><clipPath id="d"><rect class="a" width="60.752" height="30.085" transform="matrix(0.326, -0.945, 0.945, 0.326, 302.194, 375.993)"/></clipPath><clipPath id="e"><rect class="a" width="30.085" height="60.752" transform="matrix(0.966, -0.257, 0.257, 0.966, 279.219, 234.837)"/></clipPath><clipPath id="f"><path class="a" d="M365.4,389.281c-1.645-2.982-6.349-1.545-11.837,7.076s-7.727,18.679-6.4,22.341,19.074,8.1,19.074,8.1l3.658-9.275Z"/></clipPath></defs><g transform="translate(-207.149 -221.689)"><path class="b" d="M318.429,403.279c-3.611-5.952-20.917-5.855-22.485-3.21,0,0,8.578,27.728,18.137,24.853S318.429,403.279,318.429,403.279Z"/><g class="c"><path class="d" d="M318.429,403.279c-3.611-5.952-20.917-5.855-22.485-3.21,0,0,8.578,27.728,18.137,24.853S318.429,403.279,318.429,403.279Z"/></g><path class="e" d="M312.687,425.717c-9.311,0-16.966-24.379-17.306-25.474a.6.6,0,0,1,.056-.474c1.091-1.838,6.44-2.008,8.054-2.015h.173c5.623,0,12.927,1.362,15.267,5.22a.553.553,0,0,1,.064.148c.219.79,5.25,19.358-4.746,22.364A5.426,5.426,0,0,1,312.687,425.717ZM296.6,400.193c.958,2.958,8.923,26.7,17.311,24.165,8.6-2.587,4.317-19.536,3.972-20.844-2.006-3.174-8.535-4.584-14.216-4.584h-.17C299.8,398.948,297.309,399.566,296.6,400.193Z"/><path class="f" d="M297.776,417.392a8.553,8.553,0,0,0-1.832,5.23c0,2.587,4.941,54.244,20.161,72.227,3.191,3.774,6.841,6.062,10.988,6.112,12.888.138,19.131-10.086,27.335-33.8q1.528-4.43,3.179-9.511c7.981-24.481,17.774-75.545,17.774-75.545s-17.388,4.033-27.7,14.253c-4.507,4.469-9.2,17.15-12.206,26.464-1.476,4.576-2.546,8.331-2.991,9.916-.138.526-.218.813-.218.813a23.335,23.335,0,0,0-1.823-4.627c-.009-.019-.009-.03-.021-.04a.325.325,0,0,1-.058-.118,56.626,56.626,0,0,0-8.172-11.246l-3.755-14.236s-1.33,2.6-7.332,3.516-15.157-6.727-15.157-6.727Z"/><g class="g"><path class="d" d="M316.105,494.849c3.191,3.774,6.841,6.062,10.988,6.112,12.888.138,19.131-10.086,27.334-33.8l-.178-55.125a40.877,40.877,0,0,0-18.776,10.79c-1.476,4.576-2.546,8.331-2.991,9.916,3.626,7.55,9.947,24.908,2.7,43.406C330.47,488.141,322.773,493.015,316.105,494.849Z"/></g><path d="M327.355,501.638l-.269,0c-4.109-.048-7.976-2.185-11.5-6.351-15.921-18.812-20.321-72.177-20.321-72.663a9.28,9.28,0,0,1,1.808-5.426L295.1,398.482l1.279,1.068c.091.075,8.967,7.46,14.624,6.578,5.5-.843,6.823-3.141,6.835-3.164l.814-1.482,4.15,15.7a57.408,57.408,0,0,1,8.152,11.255l.114.231a23.258,23.258,0,0,1,1.145,2.548c.582-2.034,1.49-5.1,2.62-8.6,3.123-9.7,7.808-22.21,12.373-26.736,10.329-10.238,27.306-14.265,28.024-14.431l1.012-.235-.2,1.02c-.1.512-9.893,51.387-17.8,75.627q-1.648,5.086-3.183,9.522C347.049,490.553,340.832,501.637,327.355,501.638ZM296.784,401.586l1.693,16.009-.171.215a7.916,7.916,0,0,0-1.687,4.817c0,3.732,5.352,54.476,20,71.786,3.257,3.853,6.783,5.828,10.48,5.872h.245c12.669,0,18.638-10.787,26.443-33.35q1.525-4.422,3.176-9.5c7.247-22.227,16.1-67,17.55-74.414-3.853,1.043-17.725,5.253-26.36,13.811-3.411,3.382-7.685,12.683-12.039,26.191-1.41,4.374-2.473,8.074-2.982,9.891l-.874,3.162-.648-2.352a22.75,22.75,0,0,0-1.77-4.494l0,0a1.114,1.114,0,0,1-.1-.191,56.02,56.02,0,0,0-8.046-11.062l-.16-.289-3.431-13c-1.032.927-3.081,2.193-6.9,2.78C306.28,408.216,299.564,403.676,296.784,401.586Z"/><path class="e" d="M337.49,465.558a.59.59,0,0,1-.54-.823,22.634,22.634,0,0,0,1.245-14.219.588.588,0,0,1,1.143-.275A23.824,23.824,0,0,1,338.03,465.2.592.592,0,0,1,337.49,465.558Z"/><path class="e" d="M338.083,447.985a.587.587,0,0,1-.567-.436,54.987,54.987,0,0,0-5.759-13.7.588.588,0,1,1,1.013-.6,56.119,56.119,0,0,1,5.881,13.995.588.588,0,0,1-.415.72A.569.569,0,0,1,338.083,447.985Z"/><path class="e" d="M340.479,440.234a.589.589,0,0,1-.547-.373,9.7,9.7,0,0,0-6.327-5.747.588.588,0,1,1,.323-1.13,10.887,10.887,0,0,1,7.1,6.446.589.589,0,0,1-.548.8Z"/><path class="e" d="M315.457,422.011a.588.588,0,0,1-.28-1.1,16.921,16.921,0,0,0,3.174-2.232.588.588,0,1,1,.783.877,18.107,18.107,0,0,1-3.4,2.389A.592.592,0,0,1,315.457,422.011Z"/><path class="e" d="M309.565,423.534a17.144,17.144,0,0,1-12.222-5.74.588.588,0,0,1,.857-.8c3.181,3.4,8.966,6.711,14.8,4.844a.589.589,0,0,1,.36,1.121A12.424,12.424,0,0,1,309.565,423.534Z"/><path class="b" d="M330.352,428.776a.933.933,0,0,0,.068.108.344.344,0,0,1-.059-.118Z"/><path class="e" d="M330.421,429.473a.587.587,0,0,1-.462-.224l-.008-.01h0c-.018-.025-.1-.159-.117-.186a.59.59,0,0,1,.1-.694l.01-.009a.651.651,0,0,1,.835,1A.582.582,0,0,1,330.421,429.473Zm.356-.291h0Z"/><path class="f" d="M443.913,534.084s2.193-17.3,3.531-22.956c6.019-25.442,27.221-84.39,23.8-101.833-3.514-17.926-25.005-33.612-59.69-35.335-32.169-1.6-58.692,9.8-65.034,23.055-6.053,12.653-5.8,99.972-4.27,139.374h88.366A43.742,43.742,0,0,0,443.913,534.084Z"/><g class="h"><path class="d" d="M437.005,428.893c-16.662,22.841-34.827,57.022-34.827,57.022l-49.626-61.848s11.364,78.556,17.563,87.06,5.923,12.412,5.923,12.412,15.729,16.938,27.527,14.632c10.007-1.949,45.988-42.111,57.22-88.666Z"/></g><path d="M342.252,537.064h-.65l-.026-.649c-1.642-42.154-1.6-127.282,4.337-139.691,7.813-16.332,39.533-24.736,65.676-23.439,26.785,1.332,55.824,12.943,60.319,35.88,2.431,12.406-7.063,44.307-15.438,72.452-3.383,11.365-6.577,22.1-8.368,29.666-1.314,5.552-3.5,22.713-3.519,22.886l-.054.419-.4.136a44.336,44.336,0,0,1-13.5,2.34Zm.649-1.351h87.717a42.977,42.977,0,0,0,12.679-2.136c.351-2.742,2.26-17.407,3.491-22.605,1.8-7.6,5-18.356,8.386-29.74,7.919-26.61,17.775-59.727,15.409-71.807-4.355-22.221-32.8-33.485-59.061-34.791-25.707-1.274-56.82,6.85-64.391,22.673C341.32,409.456,341.29,493.457,342.9,535.713Z"/><path class="i" d="M425.562,377.453a55.9,55.9,0,0,1-36.016,1.271,34.209,34.209,0,0,0,2.421-10.689,6.011,6.011,0,0,0-2.421-5.633s.846-.927,2.28-2.4h.012c7.09-7.222,28.621-27.516,35.628-15.416C427.466,344.588,420.128,345.282,425.562,377.453Z"/><path class="e" d="M405.663,381.678a56.451,56.451,0,0,1-16.288-2.39.586.586,0,0,1-.375-.783A33.552,33.552,0,0,0,391.381,368a5.442,5.442,0,0,0-2.183-5.122.591.591,0,0,1-.087-.872s.852-.932,2.294-2.412a.629.629,0,0,1,.074-.064c6.13-6.233,21.225-20.392,30.706-19.224a7.571,7.571,0,0,1,5.789,3.988.588.588,0,0,1-.453.88c-.047.009-6.562,1.489-1.379,32.181a.591.591,0,0,1-.371.648A56.618,56.618,0,0,1,405.663,381.678Zm-15.335-3.336a55.62,55.62,0,0,0,34.572-1.27c-3.5-21.014-1.627-28.847.574-31.713a4.146,4.146,0,0,1,1.124-1.046,6.221,6.221,0,0,0-4.561-2.84c-9.166-1.181-25.128,14.2-29.78,18.943a.669.669,0,0,1-.071.062c-.8.819-1.408,1.462-1.782,1.862a6.593,6.593,0,0,1,2.146,5.771A34.593,34.593,0,0,1,390.328,378.342Z"/><path class="e" d="M406.007,355.042a19.5,19.5,0,0,1-14.04,12.993,6.011,6.011,0,0,0-2.421-5.633s.846-.927,2.281-2.4h.011C398.694,357.311,406.007,355.042,406.007,355.042Z"/><path class="i" d="M432.336,327.561c7.431-29.6-8.572-39.737-18.653-43.615-16.153-6.214-36.533.855-41.308,17.293s-.472,20.189-.7,26.919c-.156,4.718-3.284,7.042.165,18.883,2.281,7.813,6.5,16.775,11.433,17.062,13.34.775,25.97-6.824,25.274-10.39"/><path class="e" d="M385.182,364.746q-.966,0-1.939-.056c-6.475-.377-10.794-13.478-11.963-17.484-2.511-8.617-1.607-12.254-.809-15.461a16.883,16.883,0,0,0,.62-3.607,23.717,23.717,0,0,0-.664-5.658c-.878-4.392-1.971-9.861,1.384-21.406a26.747,26.747,0,0,1,14.225-16.408,35.234,35.234,0,0,1,27.858-1.269c17.977,6.916,24.552,22.237,19.012,44.306a.587.587,0,1,1-1.139-.285c5.372-21.409-.954-36.252-18.3-42.923a34.039,34.039,0,0,0-26.913,1.224A25.593,25.593,0,0,0,372.939,301.4c-3.273,11.268-2.256,16.357-1.36,20.847a24.958,24.958,0,0,1,.689,5.927,17.736,17.736,0,0,1-.655,3.851c-.761,3.064-1.626,6.537.8,14.849,2.193,7.51,6.363,16.375,10.9,16.638,10.541.613,20.581-4.072,23.743-7.693a2.73,2.73,0,0,0,.92-2,.588.588,0,1,1,1.155-.225,3.667,3.667,0,0,1-1.19,2.995C404.813,360.172,395.4,364.746,385.182,364.746Z"/><path class="e" d="M399.578,318.094a.589.589,0,0,1-.548-.373,6.977,6.977,0,0,0-8.445-4.1.588.588,0,1,1-.338-1.127,8.157,8.157,0,0,1,9.878,4.8.588.588,0,0,1-.332.763A.578.578,0,0,1,399.578,318.094Z"/><path class="e" d="M379.006,314.235a.581.581,0,0,1-.451-.212,6.518,6.518,0,0,0-4.337-2.627,5.719,5.719,0,0,0-3.725,1.137.588.588,0,0,1-.759-.9,6.616,6.616,0,0,1,4.571-1.412,7.611,7.611,0,0,1,5.152,3.046.588.588,0,0,1-.451.965Z"/><ellipse class="e" cx="1.48" cy="2.491" rx="1.48" ry="2.491" transform="translate(391.604 323.099)"/><path class="e" d="M374.556,324.224c0,1.376.663,2.491,1.482,2.491s1.481-1.115,1.481-2.491-.664-2.492-1.481-2.492S374.556,322.852,374.556,324.224Z"/><path class="i" d="M379.007,318.523a45.145,45.145,0,0,1,.511,8.2c-.411,1.34-5.049,5.526-5.232,7.387s3.879,3.739,3.879,3.739"/><path class="e" d="M378.165,338.434a.58.58,0,0,1-.246-.055c-.743-.342-4.432-2.164-4.217-4.331.123-1.264,1.719-3.114,3.261-4.9a16.545,16.545,0,0,0,1.971-2.536,45,45,0,0,0-.509-8,.588.588,0,0,1,1.162-.18,46,46,0,0,1,.52,8.3.686.686,0,0,1-.026.156,12,12,0,0,1-2.227,3.022c-1.222,1.416-2.895,3.356-2.983,4.25-.1.993,2.012,2.439,3.541,3.148a.588.588,0,0,1-.247,1.122Zm1.353-11.715h0Z"/><path class="e" d="M376.038,341.781s9.261,2.326,17.046,0c0,0-3.667,11.49-10.917,10.319-4.8-.775-3.58-8.3-3.58-8.3Z"/><path class="e" d="M401.573,296.465a12.244,12.244,0,0,0-9.157-1.395c-5.321,1.241-6.167,12.446-6.167,12.446a11.237,11.237,0,0,1-3.348-5.623l-1.677,4.808-4.443-4.181-1.486,5-1.765-3.61-3.421,6.651s-5.131-6.621-4.34-11.737c2.17-13.956,13.243-25.421,36.407-24.189,11.66.621,16.01,8.612,16.01,8.612s11.4-1.541,16.463,4.371c17.221,20.144,6.422,42.017-9.935,62.738l-5.606-19.75-5.427-.619a57.391,57.391,0,0,0,.034-6.082,30.629,30.629,0,0,0-2.011-7.637l-2.01.9.838-3.784-4.592,2.354s1.941-15.558,0-18.194A3.2,3.2,0,0,0,401.573,296.465Z"/><path class="i" d="M415.7,332.741s5.427-10.115,11.1-7.647,1.727,14.555-3.208,18.5-7.894,0-7.894,0"/><path class="e" d="M419.359,345.939a5.186,5.186,0,0,1-.659-.042,5.471,5.471,0,0,1-3.472-1.949.589.589,0,0,1,.941-.707,4.329,4.329,0,0,0,2.7,1.491,5.989,5.989,0,0,0,4.36-1.6c3.507-2.8,6.28-9.553,5.7-13.888a4.192,4.192,0,0,0-2.362-3.615c-5.107-2.214-10.3,7.29-10.35,7.386a.588.588,0,0,1-1.036-.556c.231-.433,5.77-10.567,11.854-7.908a5.349,5.349,0,0,1,3.06,4.538c.622,4.673-2.361,11.944-6.136,14.962A7.451,7.451,0,0,1,419.359,345.939Z"/><g class="j"><path class="i" d="M386.26,298.563h-.018a.59.59,0,0,1-.57-.606,14.473,14.473,0,0,1,4.671-9.518,10.052,10.052,0,0,1,7.524-2.834,10.566,10.566,0,0,1,9.171,6.468.588.588,0,0,1-1.087.451,9.388,9.388,0,0,0-8.153-5.745,9.035,9.035,0,0,0-6.662,2.53,13.212,13.212,0,0,0-4.287,8.683A.589.589,0,0,1,386.26,298.563Z"/><path class="i" d="M418.943,312.81a.592.592,0,0,1-.57-.736c.038-.14,3.58-14.046-.66-19.641a3.058,3.058,0,0,0-2.088-1.287c-2.045-.276-4.257,1.382-4.281,1.4a.588.588,0,0,1-.715-.934c.108-.081,2.615-1.983,5.152-1.631a4.233,4.233,0,0,1,2.871,1.743c4.582,6.048,1.015,20.053.861,20.646A.59.59,0,0,1,418.943,312.81Z"/><path class="i" d="M429.581,310.453h-.019a.589.589,0,0,1-.57-.607c.006-.135.394-13.5-3.5-18.883-3.7-5.113-7.833-2.652-8.007-2.545a.588.588,0,1,1-.617-1c.051-.033,5.254-3.126,9.578,2.859,4.129,5.708,3.742,19.045,3.723,19.61A.59.59,0,0,1,429.581,310.453Z"/><path class="i" d="M439.266,307.727a.588.588,0,0,1-.588-.571c-.449-15.955-8.227-19.414-8.305-19.447a.588.588,0,0,1,.457-1.084c.349.147,8.553,3.793,9.025,20.5a.589.589,0,0,1-.572.6Z"/><path class="i" d="M377.564,299.872a.609.609,0,0,1-.085-.007.59.59,0,0,1-.5-.667c.023-.144,2.274-14.4,16.178-17.07s18.691,5.155,18.888,5.489a.588.588,0,0,1-1.013.6c-.182-.3-4.6-7.427-17.653-4.93-13.072,2.5-15.216,15.949-15.234,16.085A.592.592,0,0,1,377.564,299.872Z"/><path class="i" d="M370.983,303.148a.589.589,0,0,1-.571-.45c-.928-3.823.529-9.168,3.711-13.618a25.111,25.111,0,0,1,18.547-10.231c16.859-1.54,22.513,6.027,22.745,6.35a.588.588,0,0,1-.954.688c-.053-.073-5.561-7.33-21.683-5.867a23.84,23.84,0,0,0-17.7,9.744c-2.947,4.12-4.363,9.206-3.526,12.658a.589.589,0,0,1-.432.71A.619.619,0,0,1,370.983,303.148Z"/></g><path class="k" d="M277.953,383.422s19.884-15.3,28.549-16.853,38.485,4.962,38.485,4.962v35.313s-18.656,2.048-27.029,8.171-37.213,7.111-37.213,7.111Z"/><path class="e" d="M280.744,422.715a.588.588,0,0,1-.586-.546l-2.791-38.705a.58.58,0,0,1,.228-.508c.817-.628,20.1-15.407,28.8-16.965,8.685-1.557,37.491,4.7,38.714,4.966a.588.588,0,0,1,.462.574v35.313a.588.588,0,0,1-.523.584c-.186.021-18.6,2.1-26.748,8.062-8.42,6.159-36.355,7.184-37.539,7.224ZM278.562,383.7l2.728,37.819c4.068-.18,28.828-1.5,36.32-6.975,7.715-5.641,23.636-7.833,26.789-8.22V372.006c-3.808-.812-29.923-6.268-37.792-4.857C298.7,368.564,280.889,381.929,278.562,383.7Z"/><path class="i" d="M296.615,372.483a54.158,54.158,0,0,1,1.157-6.978c.7-2.482,5.511-2.216,6.6-1.33a13.407,13.407,0,0,1,2.134,2.4s-1.67.486-2.134.64S303.437,376.358,296.615,372.483Z"/><path class="e" d="M299.683,374.039a6.932,6.932,0,0,1-3.359-1.044.588.588,0,0,1-.293-.569,54.9,54.9,0,0,1,1.167-7.054,3.171,3.171,0,0,1,2.3-2.112c1.9-.6,4.382-.246,5.243.459a14.1,14.1,0,0,1,2.247,2.525.588.588,0,0,1-.319.9s-1.265.368-1.891.562c-.043.144-.1.361-.145.547-.4,1.578-1.15,4.516-3.427,5.485A3.86,3.86,0,0,1,299.683,374.039Zm-2.442-1.885a4.143,4.143,0,0,0,3.5.5c1.741-.741,2.4-3.313,2.749-4.693.21-.829.3-1.171.69-1.3.251-.083.845-.261,1.346-.409a12.9,12.9,0,0,0-1.55-1.636,5.912,5.912,0,0,0-4.129-.234,2.036,2.036,0,0,0-1.513,1.284A53.448,53.448,0,0,0,297.241,372.154Z"/><rect class="l" width="60.752" height="30.085" transform="matrix(0.326, -0.945, 0.945, 0.326, 302.194, 375.993)"/><g class="m"><path class="n" d="M302.194,375.993l28.439,9.812,19.811-57.433-28.439-9.809Zm45.261-46.163-18.278,52.984-23.993-8.276,18.277-52.986Z"/><path class="n" d="M326.228,326.04l-2.446,7.093a1.519,1.519,0,0,1-1.927.951h-.005a1.52,1.52,0,0,1-.953-1.928l0-.007,2.448-7.092a1.521,1.521,0,0,1,1.933-.941h0A1.521,1.521,0,0,1,326.228,326.04Z"/><path class="n" d="M331.732,372.225l-2.448,7.092a1.521,1.521,0,0,1-1.928.952l0,0h0a1.52,1.52,0,0,1-.941-1.933h0l2.446-7.093a1.52,1.52,0,0,1,1.933-.94h0A1.521,1.521,0,0,1,331.732,372.225Z"/><path class="n" d="M317.409,349.118a9.424,9.424,0,1,0,11.983-5.832l-.011,0A9.421,9.421,0,0,0,317.409,349.118Zm13.859,4.088.7.243-.427,1.241-.7-.243a2.228,2.228,0,0,1-2.938.823l-.661-.228.494-1.435.76.262c.69.238,1.044.019,1.209-.461s.023-.873-.665-1.11-1.281-.133-2.433.61a3.577,3.577,0,0,1-3.42.684c-1.3-.447-1.939-1.27-1.807-2.412l-.717-.247.428-1.241.718.247a2.212,2.212,0,0,1,2.917-.813l.3.1-.494,1.433-.4-.137c-.688-.237-1.045-.053-1.213.43s0,.849.69,1.087,1.268.127,2.433-.612a3.6,3.6,0,0,1,3.42-.684,2.241,2.241,0,0,1,1.806,2.45Z"/></g><path class="e" d="M331.052,386.663l-29.717-10.251,20.252-58.71L351.3,327.954Zm-28-11.088,27.164,9.369,19.369-56.153-27.164-9.37Z"/><rect class="l" width="30.085" height="60.752" transform="matrix(0.966, -0.257, 0.257, 0.966, 279.219, 234.837)"/><g class="o"><path class="n" d="M308.287,227.116l-29.075,7.727,15.6,58.72,29.076-7.726Zm-11.8,63.565-14.4-54.17,24.528-6.518,14.4,54.16Z"/><path class="n" d="M316.221,281.975l-1.927-7.252a1.52,1.52,0,0,1,1.078-1.86h0a1.52,1.52,0,0,1,1.86,1.078h0l1.927,7.252a1.521,1.521,0,0,1-1.079,1.859h0A1.521,1.521,0,0,1,316.221,281.975Z"/><path class="n" d="M285.884,246.718l-1.922-7.25a1.521,1.521,0,0,1,1.078-1.86h0a1.519,1.519,0,0,1,1.86,1.077l1.927,7.252a1.521,1.521,0,0,1-1.078,1.86h0a1.52,1.52,0,0,1-1.864-1.071Z"/><path class="n" d="M310.666,257.9a9.424,9.424,0,1,0-6.687,11.53A9.423,9.423,0,0,0,310.666,257.9Zm-13.781,4.343-.719.19-.338-1.27.719-.19c-.071-1.174.64-1.967,1.978-2.322l.676-.179.38,1.466-.775.205c-.7.19-.874.57-.743,1.058s.466.736,1.171.55,1.14-.605,1.678-1.865c.663-1.535,1.33-2.181,2.47-2.482a2.226,2.226,0,0,1,2.851,1l.733-.19.337,1.268-.732.19c.066,1.159-.629,1.948-1.969,2.3l-.31.084-.389-1.467.408-.109c.7-.19.9-.539.761-1.034s-.474-.7-1.179-.516-1.123.6-1.676,1.864c-.678,1.539-1.33,2.181-2.47,2.482a2.24,2.24,0,0,1-2.862-1.025Z"/></g><path class="e" d="M294.346,294.378l-15.953-60.021,30.38-8.075L324.725,286.3Zm-14.3-59.062L295.3,292.724l27.771-7.38-15.259-57.408Z"/><path class="p" d="M277.953,383.422s28.84-9.721,36.594-11.115,30.44-.776,30.44-.776v35.313s-23.685,7.187-27.339,10.071-36.9,5.226-36.9,5.226Z"/><path class="e" d="M280.744,422.73a.588.588,0,0,1-.586-.546l-2.791-38.72a.589.589,0,0,1,.4-.6c1.178-.4,28.969-9.75,36.676-11.137,7.722-1.389,29.63-.809,30.562-.784a.589.589,0,0,1,.571.588v35.313a.587.587,0,0,1-.417.563c-.236.071-23.619,7.187-27.147,9.97-3.689,2.913-33.8,5.11-37.226,5.351Zm-2.171-38.9,2.715,37.679c9.61-.7,33.173-2.832,36-5.06,3.472-2.74,23.823-9.038,27.115-10.044v-34.3c-3.569-.082-22.827-.465-29.749.78C307.544,374.164,282.2,382.618,278.573,383.834Z"/><path class="e" d="M311.469,413.984a.581.581,0,0,1-.371-.133.587.587,0,0,1-.083-.827c3.713-4.548,4.274-11.247,4.817-17.724.232-2.755.451-5.358.9-7.781a.589.589,0,0,1,1.158.215c-.439,2.366-.657,4.94-.885,7.664-.558,6.657-1.136,13.54-5.081,18.37A.584.584,0,0,1,311.469,413.984Z"/><path class="e" d="M318.148,383.864a.619.619,0,0,1-.113-.011.588.588,0,0,1-.464-.691q.8-4.029,1.676-8.036a.58.58,0,0,1,.7-.448.589.589,0,0,1,.45.7q-.881,4-1.673,8.012A.587.587,0,0,1,318.148,383.864Z"/><path class="q" d="M348.529,258.091a6.462,6.462,0,1,1-6.461-6.461,6.462,6.462,0,0,1,6.461,6.461Z"/><path class="e" d="M342.068,265.141a7.049,7.049,0,1,1,7.048-7.049A7.057,7.057,0,0,1,342.068,265.141Zm0-12.923a5.873,5.873,0,1,0,5.872,5.874A5.881,5.881,0,0,0,342.068,252.218Z"/><path class="n" d="M345.676,262.113a5.4,5.4,0,1,0-7.632-.417h0A5.405,5.405,0,0,0,345.676,262.113Zm-5.807-5.912-.285-.318.56-.5.285.318a1.274,1.274,0,0,1,1.7.407l.268.3-.646.581-.308-.344c-.279-.309-.517-.3-.735-.1s-.253.429.026.741.605.424,1.389.38a2.054,2.054,0,0,1,1.9.614,1.275,1.275,0,0,1,.232,1.71l.29.323-.56.5-.291-.323a1.265,1.265,0,0,1-1.687-.407l-.124-.137.648-.579.162.19c.279.312.509.317.728.121s.235-.423-.044-.735-.6-.418-1.389-.38a2.06,2.06,0,0,1-1.9-.614,1.285,1.285,0,0,1-.22-1.752Z"/><path class="q" d="M287.94,331.865a6.461,6.461,0,1,1,7.816-4.734,6.461,6.461,0,0,1-7.816,4.734Z"/><path class="e" d="M289.48,332.64a7.109,7.109,0,0,1-1.682-.2h0a7.05,7.05,0,1,1,8.53-5.166A7.067,7.067,0,0,1,289.48,332.64Zm-1.4-1.346a5.872,5.872,0,1,0,2.8-11.406,5.872,5.872,0,0,0-2.8,11.406Z"/><path class="n" d="M284.713,328.135a5.4,5.4,0,1,0,2.225-7.313,5.406,5.406,0,0,0-2.225,7.313Zm7.126-4.229.38-.2.354.665-.38.2a1.278,1.278,0,0,1-.8,1.556l-.354.19-.41-.76.406-.217c.369-.19.415-.429.278-.688s-.357-.349-.726-.152-.557.485-.694,1.26a2.049,2.049,0,0,1-1.051,1.711,1.275,1.275,0,0,1-1.71-.19l-.38.2-.353-.665.38-.2a1.269,1.269,0,0,1,.8-1.545l.163-.085.409.76-.215.114c-.368.19-.429.418-.292.676s.357.331.726.135.549-.482.693-1.261a2.064,2.064,0,0,1,1.051-1.711,1.283,1.283,0,0,1,1.729.207Z"/><path class="r" d="M365.4,389.281c-1.645-2.982-6.349-1.545-11.837,7.076s-7.727,18.679-6.4,22.341,19.074,8.1,19.074,8.1l3.658-9.275Z"/><g class="s"><path class="n" d="M365.4,389.281c-1.645-2.982-6.349-1.545-11.837,7.076s-7.727,18.679-6.4,22.341,19.074,8.1,19.074,8.1l3.658-9.275Z"/></g><path d="M366.643,427.6l-.574-.144c-1.852-.463-18.137-4.638-19.545-8.526-1.426-3.931.833-14.084,6.465-22.933,3.569-5.608,7.236-8.807,10.085-8.807l.119,0a3.231,3.231,0,0,1,2.8,1.764l.076.221,4.522,28.425Zm-3.556-39.058c-.961,0-4.168.655-8.958,8.18-5.612,8.818-7.472,18.609-6.336,21.748.854,2.353,11.269,5.794,18.029,7.531l3.372-8.551-4.446-27.938a1.852,1.852,0,0,0-1.6-.969Z"/><path class="i" d="M372.9,407.33l-10.18-22.276s-6.634-9.5-7.942-13.112-15.9-6.435-19.193-6.435S328.8,371.4,328.8,371.4h6.855a13.642,13.642,0,0,1,2.879,4.3c.321,1.607-9.063,9.606-10.4,10.366a49.71,49.71,0,0,0-8.6,4.7c-3.729,2.761-12.13,4.916-13.694,7.39s-.458,2.946.665,3.516a9.713,9.713,0,0,0,3,.7,8.707,8.707,0,0,0,0,4.291c.67,1.475,4.577,1.34,4.577,1.34a2.661,2.661,0,0,0,2.091,2.364,18.229,18.229,0,0,1,3.36.891s8.069,1.364,11.689.6,14.6-6.619,17.293-6.374,10.11,17.483,10.11,17.483A17.974,17.974,0,0,0,372.9,407.33Z"/><path class="e" d="M358.618,423.554a.587.587,0,0,1-.54-.355c-3.5-8.136-8.177-17-9.624-17.131-1.4-.121-5.876,1.831-9.485,3.4a54.44,54.44,0,0,1-7.631,2.961c-3.692.781-11.577-.537-11.911-.592a18.84,18.84,0,0,0-3.357-.891,3.244,3.244,0,0,1-2.487-2.351c-1.247-.012-3.949-.211-4.621-1.69a9.387,9.387,0,0,1-.176-4.017,10.2,10.2,0,0,1-2.509-.677c-.778-.389-1.513-.76-1.741-1.584a3.619,3.619,0,0,1,.8-2.789c.965-1.527,3.862-2.769,7.215-4.207a36.329,36.329,0,0,0,6.625-3.341,50.348,50.348,0,0,1,8.726-4.771c1.563-.89,9.818-8.231,10.05-9.7a12.956,12.956,0,0,0-2.543-3.838H328.8a.589.589,0,0,1-.507-.888c.15-.252,3.7-6.18,7.288-6.18,2.973,0,18.268,2.741,19.746,6.822,1.267,3.5,7.805,12.881,7.872,12.976l10.231,22.369a.585.585,0,0,1,.05.309,18.5,18.5,0,0,1-14.748,16.147A.516.516,0,0,1,358.618,423.554Zm-10.274-18.666c.076,0,.149,0,.217.009,2.727.249,8.426,12.83,10.4,17.392a17.327,17.327,0,0,0,13.33-14.863L362.185,385.3c-.221-.3-6.642-9.515-7.961-13.156-1.129-3.118-14.957-6.046-18.64-6.046-2.045,0-4.449,2.879-5.705,4.714h5.779a.581.581,0,0,1,.417.175,14.117,14.117,0,0,1,3,4.483c.473,2.311-9.761,10.6-10.656,11.107a49.654,49.654,0,0,0-8.563,4.675,37.006,37.006,0,0,1-6.844,3.465c-2.908,1.247-5.914,2.536-6.685,3.754-.673,1.066-.731,1.593-.66,1.846.083.3.436.5,1.008.787a9.023,9.023,0,0,0,2.861.686.587.587,0,0,1,.529.731,8.161,8.161,0,0,0,0,4c.31.662,2.565.939,3.986.9a.582.582,0,0,1,.607.535,2.063,2.063,0,0,0,1.63,1.842,18.823,18.823,0,0,1,3.438.914h0c.062,0,7.916,1.308,11.364.573a54.376,54.376,0,0,0,7.406-2.889C342.632,406.592,346.548,404.888,348.344,404.888Z"/><path class="e" d="M309.5,402.96a.588.588,0,0,1-.124-1.163c4.914-1.063,10.35-2.445,10.94-2.918.705-.812,6.05-2.542,8.314-3.246a.588.588,0,1,1,.349,1.123c-3.478,1.082-7.349,2.472-7.8,2.924-.713.822-7.544,2.4-11.551,3.267A.587.587,0,0,1,309.5,402.96Z"/><path class="e" d="M314.079,408.591a.588.588,0,0,1-.117-1.164c.241-.05,5.962-1.214,8.022-1.482a82.727,82.727,0,0,0,10.328-4.1.589.589,0,0,1,.508,1.062,83.291,83.291,0,0,1-10.581,4.186c-2.122.285-7.984,1.478-8.044,1.49A.579.579,0,0,1,314.079,408.591Z"/><path class="e" d="M319.531,411.848a.588.588,0,0,1-.041-1.175,62.78,62.78,0,0,0,9.979-1.506c1.644-.771,6.59-2.333,6.8-2.4a.588.588,0,0,1,.352,1.123c-.05.015-5.083,1.6-6.772,2.384a62.918,62.918,0,0,1-10.277,1.572Z"/><path class="f" d="M442.72,397.515c-12.371,8.152-19.844,27.848-19.844,27.848l-19.311,35.916s-16.239-39.979-20.839-40.493L365.4,389.279s2.049,18.465-5.174,26.3-13.063,3.113-13.063,3.113l5.393,14.895,1.341,7.077s22.78,68.339,30.227,72.569,24.39,6.127,38.756-4.394,38.944-50.3,41.272-63.318"/><path d="M399.2,517.315c-6.479,0-12.02-1.563-15.416-3.491-7.585-4.308-29.6-70.142-30.534-72.943l-1.366-7.164-6.178-17.039,1.873,1.491c.219.176,5.463,4.206,12.142-3.043,6.93-7.52,5.02-25.591,5-25.773l-.373-3.376,18.834,34.243c4.8,2.018,16.885,30.749,20.463,39.477l18.632-34.654c.273-.732,7.657-19.914,20.069-28.093l.742,1.129c-12.042,7.936-19.51,27.328-19.584,27.523l-20.028,37.262-.54-1.33c-6.681-16.447-17.391-39.753-20.288-40.076l-.349-.039L366.288,392.3c.251,5.676.037,17.654-5.569,23.738-5.267,5.715-9.944,5.039-12.325,4.085l4.792,13.235,1.372,7.181c6.289,18.852,23.971,68.742,29.9,72.107,7.5,4.262,24.255,5.729,38.022-4.351,14.109-10.332,38.617-49.534,41.008-62.891l1.328.237c-2.423,13.546-27.249,53.281-41.538,63.744A40.52,40.52,0,0,1,399.2,517.315Z"/><path class="e" d="M375.749,426.1a.59.59,0,0,1-.49-.915,32.2,32.2,0,0,0,1.7-2.847.588.588,0,0,1,1.039.551,33.614,33.614,0,0,1-1.759,2.949A.589.589,0,0,1,375.749,426.1Z"/><path class="e" d="M361.155,435.445a.589.589,0,0,1-.069-1.173,18.972,18.972,0,0,0,12.393-6.705.588.588,0,0,1,.9.753,20.135,20.135,0,0,1-13.157,7.121C361.2,435.443,361.177,435.445,361.155,435.445Z"/><path class="e" d="M358.62,435.531H358.6a17.936,17.936,0,0,1-6.273-1.4.588.588,0,0,1,.457-1.083,16.8,16.8,0,0,0,5.864,1.3.588.588,0,0,1-.024,1.176Z"/><path class="e" d="M408.23,482.608a.576.576,0,0,1-.128-.014.588.588,0,0,1-.446-.7,17.335,17.335,0,0,0,.382-4.741.589.589,0,0,1,.553-.621.605.605,0,0,1,.62.554,18.413,18.413,0,0,1-.408,5.062A.584.584,0,0,1,408.23,482.608Z"/><path class="e" d="M408.3,474.746a.589.589,0,0,1-.579-.484,38.832,38.832,0,0,0-4.665-12.685.588.588,0,0,1,1.017-.592,40.068,40.068,0,0,1,4.806,13.069.589.589,0,0,1-.475.683A.616.616,0,0,1,408.3,474.746Z"/><path class="e" d="M414.244,468.3a.588.588,0,0,1-.456-.217,26.946,26.946,0,0,0-7.355-6.3.588.588,0,1,1,.594-1.015,28.162,28.162,0,0,1,7.674,6.568.589.589,0,0,1-.457.96Z"/><path class="e" d="M425.286,424.655a.589.589,0,0,1-.454-.962,24.014,24.014,0,0,1,19.976-8.7.588.588,0,0,1-.071,1.174,22.8,22.8,0,0,0-19,8.272A.591.591,0,0,1,425.286,424.655Z"/><path class="e" d="M454.76,446.667a10.723,10.723,0,0,1-4.853-1.162.588.588,0,0,1,.531-1.05,9.533,9.533,0,0,0,5.74.931.6.6,0,0,1,.668.5.589.589,0,0,1-.5.668A10.913,10.913,0,0,1,454.76,446.667Z"/><path class="e" d="M458.984,445.876a.588.588,0,0,1-.2-1.141c2.327-.844,7.956-3.843,9.951-13.451a.587.587,0,1,1,1.15.239c-2.113,10.189-8.188,13.407-10.7,14.318A.591.591,0,0,1,458.984,445.876Z"/><path class="e" d="M405.867,386.428c-5.421,0-11.584-.856-16.194-3.939a.588.588,0,0,1,.654-.978c9.717,6.5,27.447,2.484,27.625,2.444a.581.581,0,0,1,.707.44.588.588,0,0,1-.44.705A59.9,59.9,0,0,1,405.867,386.428Z"/><path class="e" d="M385.96,527.943a.6.6,0,0,1-.119-.012c-22.793-4.722-32.9-32.554-33-32.834a.588.588,0,0,1,1.109-.393c.1.274,9.987,27.489,32.125,32.075a.588.588,0,0,1-.119,1.164Z"/><path class="e" d="M415.456,536.411a.588.588,0,0,1-.31-1.088c1.425-.881,2.569-1.653,3.6-2.429a.588.588,0,0,1,.709.939c-1.062.8-2.233,1.59-3.688,2.49A.593.593,0,0,1,415.456,536.411Z"/><path class="e" d="M305.87,344.435a.588.588,0,0,1-.588-.588V319.452a.589.589,0,1,1,1.177,0v24.395A.589.589,0,0,1,305.87,344.435Z"/><path class="e" d="M305.87,315.16a.588.588,0,0,1-.588-.588v-9.758a.589.589,0,0,1,1.177,0v9.758A.589.589,0,0,1,305.87,315.16Z"/><path class="e" d="M305.87,301.5a.588.588,0,0,1-.588-.588V295.7a.589.589,0,0,1,1.177,0v5.221A.589.589,0,0,1,305.87,301.5Z"/><path class="e" d="M305.863,347.284a.588.588,0,0,1-.457-.219l-4.608-5.7a.587.587,0,1,1,.913-.738l4.152,5.135,4.148-5.135a.588.588,0,1,1,.916.738l-4.606,5.7A.592.592,0,0,1,305.863,347.284Z"/><path class="e" d="M329.968,271.017a.589.589,0,0,1-.588-.589V246.034a.588.588,0,1,1,1.176,0v24.394A.589.589,0,0,1,329.968,271.017Z"/><path class="e" d="M329.968,241.742a.588.588,0,0,1-.588-.588V231.4a.588.588,0,1,1,1.176,0v9.759A.588.588,0,0,1,329.968,241.742Z"/><path class="e" d="M329.968,228.086a.588.588,0,0,1-.588-.588v-5.221a.588.588,0,1,1,1.176,0V227.5A.588.588,0,0,1,329.968,228.086Z"/><path class="e" d="M329.966,273.865a.589.589,0,0,1-.458-.219l-4.606-5.7a.588.588,0,0,1,.916-.738l4.148,5.134,4.148-5.134a.589.589,0,0,1,.917.738l-4.606,5.7A.592.592,0,0,1,329.966,273.865Z"/><line class="t" x2="300.543" transform="translate(207.149 535.395)"/></g></svg>