<svg xmlns="http://www.w3.org/2000/svg" xmlns:xlink="http://www.w3.org/1999/xlink" width="156.516" height="158.272" viewBox="0 0 156.516 158.272"><defs><style>.a,.f,.h{fill:#fff;}.b{clip-path:url(#a);}.c{fill:#1a2e35;}.d{fill:#8cc63f;}.d,.e,.f,.g,.h{stroke:#1a2e35;}.d,.f,.g{stroke-miterlimit:10;}.e{fill:none;}.e,.h{stroke-linecap:round;stroke-linejoin:round;}.g{fill:#facc66;}</style><clipPath id="a"><circle class="a" cx="69.434" cy="69.434" r="69.434" transform="translate(1039.764 1540.925)"/></clipPath></defs><g transform="translate(-1027.026 -1521.521)"><circle class="a" cx="69.434" cy="69.434" r="69.434" transform="translate(1039.764 1540.925)"/><g class="b"><path class="c" d="M1096.235,1446.742a.512.512,0,0,1-.151-1l4.738-1.467a.512.512,0,1,1,.3.978l-4.738,1.467A.494.494,0,0,1,1096.235,1446.742Z"/><path class="c" d="M1062.3,1457.246a.512.512,0,0,1-.151-1l28.095-8.7a.512.512,0,1,1,.3.978l-28.095,8.7A.527.527,0,0,1,1062.3,1457.246Z"/><path class="c" d="M1091.766,1488.552h-.019l-25.782-.921a.512.512,0,0,1-.494-.529.5.5,0,0,1,.53-.494l25.783.921a.512.512,0,0,1-.018,1.023Z"/><path class="c" d="M1092.686,1527.226a.506.506,0,0,1-.157-.025l-5.341-1.723a.512.512,0,0,1,.314-.974l5.341,1.723a.512.512,0,0,1-.157,1Z"/><path class="c" d="M1083.1,1524.135a.506.506,0,0,1-.157-.025l-18.964-6.117a.512.512,0,0,1,.315-.975l18.964,6.118a.512.512,0,0,1-.158,1Z"/><path class="c" d="M1065.062,1471.057a.512.512,0,0,1-.067-1.019l13.812-1.842a.512.512,0,0,1,.135,1.015l-13.812,1.842A.518.518,0,0,1,1065.062,1471.057Z"/><path class="c" d="M1068.746,1536.433a.506.506,0,0,1-.324-.115l-10.129-8.287a.512.512,0,0,1,.648-.793l10.129,8.287a.512.512,0,0,1-.324.908Z"/><rect class="d" width="119.189" height="62.895" transform="translate(1080.036 1539.207) rotate(39.554)"/><path class="d" d="M1076.792,1551.467l-25.134,30.432a6.6,6.6,0,0,1-.031,8.368c-.083.1-.174.192-.262.287l74.566,61.586c.076-.1.149-.211.232-.312a6.6,6.6,0,0,1,9.292-.886l24.97-30.234a6.6,6.6,0,0,1-.886-9.291L1085,1549.856A6.6,6.6,0,0,1,1076.792,1551.467Z"/><path class="e" d="M1087.333,1592.628a20.908,20.908,0,0,0,33.367,23.4"/><path class="e" d="M1097.032,1581.968a20.835,20.835,0,0,0-6.448,5.227q-.3.366-.585.741"/><path class="e" d="M1125.681,1609.273a20.909,20.909,0,0,0-25.862-28.508"/><circle class="c" cx="19.151" cy="19.151" r="19.151" transform="translate(1079.617 1600.506) rotate(-45)"/><path class="f" d="M1094.852,1601.561a1.933,1.933,0,0,1,.811-2.109,2.64,2.64,0,0,1,1.081-.386,1.567,1.567,0,0,1,1.116.276,2.57,2.57,0,0,1,.862,1.1c.046.089.156.348.329.775s.33.79.472,1.088a7.964,7.964,0,0,0,.718,1.148,8.214,8.214,0,0,0,1.171,1.3,5.963,5.963,0,0,0,1.024.858,8.625,8.625,0,0,0,1.175.673,2.165,2.165,0,0,0,1.173.207,1.487,1.487,0,0,0,1.014-.571,1.335,1.335,0,0,0,.165-1.169,4.583,4.583,0,0,0-.864-1.708l-1.65-2.32q-.919-1.328-1.432-2.178a13.664,13.664,0,0,1-.927-1.851,4.7,4.7,0,0,1-.411-1.786,4.845,4.845,0,0,1,.33-1.666,6.317,6.317,0,0,1,1.088-1.8,5.044,5.044,0,0,1,4.8-1.873,11.083,11.083,0,0,1,6.028,3.247,13.273,13.273,0,0,1,1.578,1.7,13.522,13.522,0,0,1,.985,1.42q.306.537.731,1.431a2.259,2.259,0,0,1,.223,1.373,1.9,1.9,0,0,1-.52,1.083,2.587,2.587,0,0,1-.97.595,1.4,1.4,0,0,1-1.134-.1,2.622,2.622,0,0,1-1.007-.987,17.117,17.117,0,0,0-2.51-3.314q-.528-.488-1.169-.978a3.257,3.257,0,0,0-1.376-.633,1.076,1.076,0,0,0-1.117.318,1.318,1.318,0,0,0-.3,1.2,4.762,4.762,0,0,0,.913,1.633l1.673,2.261a24.552,24.552,0,0,1,1.594,2.466,8.643,8.643,0,0,1,.845,2.185,4.417,4.417,0,0,1-.025,2.189,6.554,6.554,0,0,1-4.421,4.321,6.585,6.585,0,0,1-3.877-.282,12.044,12.044,0,0,1-3.887-2.46A13.816,13.816,0,0,1,1094.852,1601.561Zm19.192-13.224a1.3,1.3,0,0,1,1-.534,1.377,1.377,0,0,1,.959.326,1.448,1.448,0,0,1,.482.9,1.29,1.29,0,0,1-.317,1.057l-3.2,3.872-2.12-1.751Zm-14.783,18.494,2.135,1.764-3.172,3.841a1.278,1.278,0,0,1-1.318.5,1.426,1.426,0,0,1-1.081-.866,1.273,1.273,0,0,1,.263-1.4Z"/><rect class="d" width="119.189" height="62.895" transform="matrix(0.671, 0.741, -0.741, 0.671, 1080.968, 1539.17)"/><path class="d" d="M1075.993,1550.835l-29.256,26.495a6.6,6.6,0,0,1-1.236,8.276c-.1.088-.2.165-.3.246l64.919,71.684c.09-.093.177-.187.274-.275a6.6,6.6,0,0,1,9.323.461l29.064-26.321a6.6,6.6,0,0,1,.462-9.323l-64.892-71.654A6.6,6.6,0,0,1,1075.993,1550.835Z"/><path class="e" d="M1080.495,1593.085a20.908,20.908,0,0,0,29.648,27.966"/><path class="e" d="M1091.628,1583.933a20.84,20.84,0,0,0-7.133,4.244q-.352.318-.686.649"/><path class="e" d="M1116.046,1615.081a20.91,20.91,0,0,0-21.486-31.937"/><circle class="c" cx="19.151" cy="19.151" r="19.151" transform="matrix(0.718, -0.696, 0.696, 0.718, 1071.446, 1603.267)"/><path class="f" d="M1086.648,1603.008a1.9,1.9,0,0,1,.257-1.2,1.878,1.878,0,0,1,.85-.769,2.625,2.625,0,0,1,1.125-.226,1.566,1.566,0,0,1,1.065.433,2.572,2.572,0,0,1,.7,1.213c.033.095.1.367.213.814s.213.829.311,1.144a7.977,7.977,0,0,0,.545,1.241,8.225,8.225,0,0,0,.972,1.459,5.981,5.981,0,0,0,.888,1,8.826,8.826,0,0,0,1.066.836,2.179,2.179,0,0,0,1.132.373,1.488,1.488,0,0,0,1.086-.419,1.335,1.335,0,0,0,.331-1.133,4.576,4.576,0,0,0-.609-1.815l-1.3-2.533q-.719-1.446-1.1-2.361a13.723,13.723,0,0,1-.651-1.965,4.7,4.7,0,0,1-.149-1.828,4.835,4.835,0,0,1,.566-1.6,6.339,6.339,0,0,1,1.336-1.627,5.047,5.047,0,0,1,5.024-1.162,11.094,11.094,0,0,1,5.5,4.082,13.21,13.21,0,0,1,1.316,1.913,13.537,13.537,0,0,1,.77,1.548q.225.574.517,1.521a2.258,2.258,0,0,1,.023,1.39,1.9,1.9,0,0,1-.67,1,2.571,2.571,0,0,1-1.045.449,1.4,1.4,0,0,1-1.109-.259,2.617,2.617,0,0,1-.854-1.122,17.128,17.128,0,0,0-2.007-3.64q-.452-.559-1.016-1.137a3.275,3.275,0,0,0-1.271-.825,1.074,1.074,0,0,0-1.15.155,1.314,1.314,0,0,0-.473,1.14,4.762,4.762,0,0,0,.668,1.747l1.331,2.479a24.67,24.67,0,0,1,1.222,2.67,8.6,8.6,0,0,1,.521,2.283,4.43,4.43,0,0,1-.339,2.163,6.553,6.553,0,0,1-5,3.639,6.582,6.582,0,0,1-3.8-.837,12.034,12.034,0,0,1-3.492-2.994A13.823,13.823,0,0,1,1086.648,1603.008Zm20.9-10.322a1.305,1.305,0,0,1,1.063-.385,1.38,1.38,0,0,1,.9.461,1.448,1.448,0,0,1,.347.962,1.287,1.287,0,0,1-.466,1l-3.722,3.371-1.846-2.038Zm-17.293,16.172,1.86,2.053-3.693,3.344a1.278,1.278,0,0,1-1.377.305,1.427,1.427,0,0,1-.944-1.013,1.273,1.273,0,0,1,.462-1.345Z"/><rect class="d" width="119.189" height="62.895" transform="matrix(0.495, 0.869, -0.869, 0.495, 1082.364, 1539.37)"/><path class="d" d="M1074.977,1549.679l-34.3,19.521a6.6,6.6,0,0,1-3,7.811c-.114.065-.231.118-.347.175l47.833,84.054c.108-.071.213-.145.327-.209a6.6,6.6,0,0,1,9,2.472l34.08-19.4a6.6,6.6,0,0,1,2.472-9l-47.814-84.019A6.6,6.6,0,0,1,1074.977,1549.679Z"/><path class="e" d="M1070.213,1591.9a20.908,20.908,0,0,0,22.879,33.728"/><path class="e" d="M1083.065,1585.379a20.841,20.841,0,0,0-7.884,2.6q-.413.235-.809.485"/><path class="e" d="M1100.149,1621.079a20.909,20.909,0,0,0-14.051-35.834"/><circle class="c" cx="19.151" cy="19.151" r="19.151" transform="matrix(0.66, -0.751, 0.751, 0.66, 1058.492, 1607.885)"/><path class="a" d="M1074.068,1602.92a1.9,1.9,0,0,1,.512-1.116,1.875,1.875,0,0,1,.995-.567,2.635,2.635,0,0,1,1.148.023,1.571,1.571,0,0,1,.946.655,2.561,2.561,0,0,1,.415,1.334c.012.1.022.381.032.841s.028.856.055,1.184a7.979,7.979,0,0,0,.263,1.329,8.273,8.273,0,0,0,.632,1.635,5.956,5.956,0,0,0,.652,1.165,8.574,8.574,0,0,0,.86,1.047,2.17,2.17,0,0,0,1.023.61,1.487,1.487,0,0,0,1.151-.173,1.337,1.337,0,0,0,.569-1.035,4.592,4.592,0,0,0-.2-1.9l-.719-2.755q-.387-1.567-.565-2.544a13.791,13.791,0,0,1-.209-2.06,4.684,4.684,0,0,1,.251-1.816,4.82,4.82,0,0,1,.9-1.44,6.342,6.342,0,0,1,1.658-1.3,5.045,5.045,0,0,1,5.155-.045,11.085,11.085,0,0,1,4.482,5.176,13.234,13.234,0,0,1,.87,2.153,13.547,13.547,0,0,1,.416,1.678q.094.611.175,1.6a2.259,2.259,0,0,1-.279,1.363,1.9,1.9,0,0,1-.87.827,2.557,2.557,0,0,1-1.118.212,1.4,1.4,0,0,1-1.026-.493,2.624,2.624,0,0,1-.591-1.28,17.157,17.157,0,0,0-1.169-3.989q-.321-.643-.746-1.33a3.26,3.26,0,0,0-1.062-1.081,1.071,1.071,0,0,0-1.156-.1,1.316,1.316,0,0,0-.709,1.01,4.758,4.758,0,0,0,.274,1.851l.761,2.708a24.339,24.339,0,0,1,.614,2.872,8.632,8.632,0,0,1,.014,2.342,4.428,4.428,0,0,1-.8,2.037,6.551,6.551,0,0,1-5.669,2.469,6.584,6.584,0,0,1-3.524-1.64,12.044,12.044,0,0,1-2.759-3.68A13.825,13.825,0,0,1,1074.068,1602.92Zm22.638-5.545a1.306,1.306,0,0,1,1.121-.146,1.375,1.375,0,0,1,.78.646,1.448,1.448,0,0,1,.131,1.015,1.292,1.292,0,0,1-.672.875l-4.364,2.483-1.36-2.39Zm-20.388,12.037,1.37,2.408-4.329,2.464a1.28,1.28,0,0,1-1.41,0,1.429,1.429,0,0,1-.7-1.194,1.276,1.276,0,0,1,.743-1.214Z"/><circle class="g" cx="18.383" cy="18.383" r="18.383" transform="matrix(0.985, -0.173, 0.173, 0.985, 1110.187, 1553.816)"/><circle class="g" cx="18.383" cy="18.383" r="18.383" transform="translate(1110.187 1551.357) rotate(-9.94)"/><path class="h" d="M1144.787,1574.463a15.626,15.626,0,1,0-21.491,5.147A15.626,15.626,0,0,0,1144.787,1574.463Z"/><path class="c" d="M1122.392,1568.365a1.46,1.46,0,0,1-.069-.943,1.443,1.443,0,0,1,.461-.753,2.027,2.027,0,0,1,.784-.411,1.207,1.207,0,0,1,.881.091,1.972,1.972,0,0,1,.776.746c.045.063.157.249.334.556s.337.567.477.779a6.114,6.114,0,0,0,.672.8,6.317,6.317,0,0,0,1.034.868,4.564,4.564,0,0,0,.873.545,6.737,6.737,0,0,0,.969.387,1.683,1.683,0,0,0,.918.032,1.146,1.146,0,0,0,.712-.545,1.03,1.03,0,0,0,0-.91,3.529,3.529,0,0,0-.843-1.21l-1.509-1.593q-.845-.914-1.327-1.507a10.817,10.817,0,0,1-.906-1.313,3.611,3.611,0,0,1-.505-1.319,3.732,3.732,0,0,1,.072-1.307,4.88,4.88,0,0,1,.636-1.492,3.887,3.887,0,0,1,3.464-1.946,8.54,8.54,0,0,1,4.949,1.829,10.193,10.193,0,0,1,1.387,1.13,10.449,10.449,0,0,1,.9.978q.291.378.712,1.013a1.742,1.742,0,0,1,.317,1.024,1.459,1.459,0,0,1-.28.882,1.966,1.966,0,0,1-.675.558,1.073,1.073,0,0,1-.876.048,2.015,2.015,0,0,1-.875-.644,13.17,13.17,0,0,0-2.272-2.259q-.454-.315-1-.621a2.53,2.53,0,0,0-1.118-.335.83.83,0,0,0-.818.364,1.017,1.017,0,0,0-.1.945,3.669,3.669,0,0,0,.873,1.148l1.52,1.545a18.829,18.829,0,0,1,1.481,1.711,6.633,6.633,0,0,1,.88,1.576,3.413,3.413,0,0,1,.217,1.673,5.056,5.056,0,0,1-2.909,3.772,5.087,5.087,0,0,1-2.989.2,9.3,9.3,0,0,1-3.23-1.46A10.652,10.652,0,0,1,1122.392,1568.365Zm13.222-12.154a1,1,0,0,1,.7-.515,1.058,1.058,0,0,1,.766.146,1.111,1.111,0,0,1,.465.636.992.992,0,0,1-.128.841l-2.023,3.3-1.806-1.108Zm-9.291,15.7,1.819,1.116-2.007,3.272a.985.985,0,0,1-.952.524,1.1,1.1,0,0,1-.918-.545.982.982,0,0,1,.051-1.1Z"/><line class="e" y2="2.327" transform="translate(1116.272 1576.584)"/><line class="e" y2="2.464" transform="translate(1117.915 1578.911)"/><line class="e" y2="2.327" transform="translate(1121.2 1581.649)"/><line class="e" y2="2.053" transform="translate(1125.854 1583.975)"/><line class="e" y2="0.958" transform="translate(1130.918 1584.934)"/><line class="e" y1="1.506" transform="translate(1140.91 1583.017)"/><line class="e" y1="2.327" transform="translate(1143.1 1580.69)"/><circle class="g" cx="18.383" cy="18.383" r="18.383" transform="translate(1109.701 1550.756) rotate(-11.85)"/><circle class="g" cx="18.383" cy="18.383" r="18.383" transform="translate(1109.701 1548.297) rotate(-11.85)"/><circle class="h" cx="15.626" cy="15.626" r="15.626" transform="matrix(0.973, -0.231, 0.231, 0.973, 1112.651, 1550.925)"/><path class="c" d="M1122.392,1564.588a1.463,1.463,0,0,1-.069-.944,1.443,1.443,0,0,1,.461-.753,2.054,2.054,0,0,1,.784-.411,1.207,1.207,0,0,1,.881.091,1.972,1.972,0,0,1,.776.746c.045.064.157.249.334.557s.337.566.477.779a6.182,6.182,0,0,0,.672.8,6.378,6.378,0,0,0,1.034.869,4.61,4.61,0,0,0,.873.544,6.76,6.76,0,0,0,.969.388,1.683,1.683,0,0,0,.918.031,1.147,1.147,0,0,0,.712-.545,1.031,1.031,0,0,0,0-.91,3.529,3.529,0,0,0-.843-1.21l-1.509-1.592q-.845-.915-1.327-1.508a10.741,10.741,0,0,1-.906-1.313,3.611,3.611,0,0,1-.505-1.319,3.726,3.726,0,0,1,.072-1.306,4.884,4.884,0,0,1,.636-1.493,3.889,3.889,0,0,1,3.464-1.946,8.549,8.549,0,0,1,4.949,1.829,11.119,11.119,0,0,1,2.291,2.109q.291.377.712,1.013a1.739,1.739,0,0,1,.317,1.023,1.457,1.457,0,0,1-.28.882,1.981,1.981,0,0,1-.675.559,1.081,1.081,0,0,1-.876.048,2.027,2.027,0,0,1-.875-.645,13.2,13.2,0,0,0-2.272-2.258c-.3-.211-.635-.417-1-.621a2.5,2.5,0,0,0-1.118-.335.827.827,0,0,0-.818.363,1.018,1.018,0,0,0-.1.946,3.669,3.669,0,0,0,.873,1.147l1.52,1.546a18.684,18.684,0,0,1,1.481,1.71,6.633,6.633,0,0,1,.88,1.576,3.413,3.413,0,0,1,.217,1.673,5.055,5.055,0,0,1-2.909,3.773,5.087,5.087,0,0,1-2.989.2,9.294,9.294,0,0,1-3.23-1.459A10.658,10.658,0,0,1,1122.392,1564.588Zm13.222-12.155a1.007,1.007,0,0,1,.7-.515,1.063,1.063,0,0,1,.766.146,1.114,1.114,0,0,1,.465.637.989.989,0,0,1-.128.84l-2.023,3.3-1.806-1.108Zm-9.291,15.7,1.819,1.116-2.007,3.272a.983.983,0,0,1-.952.524,1.1,1.1,0,0,1-.918-.545.981.981,0,0,1,.051-1.095Z"/><line class="e" y2="2.327" transform="translate(1116.272 1572.806)"/><line class="e" y2="2.464" transform="translate(1117.915 1575.133)"/><line class="e" y2="2.327" transform="translate(1121.2 1577.871)"/><line class="e" y2="2.053" transform="translate(1125.854 1580.198)"/><line class="e" y2="0.958" transform="translate(1130.918 1581.156)"/><line class="e" y1="1.506" transform="translate(1140.91 1579.24)"/><line class="e" y1="2.327" transform="translate(1143.1 1576.913)"/><circle class="g" cx="18.383" cy="18.383" r="18.383" transform="translate(1106.076 1566.75) rotate(-57.402)"/><circle class="g" cx="18.383" cy="18.383" r="18.383" transform="translate(1106.076 1564.291) rotate(-57.402)"/><circle class="h" cx="15.626" cy="15.626" r="15.626" transform="translate(1111.639 1568.463) rotate(-71.196)"/><path class="c" d="M1122.392,1560.782a1.463,1.463,0,0,1-.069-.944,1.439,1.439,0,0,1,.461-.752,2.025,2.025,0,0,1,.784-.411,1.212,1.212,0,0,1,.881.09,1.979,1.979,0,0,1,.776.746c.045.064.157.25.334.557s.337.567.477.779a6.125,6.125,0,0,0,.672.8,6.323,6.323,0,0,0,1.034.869,4.562,4.562,0,0,0,.873.544,6.635,6.635,0,0,0,.969.388,1.674,1.674,0,0,0,.918.031,1.145,1.145,0,0,0,.712-.544,1.03,1.03,0,0,0,0-.91,3.532,3.532,0,0,0-.843-1.211l-1.509-1.592q-.845-.915-1.327-1.508a10.728,10.728,0,0,1-.906-1.312,3.617,3.617,0,0,1-.505-1.319,3.732,3.732,0,0,1,.072-1.307,4.88,4.88,0,0,1,.636-1.492,3.889,3.889,0,0,1,3.464-1.947,8.549,8.549,0,0,1,4.949,1.83,10.112,10.112,0,0,1,1.387,1.13,10.449,10.449,0,0,1,.9.978q.291.376.712,1.013a1.74,1.74,0,0,1,.317,1.024,1.462,1.462,0,0,1-.28.882,1.988,1.988,0,0,1-.675.558,1.081,1.081,0,0,1-.876.048,2.018,2.018,0,0,1-.875-.645,13.2,13.2,0,0,0-2.272-2.258q-.454-.315-1-.621a2.517,2.517,0,0,0-1.118-.335.831.831,0,0,0-.818.363,1.019,1.019,0,0,0-.1.946,3.669,3.669,0,0,0,.873,1.148l1.52,1.545a18.829,18.829,0,0,1,1.481,1.711,6.608,6.608,0,0,1,.88,1.575,3.416,3.416,0,0,1,.217,1.673,5.055,5.055,0,0,1-2.909,3.773,5.079,5.079,0,0,1-2.989.2,9.292,9.292,0,0,1-3.23-1.459A10.657,10.657,0,0,1,1122.392,1560.782Zm13.222-12.155a1.006,1.006,0,0,1,.7-.514,1.057,1.057,0,0,1,.766.145,1.113,1.113,0,0,1,.465.637.989.989,0,0,1-.128.84l-2.023,3.3-1.806-1.108Zm-9.291,15.7,1.819,1.116-2.007,3.272a.985.985,0,0,1-.952.524,1.1,1.1,0,0,1-.918-.545.982.982,0,0,1,.051-1.1Z"/><line class="e" y2="2.327" transform="translate(1116.272 1569.001)"/><line class="e" y2="2.464" transform="translate(1117.915 1571.328)"/><line class="e" y2="2.327" transform="translate(1121.2 1574.065)"/><line class="e" y2="2.053" transform="translate(1125.854 1576.392)"/><line class="e" y2="0.958" transform="translate(1130.918 1577.35)"/><line class="e" y1="1.506" transform="translate(1140.91 1575.434)"/><line class="e" y1="2.327" transform="translate(1143.1 1573.107)"/><circle class="g" cx="18.383" cy="18.383" r="18.383" transform="matrix(0.985, -0.173, 0.173, 0.985, 1110.187, 1542.804)"/><circle class="g" cx="18.383" cy="18.383" r="18.383" transform="translate(1110.285 1540.207) rotate(-9.568)"/><circle class="h" cx="15.626" cy="15.626" r="15.626" transform="translate(1111.639 1565.034) rotate(-71.196)"/><path class="c" d="M1122.392,1557.353a1.463,1.463,0,0,1-.069-.944,1.436,1.436,0,0,1,.461-.752,2.027,2.027,0,0,1,.784-.411,1.2,1.2,0,0,1,.881.09,1.972,1.972,0,0,1,.776.746c.045.064.157.249.334.557s.337.567.477.779a6.116,6.116,0,0,0,.672.8,6.378,6.378,0,0,0,1.034.869,4.562,4.562,0,0,0,.873.544,6.745,6.745,0,0,0,.969.388,1.68,1.68,0,0,0,.918.031,1.146,1.146,0,0,0,.712-.545,1.029,1.029,0,0,0,0-.909,3.532,3.532,0,0,0-.843-1.211l-1.509-1.592q-.845-.915-1.327-1.508a10.742,10.742,0,0,1-.906-1.313,3.61,3.61,0,0,1-.505-1.319,3.726,3.726,0,0,1,.072-1.306,4.884,4.884,0,0,1,.636-1.493,3.889,3.889,0,0,1,3.464-1.946,8.549,8.549,0,0,1,4.949,1.829,10.2,10.2,0,0,1,1.387,1.131,10.342,10.342,0,0,1,.9.978q.291.376.712,1.013a1.739,1.739,0,0,1,.317,1.023,1.457,1.457,0,0,1-.28.882,1.98,1.98,0,0,1-.675.559,1.081,1.081,0,0,1-.876.048,2.027,2.027,0,0,1-.875-.645,13.2,13.2,0,0,0-2.272-2.258q-.454-.315-1-.621a2.517,2.517,0,0,0-1.118-.335.827.827,0,0,0-.818.363,1.018,1.018,0,0,0-.1.946,3.668,3.668,0,0,0,.873,1.147l1.52,1.546a18.7,18.7,0,0,1,1.481,1.71,6.632,6.632,0,0,1,.88,1.576,3.414,3.414,0,0,1,.217,1.673,5.055,5.055,0,0,1-2.909,3.773,5.087,5.087,0,0,1-2.989.2,9.294,9.294,0,0,1-3.23-1.459A10.658,10.658,0,0,1,1122.392,1557.353Zm13.222-12.155a1.007,1.007,0,0,1,.7-.515,1.063,1.063,0,0,1,.766.146,1.114,1.114,0,0,1,.465.637.989.989,0,0,1-.128.84l-2.023,3.3-1.806-1.108Zm-9.291,15.7,1.819,1.117-2.007,3.272a.984.984,0,0,1-.952.523,1.1,1.1,0,0,1-.918-.545.981.981,0,0,1,.051-1.095Z"/><line class="e" y2="2.327" transform="translate(1116.272 1565.571)"/><line class="e" y2="2.464" transform="translate(1117.915 1567.898)"/><line class="e" y2="2.327" transform="translate(1121.2 1570.636)"/><line class="e" y2="2.053" transform="translate(1125.854 1572.963)"/><line class="e" y2="0.958" transform="translate(1130.918 1573.921)"/><line class="e" y1="1.506" transform="translate(1140.91 1572.005)"/><line class="e" y1="2.327" transform="translate(1143.1 1569.678)"/><circle class="g" cx="18.383" cy="18.383" r="18.383" transform="matrix(0.985, -0.173, 0.173, 0.985, 1110.187, 1539.374)"/><circle class="g" cx="18.383" cy="18.383" r="18.383" transform="translate(1110.187 1536.915) rotate(-9.94)"/><circle class="h" cx="15.626" cy="15.626" r="15.626" transform="translate(1111.639 1561.605) rotate(-71.196)"/><path class="c" d="M1122.392,1553.923a1.46,1.46,0,0,1-.069-.943,1.442,1.442,0,0,1,.461-.753,2.054,2.054,0,0,1,.784-.411,1.207,1.207,0,0,1,.881.091,1.972,1.972,0,0,1,.776.746c.045.064.157.249.334.556s.337.567.477.779a6.114,6.114,0,0,0,.672.8,6.317,6.317,0,0,0,1.034.868,4.564,4.564,0,0,0,.873.545,6.624,6.624,0,0,0,.969.387,1.673,1.673,0,0,0,.918.032,1.146,1.146,0,0,0,.712-.545,1.03,1.03,0,0,0,0-.91,3.529,3.529,0,0,0-.843-1.21l-1.509-1.593q-.845-.914-1.327-1.507a10.741,10.741,0,0,1-.906-1.313,3.61,3.61,0,0,1-.505-1.319,3.733,3.733,0,0,1,.072-1.307,4.89,4.89,0,0,1,.636-1.492,3.887,3.887,0,0,1,3.464-1.946,8.54,8.54,0,0,1,4.949,1.829,10.267,10.267,0,0,1,1.387,1.13,10.449,10.449,0,0,1,.9.978q.291.378.712,1.014a1.737,1.737,0,0,1,.317,1.023,1.459,1.459,0,0,1-.28.882,1.964,1.964,0,0,1-.675.558,1.073,1.073,0,0,1-.876.048,2.015,2.015,0,0,1-.875-.644,13.205,13.205,0,0,0-2.272-2.259q-.454-.315-1-.62a2.5,2.5,0,0,0-1.118-.335.827.827,0,0,0-.818.363,1.018,1.018,0,0,0-.1.946,3.668,3.668,0,0,0,.873,1.147l1.52,1.545a18.829,18.829,0,0,1,1.481,1.711,6.633,6.633,0,0,1,.88,1.576,3.413,3.413,0,0,1,.217,1.673,5.055,5.055,0,0,1-2.909,3.773,5.086,5.086,0,0,1-2.989.2,9.3,9.3,0,0,1-3.23-1.46A10.646,10.646,0,0,1,1122.392,1553.923Zm13.222-12.154a1,1,0,0,1,.7-.515,1.058,1.058,0,0,1,.766.146,1.113,1.113,0,0,1,.465.637.99.99,0,0,1-.128.84l-2.023,3.3-1.806-1.108Zm-9.291,15.7,1.819,1.116-2.007,3.272a.985.985,0,0,1-.952.524,1.1,1.1,0,0,1-.918-.545.982.982,0,0,1,.051-1.1Z"/><line class="e" y2="2.327" transform="translate(1116.272 1562.142)"/><line class="e" y2="2.464" transform="translate(1117.915 1564.469)"/><line class="e" y2="2.327" transform="translate(1121.2 1567.207)"/><line class="e" y2="2.053" transform="translate(1125.854 1569.534)"/><line class="e" y2="0.958" transform="translate(1130.918 1570.492)"/><line class="e" y1="1.506" transform="translate(1140.91 1568.575)"/><line class="e" y1="2.327" transform="translate(1143.1 1566.249)"/><circle class="g" cx="18.383" cy="18.383" r="18.383" transform="matrix(0.985, -0.173, 0.173, 0.985, 1110.187, 1535.945)"/><circle class="g" cx="18.383" cy="18.383" r="18.383" transform="translate(1110.187 1533.486) rotate(-9.94)"/><path class="g" d="M1130.6,1564.025a15.628,15.628,0,0,0,9.038-28.924c-.122-.075-.246-.149-.37-.22"/><path class="h" d="M1123.3,1561.739a15.582,15.582,0,0,0,5.885,2.143"/><path class="g" d="M1137.755,1534.113a15.628,15.628,0,0,0-16.515,26.124"/><path class="c" d="M1122.392,1550.494a1.46,1.46,0,0,1-.069-.943,1.443,1.443,0,0,1,.461-.753,2.027,2.027,0,0,1,.784-.411,1.212,1.212,0,0,1,.881.09,1.982,1.982,0,0,1,.776.747c.045.063.157.249.334.556s.337.567.477.779a6.052,6.052,0,0,0,.672.8,6.329,6.329,0,0,0,1.034.869,4.564,4.564,0,0,0,.873.545,6.751,6.751,0,0,0,.969.387,1.683,1.683,0,0,0,.918.032,1.147,1.147,0,0,0,.712-.545,1.031,1.031,0,0,0,0-.91,3.52,3.52,0,0,0-.843-1.21l-1.509-1.593q-.845-.914-1.327-1.508a10.728,10.728,0,0,1-.906-1.312,3.611,3.611,0,0,1-.505-1.319,3.731,3.731,0,0,1,.072-1.307,4.878,4.878,0,0,1,.636-1.492,3.887,3.887,0,0,1,3.464-1.946,8.541,8.541,0,0,1,4.949,1.829,10.112,10.112,0,0,1,1.387,1.13,10.466,10.466,0,0,1,.9.978q.291.377.712,1.013a1.74,1.74,0,0,1,.317,1.024,1.462,1.462,0,0,1-.28.882,1.967,1.967,0,0,1-.675.558,1.073,1.073,0,0,1-.876.048,2.015,2.015,0,0,1-.875-.644,13.17,13.17,0,0,0-2.272-2.259q-.454-.315-1-.621a2.53,2.53,0,0,0-1.118-.335.83.83,0,0,0-.818.364,1.017,1.017,0,0,0-.1.945,3.671,3.671,0,0,0,.873,1.148l1.52,1.545a18.812,18.812,0,0,1,1.481,1.711,6.628,6.628,0,0,1,.88,1.575,3.419,3.419,0,0,1,.217,1.674,5.056,5.056,0,0,1-2.909,3.772,5.079,5.079,0,0,1-2.989.2,9.276,9.276,0,0,1-3.23-1.459A10.652,10.652,0,0,1,1122.392,1550.494Zm13.222-12.155a1,1,0,0,1,.7-.514,1.059,1.059,0,0,1,.766.146,1.108,1.108,0,0,1,.465.636.992.992,0,0,1-.128.841l-2.023,3.3-1.806-1.108Zm-9.291,15.7,1.819,1.116-2.007,3.272a.985.985,0,0,1-.952.524,1.1,1.1,0,0,1-.918-.545.981.981,0,0,1,.051-1.095Z"/><line class="e" y2="2.327" transform="translate(1116.272 1558.713)"/><line class="e" y2="2.464" transform="translate(1117.915 1561.04)"/><line class="e" y2="2.327" transform="translate(1121.2 1563.777)"/><line class="e" y2="2.053" transform="translate(1125.854 1566.104)"/><line class="e" y2="0.958" transform="translate(1130.918 1567.063)"/><line class="e" y1="1.506" transform="translate(1140.91 1565.146)"/><line class="e" y1="2.327" transform="translate(1143.1 1562.819)"/><circle class="g" cx="18.383" cy="18.383" r="18.383" transform="matrix(0.171, -0.985, 0.985, 0.171, 1141.477, 1611.243)"/><circle class="g" cx="18.383" cy="18.383" r="18.383" transform="matrix(0.914, -0.406, 0.406, 0.914, 1138.467, 1584.491)"/><circle class="h" cx="15.626" cy="15.626" r="15.626" transform="translate(1143.108 1603.973) rotate(-72.358)"/><path class="c" d="M1157.981,1601.822a1.488,1.488,0,0,1-.958-1.453,2.026,2.026,0,0,1,.242-.851,1.213,1.213,0,0,1,.673-.576,1.992,1.992,0,0,1,1.076-.048q.115.018.633.142c.345.083.643.146.893.191a6.17,6.17,0,0,0,1.042.065,6.376,6.376,0,0,0,1.343-.151,4.548,4.548,0,0,0,1-.257,6.612,6.612,0,0,0,.948-.435,1.677,1.677,0,0,0,.656-.643,1.147,1.147,0,0,0,.1-.891,1.027,1.027,0,0,0-.659-.628,3.558,3.558,0,0,0-1.458-.224l-2.194,0q-1.244-.018-2.007-.078a10.512,10.512,0,0,1-1.575-.248,3.62,3.62,0,0,1-1.3-.543,3.73,3.73,0,0,1-.9-.953,4.876,4.876,0,0,1-.643-1.49,3.888,3.888,0,0,1,.978-3.851,8.546,8.546,0,0,1,4.736-2.324,10.176,10.176,0,0,1,1.775-.226,10.436,10.436,0,0,1,1.332.019q.474.049,1.225.183a1.739,1.739,0,0,1,.96.475,1.465,1.465,0,0,1,.446.811,1.977,1.977,0,0,1-.061.875,1.075,1.075,0,0,1-.569.667,2.013,2.013,0,0,1-1.07.19,13.14,13.14,0,0,0-3.2.089q-.541.112-1.137.294a2.522,2.522,0,0,0-1.014.579.829.829,0,0,0-.3.843,1.018,1.018,0,0,0,.614.727,3.685,3.685,0,0,0,1.433.159l2.167-.037a18.93,18.93,0,0,1,2.261.106,6.664,6.664,0,0,1,1.748.449,3.41,3.41,0,0,1,1.361,1,5.048,5.048,0,0,1,.728,4.708,5.082,5.082,0,0,1-1.914,2.3,9.273,9.273,0,0,1-3.283,1.334A10.644,10.644,0,0,1,1157.981,1601.822Zm.309-17.957a1,1,0,0,1,.111-.864,1.061,1.061,0,0,1,.634-.454,1.1,1.1,0,0,1,.782.1.989.989,0,0,1,.52.672l.995,3.739-2.048.545Zm4.97,17.554,2.063-.548.987,3.71a.983.983,0,0,1-.277,1.05,1.1,1.1,0,0,1-1.027.289.981.981,0,0,1-.759-.791Z"/><line class="e" y2="2.327" transform="translate(1147.539 1604.111)"/><line class="e" y2="2.464" transform="translate(1149.181 1606.438)"/><line class="e" y2="2.327" transform="translate(1152.467 1609.175)"/><line class="e" y2="2.053" transform="translate(1157.12 1611.502)"/><line class="e" y2="0.958" transform="translate(1162.185 1612.46)"/><line class="e" y1="1.506" transform="translate(1172.177 1610.544)"/><line class="e" y1="2.327" transform="translate(1174.367 1608.217)"/><path class="g" d="M1178.4,1602.427a18.384,18.384,0,1,0-25.283,6.056A18.383,18.383,0,0,0,1178.4,1602.427Z"/><circle class="g" cx="18.383" cy="18.383" r="18.383" transform="translate(1142.782 1607.022) rotate(-84.873)"/><path class="g" d="M1176.938,1596.87a15.626,15.626,0,0,0-5-19.143"/><path class="g" d="M1168.726,1575.922a15.627,15.627,0,1,0,7.118,22.937"/><path class="c" d="M1157.981,1598.36a1.463,1.463,0,0,1-.731-.6,1.444,1.444,0,0,1-.227-.854,2.025,2.025,0,0,1,.242-.851,1.213,1.213,0,0,1,.673-.576,1.992,1.992,0,0,1,1.076-.048q.115.018.633.142t.893.191a6.17,6.17,0,0,0,1.042.065,6.376,6.376,0,0,0,1.343-.151,4.548,4.548,0,0,0,1-.257,6.612,6.612,0,0,0,.948-.435,1.67,1.67,0,0,0,.656-.643,1.147,1.147,0,0,0,.1-.891,1.027,1.027,0,0,0-.659-.628,3.543,3.543,0,0,0-1.458-.223l-2.194-.005q-1.244-.018-2.007-.078a10.512,10.512,0,0,1-1.575-.248,3.622,3.622,0,0,1-1.3-.543,3.733,3.733,0,0,1-.9-.953,4.865,4.865,0,0,1-.643-1.49,3.889,3.889,0,0,1,.978-3.851,8.547,8.547,0,0,1,4.736-2.324,10.164,10.164,0,0,1,1.775-.226,10.6,10.6,0,0,1,1.332.019q.474.05,1.225.183a1.734,1.734,0,0,1,.96.476,1.458,1.458,0,0,1,.446.81,1.977,1.977,0,0,1-.061.875,1.08,1.08,0,0,1-.569.668,2.022,2.022,0,0,1-1.07.189,13.189,13.189,0,0,0-3.2.089q-.541.112-1.137.294a2.524,2.524,0,0,0-1.014.58.827.827,0,0,0-.3.842,1.016,1.016,0,0,0,.614.727,3.685,3.685,0,0,0,1.433.159l2.167-.036a18.727,18.727,0,0,1,2.261.1,6.664,6.664,0,0,1,1.748.449,3.419,3.419,0,0,1,1.361,1,5.049,5.049,0,0,1,.728,4.708,5.082,5.082,0,0,1-1.914,2.3,9.273,9.273,0,0,1-3.283,1.334A10.653,10.653,0,0,1,1157.981,1598.36Zm.309-17.958a1,1,0,0,1,.111-.864,1.061,1.061,0,0,1,.634-.454,1.116,1.116,0,0,1,.782.1.989.989,0,0,1,.52.672l.995,3.739-2.048.545Zm4.97,17.554,2.063-.548.987,3.71a.983.983,0,0,1-.277,1.05,1.1,1.1,0,0,1-1.027.29.982.982,0,0,1-.759-.792Z"/><line class="e" y2="2.327" transform="translate(1147.539 1600.648)"/><line class="e" y2="2.464" transform="translate(1149.181 1602.975)"/><line class="e" y2="2.327" transform="translate(1152.467 1605.712)"/><line class="e" y2="2.053" transform="translate(1157.12 1608.039)"/><line class="e" y2="0.958" transform="translate(1162.185 1608.997)"/><line class="e" y1="1.506" transform="translate(1172.177 1607.081)"/><line class="e" y1="2.327" transform="translate(1174.367 1604.754)"/><circle class="g" cx="18.383" cy="18.383" r="18.383" transform="matrix(0.825, -0.565, 0.565, 0.825, 1107.488, 1601.401)"/><circle class="g" cx="18.383" cy="18.383" r="18.383" transform="matrix(0.972, -0.236, 0.236, 0.972, 1110.838, 1590.201)"/><path class="g" d="M1140.225,1617.6a15.629,15.629,0,0,0,.988-27.2,15.738,15.738,0,0,0-1.5-.813"/><path class="g" d="M1132.88,1619.353a15.7,15.7,0,0,0,4.889-.733"/><path class="g" d="M1124.87,1617.045a15.6,15.6,0,0,0,5.764,2.124"/><path class="g" d="M1137.432,1588.725a15.632,15.632,0,0,0-16.408,24.994"/><path class="c" d="M1123.966,1605.8a1.459,1.459,0,0,1-.069-.943,1.443,1.443,0,0,1,.461-.753,2.054,2.054,0,0,1,.784-.411,1.207,1.207,0,0,1,.881.091,1.973,1.973,0,0,1,.776.746c.045.064.157.249.334.556s.337.567.477.78a6.174,6.174,0,0,0,.672.8,6.361,6.361,0,0,0,1.034.869,4.6,4.6,0,0,0,.873.544,6.745,6.745,0,0,0,.969.388,1.681,1.681,0,0,0,.918.031,1.146,1.146,0,0,0,.712-.545,1.031,1.031,0,0,0,0-.91,3.526,3.526,0,0,0-.843-1.21l-1.509-1.592q-.843-.915-1.327-1.508a10.741,10.741,0,0,1-.906-1.313,3.61,3.61,0,0,1-.505-1.319,3.733,3.733,0,0,1,.072-1.307,4.892,4.892,0,0,1,.636-1.492,3.889,3.889,0,0,1,3.464-1.946,8.548,8.548,0,0,1,4.949,1.829,11.1,11.1,0,0,1,2.291,2.109q.291.376.712,1.013a1.74,1.74,0,0,1,.317,1.023,1.458,1.458,0,0,1-.28.882,1.98,1.98,0,0,1-.675.559,1.082,1.082,0,0,1-.876.048,2.027,2.027,0,0,1-.875-.645,13.229,13.229,0,0,0-2.271-2.258c-.3-.211-.636-.417-1-.621a2.5,2.5,0,0,0-1.118-.335.827.827,0,0,0-.818.363,1.015,1.015,0,0,0-.1.946,3.662,3.662,0,0,0,.872,1.147l1.52,1.546a18.665,18.665,0,0,1,1.481,1.71,6.625,6.625,0,0,1,.88,1.576,3.412,3.412,0,0,1,.217,1.673,5.055,5.055,0,0,1-2.909,3.773,5.087,5.087,0,0,1-2.989.2,9.3,9.3,0,0,1-3.23-1.459A10.655,10.655,0,0,1,1123.966,1605.8Zm13.222-12.154a1.007,1.007,0,0,1,.7-.515,1.063,1.063,0,0,1,.766.146,1.113,1.113,0,0,1,.465.637.989.989,0,0,1-.128.84l-2.023,3.3-1.806-1.108Zm-9.291,15.7,1.819,1.116-2.007,3.272a.985.985,0,0,1-.952.524,1.1,1.1,0,0,1-.918-.545.982.982,0,0,1,.051-1.095Z"/><line class="e" y2="2.327" transform="translate(1117.846 1614.018)"/><line class="e" y2="2.464" transform="translate(1119.489 1616.345)"/><line class="e" y2="2.327" transform="translate(1122.774 1619.083)"/><line class="e" y2="2.053" transform="translate(1127.428 1621.41)"/><line class="e" y2="0.958" transform="translate(1132.492 1622.368)"/><line class="e" y1="1.506" transform="translate(1142.484 1620.452)"/><line class="e" y1="2.327" transform="translate(1144.674 1618.125)"/></g><circle class="g" cx="18.383" cy="18.383" r="18.383" transform="matrix(0.985, -0.173, 0.173, 0.985, 1110.257, 1533.627)"/><circle class="g" cx="18.383" cy="18.383" r="18.383" transform="matrix(0.985, -0.173, 0.173, 0.985, 1110.257, 1531.168)"/><circle class="h" cx="15.626" cy="15.626" r="15.626" transform="translate(1111.709 1555.857) rotate(-71.196)"/><path class="c" d="M1122.462,1548.176a1.469,1.469,0,0,1-.069-.944,1.447,1.447,0,0,1,.461-.752,2.027,2.027,0,0,1,.784-.411,1.212,1.212,0,0,1,.881.09,1.98,1.98,0,0,1,.776.746c.045.064.157.249.335.557s.336.567.476.779a6.2,6.2,0,0,0,.672.8,6.376,6.376,0,0,0,1.034.869,4.562,4.562,0,0,0,.873.544,6.623,6.623,0,0,0,.969.388,1.672,1.672,0,0,0,.918.031,1.145,1.145,0,0,0,.712-.544,1.028,1.028,0,0,0,0-.91,3.541,3.541,0,0,0-.842-1.211l-1.51-1.592q-.843-.915-1.326-1.508a10.651,10.651,0,0,1-.907-1.312,3.624,3.624,0,0,1-.505-1.32,3.73,3.73,0,0,1,.072-1.306,4.89,4.89,0,0,1,.636-1.493,3.891,3.891,0,0,1,3.464-1.946,8.555,8.555,0,0,1,4.949,1.829,10.2,10.2,0,0,1,1.387,1.131,10.342,10.342,0,0,1,.9.978q.291.376.712,1.013a1.749,1.749,0,0,1,.318,1.024,1.467,1.467,0,0,1-.28.882,2,2,0,0,1-.676.558,1.081,1.081,0,0,1-.876.048,2.027,2.027,0,0,1-.875-.645,13.223,13.223,0,0,0-2.271-2.258q-.456-.315-1-.621a2.517,2.517,0,0,0-1.118-.335.829.829,0,0,0-.817.363,1.013,1.013,0,0,0-.1.946,3.675,3.675,0,0,0,.872,1.148l1.52,1.545a18.658,18.658,0,0,1,1.481,1.711,6.6,6.6,0,0,1,.88,1.575,3.417,3.417,0,0,1,.217,1.673,5.055,5.055,0,0,1-2.909,3.773,5.079,5.079,0,0,1-2.989.2,9.3,9.3,0,0,1-3.23-1.459A10.657,10.657,0,0,1,1122.462,1548.176Zm13.222-12.155a1.007,1.007,0,0,1,.7-.515,1.067,1.067,0,0,1,.767.146,1.118,1.118,0,0,1,.464.637.99.99,0,0,1-.128.84l-2.023,3.3-1.806-1.108Zm-9.291,15.7,1.82,1.116-2.008,3.272a.986.986,0,0,1-.952.524,1.1,1.1,0,0,1-.917-.545.98.98,0,0,1,.05-1.095Z"/><line class="e" y2="2.327" transform="translate(1116.342 1556.395)"/><line class="e" y2="2.464" transform="translate(1117.985 1558.722)"/><line class="e" y2="2.327" transform="translate(1121.27 1561.459)"/><line class="e" y2="2.053" transform="translate(1125.924 1563.786)"/><line class="e" y2="0.958" transform="translate(1130.988 1564.744)"/><line class="e" y1="1.506" transform="translate(1140.98 1562.828)"/><line class="e" y1="2.327" transform="translate(1143.171 1560.501)"/><rect class="d" width="119.189" height="62.895" transform="matrix(0.495, 0.869, -0.869, 0.495, 1082.371, 1539.525)"/><path class="d" d="M1074.985,1549.834l-34.3,19.521a6.6,6.6,0,0,1-3,7.811c-.113.065-.231.118-.347.175l47.833,84.054c.109-.071.214-.145.328-.21a6.6,6.6,0,0,1,9,2.472l34.08-19.394a6.6,6.6,0,0,1,2.471-9l-47.813-84.02A6.6,6.6,0,0,1,1074.985,1549.834Z"/><path class="e" d="M1070.221,1592.054a20.908,20.908,0,0,0,22.879,33.729"/><path class="e" d="M1083.073,1585.534a20.829,20.829,0,0,0-7.884,2.6q-.413.235-.81.485"/><path class="e" d="M1100.157,1621.234a20.91,20.91,0,0,0-14.051-35.835"/><circle class="c" cx="19.151" cy="19.151" r="19.151" transform="matrix(0.66, -0.751, 0.751, 0.66, 1058.5, 1608.04)"/><path class="a" d="M1074.076,1603.075a1.9,1.9,0,0,1,.511-1.116,1.875,1.875,0,0,1,1-.567,2.635,2.635,0,0,1,1.148.023,1.569,1.569,0,0,1,.946.654,2.574,2.574,0,0,1,.415,1.334c.011.1.022.381.032.842s.028.856.054,1.184a7.988,7.988,0,0,0,.264,1.329,8.235,8.235,0,0,0,.632,1.635,5.959,5.959,0,0,0,.652,1.165,8.673,8.673,0,0,0,.859,1.047,2.167,2.167,0,0,0,1.024.61,1.486,1.486,0,0,0,1.151-.173,1.339,1.339,0,0,0,.569-1.035,4.592,4.592,0,0,0-.2-1.9l-.719-2.755q-.389-1.568-.565-2.544a13.679,13.679,0,0,1-.209-2.06,4.707,4.707,0,0,1,.25-1.816,4.845,4.845,0,0,1,.9-1.44,6.315,6.315,0,0,1,1.657-1.3,5.046,5.046,0,0,1,5.156-.045,11.1,11.1,0,0,1,4.482,5.176,13.218,13.218,0,0,1,.87,2.153,13.7,13.7,0,0,1,.416,1.678q.094.61.175,1.6a2.26,2.26,0,0,1-.279,1.363,1.9,1.9,0,0,1-.871.827,2.564,2.564,0,0,1-1.117.212,1.393,1.393,0,0,1-1.026-.494,2.614,2.614,0,0,1-.591-1.28,17.137,17.137,0,0,0-1.17-3.989q-.32-.642-.745-1.329a3.269,3.269,0,0,0-1.062-1.081,1.075,1.075,0,0,0-1.157-.1,1.322,1.322,0,0,0-.709,1.011,4.781,4.781,0,0,0,.274,1.851l.762,2.708a24.486,24.486,0,0,1,.613,2.872,8.59,8.59,0,0,1,.015,2.341,4.422,4.422,0,0,1-.8,2.038,6.551,6.551,0,0,1-5.668,2.469,6.59,6.59,0,0,1-3.524-1.64,12.042,12.042,0,0,1-2.759-3.68A13.825,13.825,0,0,1,1074.076,1603.075Zm22.638-5.546a1.3,1.3,0,0,1,1.121-.145,1.375,1.375,0,0,1,.78.646,1.439,1.439,0,0,1,.13,1.014,1.288,1.288,0,0,1-.671.875l-4.364,2.484-1.361-2.39Zm-20.388,12.038,1.37,2.408-4.33,2.464a1.278,1.278,0,0,1-1.41,0,1.427,1.427,0,0,1-.7-1.193,1.274,1.274,0,0,1,.742-1.214Z"/><circle class="g" cx="18.383" cy="18.383" r="18.383" transform="matrix(0.985, -0.173, 0.173, 0.985, 1110.257, 1530.906)"/><circle class="g" cx="18.383" cy="18.383" r="18.383" transform="matrix(0.985, -0.173, 0.173, 0.985, 1110.257, 1528.447)"/><path class="g" d="M1130.671,1558.986a15.628,15.628,0,0,0,9.038-28.924c-.122-.076-.246-.149-.37-.221"/><path class="h" d="M1123.366,1556.7a15.585,15.585,0,0,0,5.885,2.143"/><path class="g" d="M1137.825,1529.073a15.629,15.629,0,0,0-16.515,26.125"/><path class="c" d="M1122.462,1545.455a1.469,1.469,0,0,1-.069-.944,1.447,1.447,0,0,1,.461-.752,2.027,2.027,0,0,1,.784-.411,1.212,1.212,0,0,1,.881.09,1.981,1.981,0,0,1,.776.746c.045.064.157.249.335.557s.336.567.476.779a6.188,6.188,0,0,0,.672.8,6.364,6.364,0,0,0,1.034.869,4.562,4.562,0,0,0,.873.544,6.623,6.623,0,0,0,.969.388,1.673,1.673,0,0,0,.918.031,1.145,1.145,0,0,0,.712-.544,1.028,1.028,0,0,0,0-.91,3.541,3.541,0,0,0-.842-1.211l-1.51-1.592q-.843-.915-1.326-1.508a10.651,10.651,0,0,1-.907-1.312,3.616,3.616,0,0,1-.505-1.32,3.729,3.729,0,0,1,.072-1.306,4.89,4.89,0,0,1,.636-1.493,3.891,3.891,0,0,1,3.464-1.946,8.554,8.554,0,0,1,4.949,1.829,10.2,10.2,0,0,1,1.387,1.131,10.342,10.342,0,0,1,.9.978q.291.376.712,1.013a1.749,1.749,0,0,1,.318,1.024,1.467,1.467,0,0,1-.28.882,2,2,0,0,1-.676.558,1.082,1.082,0,0,1-.876.048,2.027,2.027,0,0,1-.875-.645,13.224,13.224,0,0,0-2.271-2.258q-.456-.315-1-.621a2.517,2.517,0,0,0-1.118-.335.829.829,0,0,0-.817.363,1.013,1.013,0,0,0-.1.946,3.675,3.675,0,0,0,.872,1.148l1.52,1.545a18.809,18.809,0,0,1,1.481,1.71,6.624,6.624,0,0,1,.88,1.576,3.415,3.415,0,0,1,.217,1.673,5.054,5.054,0,0,1-2.909,3.773,5.078,5.078,0,0,1-2.989.2,9.293,9.293,0,0,1-3.23-1.459A10.656,10.656,0,0,1,1122.462,1545.455Zm13.222-12.155a1.007,1.007,0,0,1,.7-.515,1.066,1.066,0,0,1,.767.146,1.117,1.117,0,0,1,.464.637.99.99,0,0,1-.128.84l-2.023,3.3-1.806-1.108Zm-9.291,15.7,1.82,1.116-2.008,3.272a.986.986,0,0,1-.952.524,1.1,1.1,0,0,1-.917-.545.98.98,0,0,1,.05-1.095Z"/><line class="e" y2="2.327" transform="translate(1116.342 1553.674)"/><line class="e" y2="2.464" transform="translate(1117.985 1556)"/><line class="e" y2="2.327" transform="translate(1121.27 1558.738)"/><line class="e" y2="2.053" transform="translate(1125.924 1561.065)"/><line class="e" y2="0.958" transform="translate(1130.988 1562.023)"/><line class="e" y1="1.506" transform="translate(1140.98 1560.107)"/><line class="e" y1="2.327" transform="translate(1143.171 1557.78)"/><path class="g" d="M1178.717,1602.77a18.383,18.383,0,1,0-25.283,6.056A18.383,18.383,0,0,0,1178.717,1602.77Z"/><circle class="g" cx="18.383" cy="18.383" r="18.383" transform="translate(1143.095 1607.365) rotate(-84.873)"/><path class="g" d="M1177.251,1597.213a15.629,15.629,0,0,0-5-19.143"/><path class="g" d="M1169.039,1576.265a15.627,15.627,0,1,0,7.118,22.937"/><path class="c" d="M1158.294,1598.7a1.466,1.466,0,0,1-.732-.6,1.451,1.451,0,0,1-.227-.854,2.034,2.034,0,0,1,.243-.85,1.21,1.21,0,0,1,.673-.577,1.988,1.988,0,0,1,1.075-.048c.077.012.289.059.634.142s.643.147.893.191a6.162,6.162,0,0,0,1.042.065,6.367,6.367,0,0,0,1.342-.151,4.534,4.534,0,0,0,1-.257,6.625,6.625,0,0,0,.949-.435,1.668,1.668,0,0,0,.655-.643,1.143,1.143,0,0,0,.1-.891,1.027,1.027,0,0,0-.659-.628,3.543,3.543,0,0,0-1.458-.223l-2.194-.005q-1.245-.018-2.007-.078a10.512,10.512,0,0,1-1.575-.248,3.633,3.633,0,0,1-1.305-.543,3.765,3.765,0,0,1-.9-.953,4.887,4.887,0,0,1-.642-1.49,3.888,3.888,0,0,1,.978-3.851,8.55,8.55,0,0,1,4.736-2.324,10.165,10.165,0,0,1,1.775-.226,10.627,10.627,0,0,1,1.332.019q.474.049,1.224.183a1.733,1.733,0,0,1,.961.476,1.458,1.458,0,0,1,.446.811,1.988,1.988,0,0,1-.061.874,1.079,1.079,0,0,1-.57.668,2.018,2.018,0,0,1-1.069.189,13.187,13.187,0,0,0-3.2.089q-.543.112-1.137.294a2.524,2.524,0,0,0-1.014.58.827.827,0,0,0-.3.842,1.014,1.014,0,0,0,.614.727,3.685,3.685,0,0,0,1.433.159l2.167-.036a18.951,18.951,0,0,1,2.26.105,6.653,6.653,0,0,1,1.748.449,3.423,3.423,0,0,1,1.362,1,5.056,5.056,0,0,1,.728,4.708,5.081,5.081,0,0,1-1.914,2.3,9.276,9.276,0,0,1-3.284,1.334A10.65,10.65,0,0,1,1158.294,1598.7Zm.308-17.958a1.008,1.008,0,0,1,.112-.864,1.058,1.058,0,0,1,.634-.454,1.116,1.116,0,0,1,.782.1.992.992,0,0,1,.52.672l.995,3.739-2.048.545Zm4.971,17.555,2.063-.549.986,3.71a.983.983,0,0,1-.276,1.05,1.1,1.1,0,0,1-1.028.29.981.981,0,0,1-.758-.792Z"/><line class="e" y2="2.327" transform="translate(1147.852 1600.991)"/><line class="e" y2="2.464" transform="translate(1149.494 1603.318)"/><line class="e" y2="2.327" transform="translate(1152.779 1606.055)"/><line class="e" y2="2.053" transform="translate(1157.433 1608.382)"/><line class="e" y2="0.958" transform="translate(1162.498 1609.34)"/><line class="e" y1="1.506" transform="translate(1172.49 1607.424)"/><line class="e" y1="2.327" transform="translate(1174.68 1605.097)"/><circle class="g" cx="18.383" cy="18.383" r="18.383" transform="matrix(0.825, -0.565, 0.565, 0.825, 1107.828, 1601.195)"/><circle class="g" cx="18.383" cy="18.383" r="18.383" transform="translate(1111.179 1589.995) rotate(-13.654)"/><path class="g" d="M1140.565,1617.4a15.63,15.63,0,0,0,.989-27.2,16.259,16.259,0,0,0-1.5-.814"/><path class="g" d="M1133.221,1619.147a15.7,15.7,0,0,0,4.888-.734"/><path class="g" d="M1125.211,1616.838a15.568,15.568,0,0,0,5.764,2.125"/><path class="g" d="M1137.772,1588.518a15.632,15.632,0,0,0-16.408,24.995"/><path class="c" d="M1124.306,1605.593a1.466,1.466,0,0,1-.069-.943,1.444,1.444,0,0,1,.462-.753,2.017,2.017,0,0,1,.783-.411,1.211,1.211,0,0,1,.881.09,1.983,1.983,0,0,1,.776.747c.045.063.157.249.335.556s.337.567.477.779a6.1,6.1,0,0,0,.671.8,6.321,6.321,0,0,0,1.034.869,4.564,4.564,0,0,0,.873.545,6.716,6.716,0,0,0,.97.387,1.68,1.68,0,0,0,.917.032,1.151,1.151,0,0,0,.713-.545,1.032,1.032,0,0,0,0-.91,3.529,3.529,0,0,0-.842-1.21l-1.509-1.593q-.844-.914-1.327-1.508a10.541,10.541,0,0,1-.906-1.312,3.6,3.6,0,0,1-.506-1.319,3.734,3.734,0,0,1,.072-1.307,4.885,4.885,0,0,1,.636-1.492,3.887,3.887,0,0,1,3.464-1.946,8.542,8.542,0,0,1,4.949,1.829,10.192,10.192,0,0,1,1.387,1.13,10.343,10.343,0,0,1,.9.978q.291.377.712,1.013a1.741,1.741,0,0,1,.318,1.024,1.467,1.467,0,0,1-.28.882,1.969,1.969,0,0,1-.676.558,1.073,1.073,0,0,1-.876.048,2.015,2.015,0,0,1-.875-.644,13.155,13.155,0,0,0-2.271-2.259q-.456-.315-1-.621a2.53,2.53,0,0,0-1.118-.335.828.828,0,0,0-.817.364,1.011,1.011,0,0,0-.1.945,3.681,3.681,0,0,0,.872,1.148l1.52,1.545a18.974,18.974,0,0,1,1.482,1.711,6.65,6.65,0,0,1,.879,1.575,3.419,3.419,0,0,1,.217,1.674,5.049,5.049,0,0,1-2.909,3.772,5.079,5.079,0,0,1-2.989.2,9.277,9.277,0,0,1-3.23-1.459A10.651,10.651,0,0,1,1124.306,1605.593Zm13.222-12.155a1,1,0,0,1,.7-.514,1.063,1.063,0,0,1,.767.146,1.112,1.112,0,0,1,.465.636,1,1,0,0,1-.128.841l-2.024,3.3-1.806-1.108Zm-9.291,15.7,1.82,1.116-2.008,3.272a.985.985,0,0,1-.952.524,1.1,1.1,0,0,1-.917-.545.98.98,0,0,1,.05-1.095Z"/><line class="e" y2="2.327" transform="translate(1118.186 1613.812)"/><line class="e" y2="2.464" transform="translate(1119.829 1616.139)"/><line class="e" y2="2.327" transform="translate(1123.114 1618.876)"/><line class="e" y2="2.053" transform="translate(1127.768 1621.203)"/><line class="e" y2="0.958" transform="translate(1132.832 1622.161)"/><line class="e" y1="1.506" transform="translate(1142.825 1620.245)"/><line class="e" y1="2.327" transform="translate(1145.015 1617.918)"/></g></svg>